{
.appVersion = "1342";
DisplayStrings = (
"g/ahookabove des",
"g/gcommaaccent",
aeg,
"R/Rcommaaccent",
"c/cacute",
"/lcommaaccent",
"!?"
);
copyright = "Copyright 2020 The XanhMono Project Authors (https://github.com/yellow-type-foundry)";
customParameters = (
{
name = license;
value = "This Font Software is licensed under the SIL Open Font License, Version 1.1. This license is available with a FAQ at: https://scripts.sil.org/OFL";
},
{
name = licenseURL;
value = "https://scripts.sil.org/OFL";
},
{
name = fsType;
value = (
);
},
{
name = isFixedPitch;
value = 1;
},
{
name = "Use Typo Metrics";
value = 1;
},
{
name = "Disable Last Change";
value = 1;
},
{
name = "Use Line Breaks";
value = 1;
}
);
date = "2020-09-29 02:44:02 +0000";
designer = "Lam Bao, Duy Dao";
designerURL = "https://yellow-type.com/";
familyName = "Xanh Mono";
featurePrefixes = (
{
automatic = 1;
code = "languagesystem DFLT dflt;

languagesystem latn dflt;
languagesystem latn AZE;
languagesystem latn CRT;
languagesystem latn KAZ;
languagesystem latn TAT;
languagesystem latn TRK;
languagesystem latn ROM;
languagesystem latn MOL;
";
name = Languagesystems;
}
);
features = (
{
automatic = 1;
code = "feature locl;
feature subs;
feature sinf;
feature sups;
feature numr;
feature dnom;
feature frac;
feature ordn;
";
name = aalt;
},
{
automatic = 1;
code = "lookup ccmp_Other_1 {
	@CombiningTopAccents = [acutecomb brevecomb caroncomb circumflexcomb commaturnedabovecomb dieresiscomb dotaccentcomb gravecomb hookabovecomb hungarumlautcomb macroncomb ringcomb tildecomb];
	@CombiningNonTopAccents = [cedillacomb dotbelowcomb ogonekcomb horncomb];
	sub [i]' @CombiningTopAccents by [idotless];
	sub [i]' @CombiningNonTopAccents @CombiningTopAccents by [idotless];
} ccmp_Other_1;

lookup ccmp_latn_1 {
	lookupflag 0;
	sub brevecomb acutecomb by brevecomb_acutecomb;
	sub brevecomb gravecomb by brevecomb_gravecomb;
	sub brevecomb hookabovecomb by brevecomb_hookabovecomb;

glyphs = (
{
color = 3;
glyphname = A;
layers = (
{
anchors = (
{
name = bottom;
position = "{193, 0}";
},
{
name = ogonek;
position = "{376, 0}";
},
{
name = top;
position = "{361, 740}";
}
);
components = (
{
name = crossbar;
transform = "{0.80615, 0, 0, 1, 18, -2}";
}
);
guideLines = (
{
angle = 103.844;
position = "{367, 38}";
},
{
angle = 256.156;
position = "{87, 45}";
}
);
layerId = "63C36BCE-C2CB-4BF3-9C7E-344D74934179";
paths = (
{
closed = 1;
nodes = (
"118 0 LINE",
"124 34 LINE",
"56 34 LINE",
"317 614 LINE",
"336 34 LINE",
"233 34 LINE",
"227 0 LINE",
"461 0 LINE",
"467 34 LINE",
"405 34 LINE",
"381 740 LINE",
"343 740 LINE",
"21 34 LINE",
"-34 34 LINE",
"-40 0 LINE"
);
}
);
width = 500;
}
);
unicode = 0041;
},
{
color = 6;
glyphname = AE;
layers = (
{
layerId = "63C36BCE-C2CB-4BF3-9C7E-344D74934179";
paths = (
{
closed = 1;
nodes = (
"108 0 LINE",
"115 34 LINE",
"55 34 LINE",
"351 634 LINE",
"223 34 LINE",
"169 34 LINE",
"162 0 LINE",
"443 0 LINE",
"493 234 LINE",
"465 234 LINE",
"430 108 LINE SMOOTH",
"414 50 OFFCURVE",
"383 36 OFFCURVE",
"326 35 CURVE SMOOTH",
"283 34 LINE",
"358 387 LINE",
"419 387 LINE",
"392 260 LINE",
"422 260 LINE",
"483 548 LINE",
"453 548 LINE",
"426 421 LINE",
"365 421 LINE",
"426 705 LINE",
"465 705 LINE SMOOTH",
"523 705 OFFCURVE",
"549 691 OFFCURVE",
"540 633 CURVE SMOOTH",
"524 526 LINE",
"552 526 LINE",
"597 740 LINE",
"271 740 LINE",
"265 706 LINE",
"356 706 LINE",
"20 34 LINE",
"-33 34 LINE",
"-40 0 LINE"
);
},
{
closed = 1;
nodes = (
"283 273 LINE",
"289 303 LINE",
"178 303 LINE",
"162 273 LINE"
);
}
);
width = 500;
}
);
unicode = 00C6;
},
{
color = 6;
glyphname = B;
layers = (
{
layerId = "63C36BCE-C2CB-4BF3-9C7E-344D74934179";
paths = (
{
closed = 1;
nodes = (
"200 0 LINE SMOOTH",
"352 0 OFFCURVE",
"461 115 OFFCURVE",
"461 254 CURVE SMOOTH",
"461 349 OFFCURVE",
"407 392 OFFCURVE",
"366 398 CURVE",
"367 405 LINE",
"427 424 OFFCURVE",
"506 490 OFFCURVE",
"506 602 CURVE SMOOTH",
"506 740 OFFCURVE",
"393 740 OFFCURVE",
"351 740 CURVE SMOOTH",
"124 740 LINE",
"117 706 LINE",
"201 706 LINE",
"58 34 LINE",
"-26 34 LINE",
"-33 0 LINE"
);
},
{
closed = 1;
nodes = (
"202 383 LINE",
"283 383 LINE SMOOTH",
"365 383 OFFCURVE",
"400 339 OFFCURVE",
"383 257 CURVE SMOOTH",
"362 158 LINE SMOOTH",
"345 76 OFFCURVE",
"288 32 OFFCURVE",
"209 32 CURVE SMOOTH",
"128 32 LINE"
);
},
{
closed = 1;
nodes = (
"271 708 LINE",
"352 708 LINE SMOOTH",
"415 708 OFFCURVE",
"445 673 OFFCURVE",
"431 608 CURVE SMOOTH",
"411 514 LINE SMOOTH",
"397 449 OFFCURVE",
"355 414 OFFCURVE",
"290 414 CURVE SMOOTH",
"209 414 LINE"
);
}
);
width = 500;
}
);
unicode = 0042;
},
{
color = 6;
glyphname = C;
layers = (
{
anchors = (
{
name = bottom;
position = "{213, 0}";
},
{
name = top;
position = "{350, 740}";
}
);
layerId = "63C36BCE-C2CB-4BF3-9C7E-344D74934179";
paths = (
{
closed = 1;
nodes = (
"278 -10 OFFCURVE",
"334 58 OFFCURVE",
"354 110 CURVE",
"362 110 LINE",
"336 -10 LINE",
"369 -10 LINE",
"425 252 LINE",
"375 252 LINE",
"370 229 LINE SMOOTH",
"337 77 OFFCURVE",
"264 27 OFFCURVE",
"203 27 CURVE SMOOTH",
"130 27 OFFCURVE",
"100 90 OFFCURVE",
"124 205 CURVE SMOOTH",
"194 535 LINE SMOOTH",
"218 650 OFFCURVE",
"285 713 OFFCURVE",
"357 713 CURVE SMOOTH",
"419 713 OFFCURVE",
"464 667 OFFCURVE",
"430 511 CURVE SMOOTH",
"425 488 LINE",
"475 488 LINE",
"531 750 LINE",
"498 750 LINE",
"474 638 LINE",
"466 638 LINE",
"466 686 OFFCURVE",
"439 750 OFFCURVE",
"362 750 CURVE SMOOTH",
"195 750 OFFCURVE",
"58 467 OFFCURVE",
"58 224 CURVE SMOOTH",
"58 90 OFFCURVE",
"100 -10 OFFCURVE",
"199 -10 CURVE SMOOTH"
);
}
);
width = 500;
}
);
unicode = 0043;
},
{
color = 6;
glyphname = D;
layers = (
{
anchors = (
{
name = bottom;
position = "{193, 0}";
},
{
name = center;
position = "{271, 370}";
},
{
name = top;
position = "{350, 740}";
}
);
layerId = "63C36BCE-C2CB-4BF3-9C7E-344D74934179";
paths = (
{
closed = 1;
nodes = (
"170 0 LINE SMOOTH",
"345 0 OFFCURVE",
"508 240 OFFCURVE",
"508 498 CURVE SMOOTH",
"508 631 OFFCURVE",
"455 740 OFFCURVE",
"327 740 CURVE SMOOTH",
"138 740 LINE",
"131 706 LINE",
"215 706 LINE",
"72 34 LINE",
"-12 34 LINE",
"-19 0 LINE"
);
},
{
closed = 1;
nodes = (
"285 708 LINE",
"320 708 LINE SMOOTH",
"408 708 OFFCURVE",
"468 644 OFFCURVE",
"443 527 CURVE SMOOTH",
"376 213 LINE SMOOTH",
"351 96 OFFCURVE",
"264 32 OFFCURVE",
"177 32 CURVE SMOOTH",
"142 32 LINE"
);
}
);
width = 500;
}
);
unicode = 0044;
},
{
color = 6;
glyphname = E;
layers = (
{
anchors = (
{
name = bottom;
position = "{193, 0}";
},
{
name = ogonek;
position = "{303, 0}";
},
{
name = top;
position = "{358, 740}";
},
{
name = topleft;
position = "{120, 740}";
}
);
guideLines = (
{
angle = 77.972;
position = "{180, 211}";
}
);
layerId = "63C36BCE-C2CB-4BF3-9C7E-344D74934179";
paths = (
{
closed = 1;
nodes = (
"393 0 LINE",
"443 234 LINE",
"415 234 LINE",
"377 108 LINE SMOOTH",
"357 41 OFFCURVE",
"322 35 OFFCURVE",
"275 35 CURVE SMOOTH",
"133 35 LINE",
"208 387 LINE",
"337 387 LINE",
"310 260 LINE",
"342 260 LINE",
"403 548 LINE",
"371 548 LINE",
"344 421 LINE",
"215 421 LINE",
"276 705 LINE",
"408 705 LINE SMOOTH",
"455 705 OFFCURVE",
"487 691 OFFCURVE",
"480 633 CURVE SMOOTH",
"467 526 LINE",
"495 526 LINE",
"540 740 LINE",
"129 740 LINE",
"122 706 LINE",
"206 706 LINE",
"63 34 LINE",
"-21 34 LINE",
"-28 0 LINE"
);
}
);
width = 500;
}
);
unicode = 0045;
},
{
color = 6;
glyphname = F;
layers = (
{
layerId = "63C36BCE-C2CB-4BF3-9C7E-344D74934179";
paths = (
{
closed = 1;
nodes = (
"300 0 LINE",
"307 34 LINE",
"145 34 LINE",
"220 387 LINE",
"361 387 LINE",
"334 260 LINE",
"364 260 LINE",
"425 548 LINE",
"395 548 LINE",
"368 421 LINE",
"227 421 LINE",
"288 705 LINE",
"430 705 LINE SMOOTH",
"477 705 OFFCURVE",
"509 691 OFFCURVE",
"502 633 CURVE SMOOTH",
"489 526 LINE",
"517 526 LINE",
"562 740 LINE",
"141 740 LINE",
"134 706 LINE",
"218 706 LINE",
"75 34 LINE",
"-9 34 LINE",
"-16 0 LINE"
);
}
);
width = 500;
}
);
unicode = 0046;
},
{
color = 6;
glyphname = G;
layers = (
{
anchors = (
{
name = bottom;
position = "{193, 0}";
},
{
name = top;
position = "{350, 740}";
}
);
layerId = "63C36BCE-C2CB-4BF3-9C7E-344D74934179";
paths = (
{
closed = 1;
nodes = (
"288 -10 OFFCURVE",
"347 64 OFFCURVE",
"369 120 CURVE",
"378 120 LINE",
"353 0 LINE",
"388 0 LINE",
"474 404 LINE",
"252 404 LINE",
"244 370 LINE",
"410 370 LINE",
"397 307 LINE SMOOTH",
"374 197 OFFCURVE",
"328 27 OFFCURVE",
"212 27 CURVE SMOOTH",
"141 27 OFFCURVE",
"112 90 OFFCURVE",
"136 205 CURVE SMOOTH",
"206 535 LINE SMOOTH",
"230 650 OFFCURVE",
"290 713 OFFCURVE",
"369 713 CURVE SMOOTH",
"437 713 OFFCURVE",
"483 667 OFFCURVE",
"449 511 CURVE SMOOTH",
"444 488 LINE",
"494 488 LINE",
"550 750 LINE",
"517 750 LINE",
"493 638 LINE",
"485 638 LINE",
"486 686 OFFCURVE",
"458 750 OFFCURVE",
"379 750 CURVE SMOOTH",
"209 750 OFFCURVE",
"70 470 OFFCURVE",
"70 224 CURVE SMOOTH",
"70 69 OFFCURVE",
"125 -10 OFFCURVE",
"209 -10 CURVE SMOOTH"
);
}
);
width = 500;
}
);
unicode = 0047;
},
{
color = 6;
glyphname = H;
layers = (
{
layerId = "63C36BCE-C2CB-4BF3-9C7E-344D74934179";
paths = (
{
closed = 1;
nodes = (
"426 0 LINE",
"433 34 LINE",
"367 34 LINE",
"510 706 LINE",
"576 706 LINE",
"583 740 LINE",
"385 740 LINE",
"378 706 LINE",
"444 706 LINE",
"301 34 LINE",
"235 34 LINE",
"228 0 LINE"
);
},
{
closed = 1;
nodes = (
"147 0 LINE",
"154 34 LINE",
"88 34 LINE",
"231 706 LINE",
"297 706 LINE",
"304 740 LINE",
"106 740 LINE",
"99 706 LINE",
"165 706 LINE",
"22 34 LINE",
"-44 34 LINE",
"-51 0 LINE"
);
},
{
closed = 1;
nodes = (
"399 382 LINE",
"406 416 LINE",
"132 416 LINE",
"125 382 LINE"
);
}
);
width = 500;
}
);
unicode = 0048;
},
{
color = 3;
glyphname = Hbar;
layers = (
{
components = (
{
name = H;
}
);
layerId = "63C36BCE-C2CB-4BF3-9C7E-344D74934179";
paths = (
{
closed = 1;
nodes = (
"98 562 LINE",
"91 532 LINE",
"510 532 LINE",
"517 562 LINE"
);
}
);
width = 500;
}
);
unicode = 0126;
},
{
color = 6;
glyphname = I;
layers = (
{
anchors = (
{
name = bottom;
position = "{193, 0}";
},
{
name = ogonek;
position = "{191, 2}";
},
{
name = top;
position = "{350, 740}";
},
{
name = topleft;
position = "{120, 740}";
}
);
layerId = "63C36BCE-C2CB-4BF3-9C7E-344D74934179";
paths = (
{
closed = 1;
nodes = (
"396 0 LINE",
"403 34 LINE",
"239 34 LINE",
"382 706 LINE",
"546 706 LINE",
"553 740 LINE",
"155 740 LINE",
"148 706 LINE",
"312 706 LINE",
"169 34 LINE",
"5 34 LINE",
"-2 0 LINE"
);
}
);
width = 500;
}
);
unicode = 0049;
},
{
color = 6;
glyphname = J;
layers = (
{
guideLines = (
{
angle = 258.0397;
position = "{379, 440}";
}
);
layerId = "63C36BCE-C2CB-4BF3-9C7E-344D74934179";
paths = (
{
closed = 1;
nodes = (
"253 -10 OFFCURVE",
"371 74 OFFCURVE",
"407 244 CURVE SMOOTH",
"505 706 LINE",
"611 706 LINE",
"618 740 LINE",
"272 740 LINE",
"265 706 LINE",
"435 706 LINE",
"337 242 LINE SMOOTH",
"296 49 OFFCURVE",
"198 11 OFFCURVE",
"115 19 CURVE",
"101 76 LINE SMOOTH",
"95 100 OFFCURVE",
"85 134 OFFCURVE",
"47 134 CURVE SMOOTH",
"15 134 OFFCURVE",
"-5 108 OFFCURVE",
"-5 77 CURVE SMOOTH",
"-5 29 OFFCURVE",
"42 -10 OFFCURVE",
"127 -10 CURVE SMOOTH"
);
}
);
width = 500;
}
);
unicode = 004A;
},
{
color = 6;
glyphname = K;
layers = (
{
anchors = (
{
name = bottom;
position = "{193, 0}";
},
{
name = top;
position = "{350, 740}";
}
);
layerId = "63C36BCE-C2CB-4BF3-9C7E-344D74934179";
paths = (
{
closed = 1;
nodes = (
"181 0 LINE",
"188 34 LINE",
"92 34 LINE",
"235 706 LINE",
"301 706 LINE",
"308 740 LINE",
"108 740 LINE",
"101 706 LINE",
"167 706 LINE",
"24 34 LINE",
"-42 34 LINE",
"-49 0 LINE"
);
},
{
closed = 1;
nodes = (
"446 0 LINE",
"453 34 LINE",
"394 34 LINE",
"322 34 LINE",
"244 34 LINE",
"237 0 LINE"
);
},
{
closed = 1;
nodes = (
"401 0 LINE",
"279 466 LINE",
"228 396 LINE",
"332 0 LINE"
);
},
{
closed = 1;
nodes = (
"528 737 LINE",
"489 740 LINE",
"75 260 LINE",
"114 257 LINE"
);
},
{
closed = 1;
nodes = (
"454 706 LINE",
"492 706 LINE",
"565 706 LINE",
"572 740 LINE",
"407 740 LINE",
"400 706 LINE"
);
}
);
width = 500;
}
);
unicode = 004B;
},
{
color = 6;
glyphname = L;
layers = (
{
anchors = (
{
name = bottom;
position = "{193, 0}";
},
{
name = center;
position = "{271, 370}";
},
{
name = top;
position = "{260, 740}";
},
{
name = topright;
position = "{580, 740}";
}
);
layerId = "63C36BCE-C2CB-4BF3-9C7E-344D74934179";
paths = (
{
closed = 1;
nodes = (
"139 0 LINE",
"296 740 LINE",
"142 740 LINE",
"135 706 LINE",
"219 706 LINE",
"76 34 LINE",
"-8 34 LINE",
"-15 0 LINE"
);
},
{
closed = 1;
nodes = (
"406 0 LINE",
"456 234 LINE",
"428 234 LINE",
"390 108 LINE SMOOTH",
"370 41 OFFCURVE",
"335 35 OFFCURVE",
"288 35 CURVE SMOOTH",
"130 35 LINE",
"123 0 LINE"
);
},
{
closed = 1;
nodes = (
"219 706 LINE",
"289 706 LINE",
"373 706 LINE",
"380 740 LINE",
"142 740 LINE",
"135 706 LINE"
);
}
);
width = 500;
}
);
unicode = 004C;
},
{
color = 3;
glyphname = Lslash;
layers = (
{
components = (
{
name = L;
transform = "{1, 0, 0, 1, -1, 0}";
}
);
layerId = "63C36BCE-C2CB-4BF3-9C7E-344D74934179";
paths = (
{
closed = 1;
nodes = (
"47 325 LINE",
"40 291 LINE",
"363 461 LINE",
"370 495 LINE"
);
}
);
width = 500;
}
);
unicode = 0141;
},
{
color = 6;
glyphname = M;
layers = (
{
guideLines = (
{
angle = -76.9418;
position = "{99, 740}";
},
{
angle = 76.9418;
position = "{-913, 0}";
}
);
layerId = "63C36BCE-C2CB-4BF3-9C7E-344D74934179";
paths = (
{
closed = 1;
nodes = (
"203 0 LINE",
"437 526 LINE",
"332 34 LINE",
"278 34 LINE",
"271 0 LINE",
"457 0 LINE",
"464 34 LINE",
"400 34 LINE",
"543 706 LINE",
"607 706 LINE",
"614 740 LINE",
"501 740 LINE",
"172 0 LINE"
);
},
{
closed = 1;
nodes = (
"114 0 LINE",
"121 34 LINE",
"57 34 LINE",
"162 526 LINE",
"172 0 LINE",
"225 51 LINE",
"211 740 LINE",
"113 740 LINE",
"106 706 LINE",
"166 706 LINE",
"23 34 LINE",
"-37 34 LINE",
"-44 0 LINE"
);
}
);
width = 500;
}
);
unicode = 004D;
},
{
color = 6;
glyphname = N;
layers = (
{
anchors = (
{
name = bottom;
position = "{213, 0}";
},
{
name = top;
position = "{350, 740}";
}
);
guideLines = (
{
angle = 257.9868;
position = "{142, 34}";
},
{
angle = -77.879;
position = "{328, 288}";
}
);
layerId = "63C36BCE-C2CB-4BF3-9C7E-344D74934179";
paths = (
{
closed = 1;
nodes = (
"356 -10 LINE",
"508 706 LINE",
"572 706 LINE",
"579 740 LINE",
"397 740 LINE",
"390 706 LINE",
"474 706 LINE",
"361 176 LINE",
"240 740 LINE",
"138 740 LINE",
"131 706 LINE",
"195 706 LINE",
"52 34 LINE",
"-12 34 LINE",
"-19 0 LINE",
"163 0 LINE",
"170 34 LINE",
"86 34 LINE",
"204 586 LINE",
"332 -10 LINE"
);
}
);
width = 500;
}
);
unicode = 004E;
},
{
color = 6;
glyphname = Eng;
layers = (
{
layerId = "63C36BCE-C2CB-4BF3-9C7E-344D74934179";
paths = (
{
closed = 1;
nodes = (
"300 -180 OFFCURVE",
"349 -72 OFFCURVE",
"366 8 CURVE SMOOTH",
"514 706 LINE",
"578 706 LINE",
"585 740 LINE",
"403 740 LINE",
"396 706 LINE",
"480 706 LINE",
"367 176 LINE",
"246 740 LINE",
"144 740 LINE",
"137 706 LINE",
"201 706 LINE",
"58 34 LINE",
"-6 34 LINE",
"-13 0 LINE",
"169 0 LINE",
"176 34 LINE",
"92 34 LINE",
"210 586 LINE",
"333 13 LINE",
"330 0 LINE SMOOTH",
"309 -89 OFFCURVE",
"261 -161 OFFCURVE",
"179 -154 CURVE",
"162 -104 LINE SMOOTH",
"157 -90 OFFCURVE",
"144 -58 OFFCURVE",
"105 -58 CURVE SMOOTH",
"75 -58 OFFCURVE",
"58 -79 OFFCURVE",
"58 -105 CURVE SMOOTH",
"58 -149 OFFCURVE",
"106 -180 OFFCURVE",
"174 -180 CURVE SMOOTH"
);
}
);
width = 500;
}
);
unicode = 014A;
},
{
color = 6;
glyphname = O;
layers = (
{
anchors = (
{
name = bottom;
position = "{193, 0}";
},
{
name = center;
position = "{271, 370}";
},
{
name = ogonek;
position = "{395, 10}";
},
{
name = top;
position = "{350, 740}";
},
{
name = topleft;
position = "{120, 740}";
},
{
name = topright;
position = "{443, 681}";
}
);
guideLines = (
{
position = "{437, 687}";
}
);
layerId = "63C36BCE-C2CB-4BF3-9C7E-344D74934179";
paths = (
{
closed = 1;
nodes = (
"343 -10 OFFCURVE",
"487 276 OFFCURVE",
"487 519 CURVE SMOOTH",
"487 650 OFFCURVE",
"445 750 OFFCURVE",
"349 750 CURVE SMOOTH",
"188 750 OFFCURVE",
"43 465 OFFCURVE",
"43 222 CURVE SMOOTH",
"43 90 OFFCURVE",
"85 -10 OFFCURVE",
"181 -10 CURVE SMOOTH"
);
},
{
closed = 1;
nodes = (
"112 27 OFFCURVE",
"85 90 OFFCURVE",
"109 205 CURVE SMOOTH",
"179 535 LINE SMOOTH",
"203 650 OFFCURVE",
"261 713 OFFCURVE",
"339 713 CURVE SMOOTH",
"417 713 OFFCURVE",
"445 650 OFFCURVE",
"421 535 CURVE SMOOTH",
"351 205 LINE SMOOTH",
"327 90 OFFCURVE",
"269 27 OFFCURVE",
"191 27 CURVE SMOOTH"
);
}
);
width = 500;
}
);
unicode = 004F;
},
{
color = 3;
glyphname = Oslash;
layers = (
{
components = (
{
alignment = -1;
name = O;
transform = "{1, 0, 0, 1, 7, -10}";
}
);
layerId = "63C36BCE-C2CB-4BF3-9C7E-344D74934179";
paths = (
{
closed = 1;
nodes = (
"504 759 LINE",
"475 769 LINE",
"41 -39 LINE",
"69 -49 LINE"
);
}
);
width = 500;
}
);
unicode = 00D8;
},
{
color = 6;
glyphname = OE;
layers = (
{
guideLines = (
{
angle = 257.8934;
position = "{505, 469}";
},
{
angle = 77.9551;
position = "{131, 370}";
}
);
layerId = "63C36BCE-C2CB-4BF3-9C7E-344D74934179";
paths = (
{
closed = 1;
nodes = (
"407 0 LINE",
"457 234 LINE",
"429 234 LINE",
"387 108 LINE SMOOTH",
"371 59 OFFCURVE",
"336 35 OFFCURVE",
"289 35 CURVE SMOOTH",
"247 35 LINE",
"322 387 LINE",
"366 387 LINE",
"361 260 LINE",
"386 260 LINE",
"447 548 LINE",
"422 548 LINE",
"373 421 LINE",
"329 421 LINE",
"390 705 LINE",
"429 705 LINE SMOOTH",
"476 705 OFFCURVE",
"501 681 OFFCURVE",
"497 633 CURVE SMOOTH",
"488 526 LINE",
"516 526 LINE",
"561 740 LINE",
"320 740 LINE SMOOTH",
"152 740 OFFCURVE",
"36 449 OFFCURVE",
"36 232 CURVE SMOOTH",
"36 83 OFFCURVE",
"77 0 OFFCURVE",
"173 0 CURVE SMOOTH"
);
},
{
closed = 1;
nodes = (
"100 32 OFFCURVE",
"73 97 OFFCURVE",
"89 171 CURVE SMOOTH",
"173 567 LINE SMOOTH",
"201 700 OFFCURVE",
"276 708 OFFCURVE",
"313 708 CURVE SMOOTH",
"328 708 LINE",
"185 32 LINE",
"170 32 LINE SMOOTH"
);
}
);
width = 500;
}
);
unicode = 0152;
},
{
color = 6;
glyphname = P;
layers = (
{
layerId = "63C36BCE-C2CB-4BF3-9C7E-344D74934179";
paths = (
{
closed = 1;
nodes = (
"297 0 LINE",
"304 34 LINE",
"142 34 LINE",
"197 290 LINE",
"242 290 LINE SMOOTH",
"408 290 OFFCURVE",
"531 418 OFFCURVE",
"531 561 CURVE SMOOTH",
"531 666 OFFCURVE",
"459 740 OFFCURVE",
"327 740 CURVE SMOOTH",
"138 740 LINE",
"131 706 LINE",
"215 706 LINE",
"72 34 LINE",
"-12 34 LINE",
"-19 0 LINE"
);
},
{
closed = 1;
nodes = (
"284 703 LINE",
"342 703 LINE SMOOTH",
"430 703 OFFCURVE",
"470 654 OFFCURVE",
"451 565 CURVE SMOOTH",
"430 465 LINE SMOOTH",
"411 376 OFFCURVE",
"352 327 OFFCURVE",
"263 327 CURVE SMOOTH",
"205 327 LINE"
);
}
);
width = 500;
}
);
unicode = 0050;
},
{
color = 6;
glyphname = Thorn;
layers = (
{
layerId = "63C36BCE-C2CB-4BF3-9C7E-344D74934179";
paths = (
{
closed = 1;
nodes = (
"264 0 LINE",
"271 34 LINE",
"139 34 LINE",
"163 145 LINE",
"207 145 LINE SMOOTH",
"374 145 OFFCURVE",
"497 274 OFFCURVE",
"497 416 CURVE SMOOTH",
"497 520 OFFCURVE",
"426 595 OFFCURVE",
"293 595 CURVE SMOOTH",
"258 595 LINE",
"282 706 LINE",
"414 706 LINE",
"421 740 LINE",
"135 740 LINE",
"128 706 LINE",
"212 706 LINE",
"69 34 LINE",
"-15 34 LINE",
"-22 0 LINE"
);
},
{
closed = 1;
nodes = (
"251 558 LINE",
"309 558 LINE SMOOTH",
"396 558 OFFCURVE",
"436 509 OFFCURVE",
"417 420 CURVE SMOOTH",
"396 320 LINE SMOOTH",
"377 231 OFFCURVE",
"318 182 OFFCURVE",
"229 182 CURVE SMOOTH",
"171 182 LINE"
);
}
);
width = 500;
}
);
unicode = 00DE;
},
{
color = 3;
glyphname = Q;
layers = (
{
components = (
{
locked = 1;
name = O;
}
);
guideLines = (
{
angle = 90;
position = "{250, -21}";
}
);
layerId = "63C36BCE-C2CB-4BF3-9C7E-344D74934179";
paths = (
{
closed = 1;
nodes = (
"320 -180 OFFCURVE",
"347 -123 OFFCURVE",
"357 -78 CURVE SMOOTH",
"374 0 LINE",
"345 0 LINE",
"330 -66 LINE SMOOTH",
"326 -83 OFFCURVE",
"315 -136 OFFCURVE",
"274 -136 CURVE SMOOTH",
"236 -136 OFFCURVE",
"245 -90 OFFCURVE",
"249 -72 CURVE SMOOTH",
"282 84 LINE SMOOTH",
"296 150 OFFCURVE",
"272 187 OFFCURVE",
"225 187 CURVE SMOOTH",
"173 187 OFFCURVE",
"135 136 OFFCURVE",
"135 77 CURVE SMOOTH",
"135 32 OFFCURVE",
"160 18 OFFCURVE",
"189 18 CURVE",
"191 27 LINE",
"175 27 OFFCURVE",
"156 35 OFFCURVE",
"156 72 CURVE SMOOTH",
"156 109 OFFCURVE",
"173 147 OFFCURVE",
"203 147 CURVE SMOOTH",
"235 147 OFFCURVE",
"229 104 OFFCURVE",
"227 95 CURVE SMOOTH",
"192 -72 LINE SMOOTH",
"177 -142 OFFCURVE",
"200 -180 OFFCURVE",
"253 -180 CURVE SMOOTH"
);
}
);
width = 500;
}
);
unicode = 0051;
},
{
color = 6;
glyphname = R;
layers = (
{
anchors = (
{
name = bottom;
position = "{190, 0}";
},
{
name = top;
position = "{335, 740}";
}
);
layerId = "63C36BCE-C2CB-4BF3-9C7E-344D74934179";
paths = (
{
closed = 1;
nodes = (
"430 -10 OFFCURVE",
"445 68 OFFCURVE",
"450 92 CURVE SMOOTH",
"487 268 LINE",
"457 268 LINE",
"420 95 LINE SMOOTH",
"414 67 OFFCURVE",
"400 37 OFFCURVE",
"371 37 CURVE SMOOTH",
"333 37 OFFCURVE",
"343 83 OFFCURVE",
"347 101 CURVE SMOOTH",
"385 277 LINE SMOOTH",
"400 346 OFFCURVE",
"372 373 OFFCURVE",
"318 384 CURVE SMOOTH",
"313 385 LINE",
"314 391 LINE",
"319 392 LINE SMOOTH",
"430 414 OFFCURVE",
"509 496 OFFCURVE",
"509 596 CURVE SMOOTH",
"509 669 OFFCURVE",
"466 740 OFFCURVE",
"340 740 CURVE SMOOTH",
"110 740 LINE",
"103 706 LINE",
"187 706 LINE",
"44 34 LINE",
"-40 34 LINE",
"-47 0 LINE",
"190 0 LINE",
"197 34 LINE",
"114 34 LINE",
"187 375 LINE",
"235 375 LINE SMOOTH",
"326 375 OFFCURVE",
"329 339 OFFCURVE",
"316 277 CURVE SMOOTH",
"277 93 LINE SMOOTH",
"264 32 OFFCURVE",
"285 -10 OFFCURVE",
"346 -10 CURVE SMOOTH"
);
},
{
closed = 1;
nodes = (
"257 708 LINE",
"316 708 LINE SMOOTH",
"407 708 OFFCURVE",
"446 669 OFFCURVE",
"427 580 CURVE SMOOTH",
"415 525 LINE SMOOTH",
"396 436 OFFCURVE",
"338 407 OFFCURVE",
"253 407 CURVE SMOOTH",
"194 407 LINE"
);
}
);
width = 500;
}
);
unicode = 0052;
},
{
color = 6;
glyphname = S;
layers = (
{
anchors = (
{
name = bottom;
position = "{193, 0}";
},
{
name = top;
position = "{350, 740}";
}
);
guideLines = (
{
angle = 258.6901;
position = "{432, 520}";
}
);
layerId = "63C36BCE-C2CB-4BF3-9C7E-344D74934179";
paths = (
{
closed = 1;
nodes = (
"333 -10 OFFCURVE",
"409 75 OFFCURVE",
"409 183 CURVE SMOOTH",
"409 352 OFFCURVE",
"223 470 OFFCURVE",
"223 610 CURVE SMOOTH",
"223 675 OFFCURVE",
"263 717 OFFCURVE",
"320 717 CURVE SMOOTH",
"408 717 OFFCURVE",
"454 631 OFFCURVE",
"434 532 CURVE",
"477 532 LINE",
"521 740 LINE",
"488 740 LINE",
"469 649 LINE",
"461 649 LINE",
"450 692 OFFCURVE",
"405 750 OFFCURVE",
"322 750 CURVE SMOOTH",
"227 750 OFFCURVE",
"161 677 OFFCURVE",
"161 580 CURVE SMOOTH",
"161 419 OFFCURVE",
"347 311 OFFCURVE",
"347 154 CURVE SMOOTH",
"347 75 OFFCURVE",
"299 24 OFFCURVE",
"227 24 CURVE SMOOTH",
"80 24 OFFCURVE",
"97 198 OFFCURVE",
"109 256 CURVE SMOOTH",
"117 295 LINE",
"74 295 LINE",
"11 0 LINE",
"44 0 LINE",
"72 133 LINE",
"80 133 LINE",
"78 72 OFFCURVE",
"116 -10 OFFCURVE",
"227 -10 CURVE SMOOTH"
);
}
);
width = 500;
}
);
unicode = 0053;
},
{
color = 6;
glyphname = Germandbls;
layers = (
{
layerId = "63C36BCE-C2CB-4BF3-9C7E-344D74934179";
paths = (
{
closed = 1;
nodes = (
"420 -10 OFFCURVE",
"493 63 OFFCURVE",
"493 158 CURVE SMOOTH",
"493 293 OFFCURVE",
"348 382 OFFCURVE",
"348 508 CURVE SMOOTH",
"348 609 OFFCURVE",
"449 643 OFFCURVE",
"526 640 CURVE",
"537 692 OFFCURVE",
"526 773 OFFCURVE",
"392 773 CURVE SMOOTH",
"261 773 OFFCURVE",
"180 699 OFFCURVE",
"149 552 CURVE SMOOTH",
"40 38 LINE",
"-39 28 LINE",
"-45 0 LINE",
"100 0 LINE",
"224 585 LINE SMOOTH",
"248 700 OFFCURVE",
"313 747 OFFCURVE",
"380 747 CURVE SMOOTH",
"443 747 OFFCURVE",
"469 706 OFFCURVE",
"458 652 CURVE",
"382 643 OFFCURVE",
"282 589 OFFCURVE",
"282 473 CURVE SMOOTH",
"282 329 OFFCURVE",
"427 254 OFFCURVE",
"427 127 CURVE SMOOTH",
"427 62 OFFCURVE",
"389 24 OFFCURVE",
"336 24 CURVE SMOOTH",
"230 24 OFFCURVE",
"237 145 OFFCURVE",
"243 172 CURVE SMOOTH",
"245 181 LINE",
"197 181 LINE",
"158 0 LINE",
"186 0 LINE",
"207 99 LINE",
"215 99 LINE",
"215 52 OFFCURVE",
"248 -10 OFFCURVE",
"338 -10 CURVE SMOOTH"
);
}
);
width = 500;
}
);
unicode = 1E9E;
},
{
color = 6;
glyphname = T;
layers = (
{
anchors = (
{
name = bottom;
position = "{193, 0}";
},
{
name = center;
position = "{271, 370}";
},
{
name = top;
position = "{350, 740}";
}
);
layerId = "63C36BCE-C2CB-4BF3-9C7E-344D74934179";
paths = (
{
closed = 1;
nodes = (
"231 0 LINE",
"382 710 LINE",
"312 710 LINE",
"161 0 LINE"
);
},
{
closed = 1;
nodes = (
"370 0 LINE",
"377 32 LINE",
"238 32 LINE",
"262 146 LINE",
"192 146 LINE",
"168 32 LINE",
"29 32 LINE",
"22 0 LINE"
);
},
{
closed = 1;
nodes = (
"117 526 LINE",
"154 633 LINE SMOOTH",
"176 698 OFFCURVE",
"202 705 OFFCURVE",
"252 705 CURVE SMOOTH",
"440 705 LINE SMOOTH",
"487 705 OFFCURVE",
"513 694 OFFCURVE",
"508 633 CURVE SMOOTH",
"499 526 LINE",
"527 526 LINE",
"574 750 LINE",
"556 750 LINE",
"524 740 LINE",
"182 740 LINE",
"154 750 LINE",
"136 750 LINE",
"89 526 LINE"
);
}
);
width = 500;
}
);
unicode = 0054;
},
{
color = 3;
glyphname = Tbar;
layers = (
{
components = (
{
name = T;
}
);
layerId = "63C36BCE-C2CB-4BF3-9C7E-344D74934179";
paths = (
{
closed = 1;
nodes = (
"128 390 LINE",
"121 360 LINE",
"430 360 LINE",
"437 390 LINE"
);
}
);
width = 500;
}
);
unicode = 0166;
},
{
color = 6;
glyphname = U;
layers = (
{
anchors = (
{
name = bottom;
position = "{198, 0}";
},
{
name = ogonek;
position = "{236, 0}";
},
{
name = top;
position = "{378, 740}";
},
{
name = topright;
position = "{580, 740}";
}
);
guideLines = (
{
angle = 258.0494;
position = "{228, 31}";
}
);
layerId = "63C36BCE-C2CB-4BF3-9C7E-344D74934179";
paths = (
{
closed = 1;
nodes = (
"298 -10 OFFCURVE",
"369 52 OFFCURVE",
"393 165 CURVE SMOOTH",
"515 740 LINE",
"481 740 LINE",
"359 164 LINE SMOOTH",
"341 78 OFFCURVE",
"291 31 OFFCURVE",
"219 31 CURVE SMOOTH",
"147 31 OFFCURVE",
"119 78 OFFCURVE",
"137 164 CURVE SMOOTH",
"259 740 LINE",
"189 740 LINE",
"67 165 LINE SMOOTH",
"43 52 OFFCURVE",
"87 -10 OFFCURVE",
"193 -10 CURVE SMOOTH"
);
},
{
closed = 1;
nodes = (
"182 706 LINE",
"252 706 LINE",
"326 706 LINE",
"333 740 LINE",
"125 740 LINE",
"118 706 LINE"
);
},
{
closed = 1;
nodes = (
"474 706 LINE",
"508 706 LINE",
"567 706 LINE",
"574 740 LINE",
"422 740 LINE",
"415 706 LINE"
);
}
);
width = 500;
}
);
unicode = 0055;
},
{
color = 3;
glyphname = Uhorn;
layers = (
{
anchors = (
{
name = bottom;
position = "{198, 0}";
},
{
name = ogonek;
position = "{395, 10}";
},
{
name = top;
position = "{378, 740}";
},
{
name = topright;
position = "{525, 710}";
}
);
components = (
{
name = horncomb;
transform = "{1, 0, 0, 1, 25, 232}";
}
);
guideLines = (
{
angle = 77.9993;
position = "{460, 436}";
}
);
layerId = "63C36BCE-C2CB-4BF3-9C7E-344D74934179";
paths = (
{
closed = 1;
nodes = (
"308 -10 OFFCURVE",
"379 52 OFFCURVE",
"403 165 CURVE SMOOTH",
"525 740 LINE",
"491 740 LINE",
"369 164 LINE SMOOTH",
"351 78 OFFCURVE",
"301 31 OFFCURVE",
"229 31 CURVE SMOOTH",
"157 31 OFFCURVE",
"129 78 OFFCURVE",
"147 164 CURVE SMOOTH",
"269 740 LINE",
"199 740 LINE",
"77 165 LINE SMOOTH",
"53 52 OFFCURVE",
"97 -10 OFFCURVE",
"203 -10 CURVE SMOOTH"
);
},
{
closed = 1;
nodes = (
"336 706 LINE",
"343 740 LINE",
"135 740 LINE",
"128 706 LINE"
);
},
{
closed = 1;
nodes = (
"517 706 LINE",
"525 740 LINE",
"432 740 LINE",
"425 706 LINE"
);
}
);
width = 500;
}
);
unicode = 01AF;
},
{
color = 6;
glyphname = V;
layers = (
{
guideLines = (
{
angle = -76.1826;
position = "{112, 740}";
},
{
angle = 76.156;
position = "{404, 702}";
}
);
layerId = "63C36BCE-C2CB-4BF3-9C7E-344D74934179";
paths = (
{
closed = 1;
nodes = (
"213 0 LINE",
"536 706 LINE",
"589 706 LINE",
"596 740 LINE",
"438 740 LINE",
"431 706 LINE",
"501 706 LINE",
"237 128 LINE",
"221 706 LINE",
"322 706 LINE",
"329 740 LINE",
"93 740 LINE",
"86 706 LINE",
"150 706 LINE",
"173 0 LINE"
);
}
);
width = 500;
}
);
unicode = 0056;
},
{
color = 6;
glyphname = W;
layers = (
{
anchors = (
{
name = bottom;
position = "{183, 0}";
},
{
name = top;
position = "{360, 740}";
}
);
layerId = "63C36BCE-C2CB-4BF3-9C7E-344D74934179";
paths = (
{
closed = 1;
nodes = (
"308 0 LINE",
"587 740 LINE",
"554 740 LINE",
"275 0 LINE"
);
},
{
closed = 1;
nodes = (
"119 0 LINE",
"159 114 LINE",
"206 740 LINE",
"141 740 LINE",
"86 0 LINE"
);
},
{
closed = 1;
nodes = (
"124 0 LINE",
"380 677 LINE",
"370 740 LINE",
"91 0 LINE"
);
},
{
closed = 1;
nodes = (
"303 0 LINE",
"343 114 LINE",
"390 740 LINE",
"325 740 LINE",
"270 0 LINE"
);
},
{
closed = 1;
nodes = (
"139 706 LINE",
"202 706 LINE",
"253 706 LINE",
"260 740 LINE",
"86 740 LINE",
"79 706 LINE"
);
},
{
closed = 1;
nodes = (
"541 706 LINE",
"576 706 LINE",
"624 706 LINE",
"631 740 LINE",
"505 740 LINE",
"498 706 LINE"
);
}
);
width = 500;
}
);
unicode = 0057;
},
{
color = 6;
glyphname = X;
layers = (
{
layerId = "63C36BCE-C2CB-4BF3-9C7E-344D74934179";
paths = (
{
closed = 1;
nodes = (
"433 0 LINE",
"440 34 LINE",
"369 34 LINE",
"253 706 LINE",
"323 706 LINE",
"330 740 LINE",
"117 740 LINE",
"110 706 LINE",
"181 706 LINE",
"297 34 LINE",
"220 34 LINE",
"213 0 LINE"
);
},
{
closed = 1;
nodes = (
"129 0 LINE",
"136 34 LINE",
"76 34 LINE",
"291 393 LINE",
"259 393 LINE",
"44 34 LINE",
"-27 34 LINE",
"-34 0 LINE"
);
},
{
closed = 1;
nodes = (
"301 393 LINE",
"487 706 LINE",
"558 706 LINE",
"565 740 LINE",
"407 740 LINE",
"400 706 LINE",
"455 706 LINE",
"269 393 LINE"
);
}
);
width = 500;
}
);
unicode = 0058;
},
{
color = 6;
glyphname = Y;
layers = (
{
anchors = (
{
name = bottom;
position = "{253, 0}";
},
{
name = top;
position = "{420, 740}";
},
{
name = topleft;
position = "{120, 740}";
}
);
guideLines = (
{
angle = 258.0494;
position = "{338, 354}";
}
);
layerId = "63C36BCE-C2CB-4BF3-9C7E-344D74934179";
paths = (
{
closed = 1;
nodes = (
"316 280 LINE",
"590 740 LINE",
"555 740 LINE",
"281 280 LINE"
);
},
{
closed = 1;
nodes = (
"417 0 LINE",
"424 34 LINE",
"280 34 LINE",
"304 146 LINE",
"234 146 LINE",
"210 34 LINE",
"66 34 LINE",
"59 0 LINE"
);
},
{
closed = 1;
nodes = (
"273 0 LINE",
"345 341 LINE",
"275 341 LINE",
"203 0 LINE"
);
},
{
closed = 1;
nodes = (
"309 280 LINE",
"336 321 LINE",
"254 740 LINE",
"186 740 LINE",
"276 280 LINE"
);
},
{
closed = 1;
nodes = (
"191 706 LINE",
"259 706 LINE",
"360 706 LINE",
"367 740 LINE",
"121 740 LINE",
"114 706 LINE"
);
},
{
closed = 1;
nodes = (
"539 706 LINE",
"574 706 LINE",
"637 706 LINE",
"644 740 LINE",
"476 740 LINE",
"469 706 LINE"
);
}
);
width = 500;
}
);
unicode = 0059;
},
{
color = 6;
glyphname = Z;
layers = (
{
anchors = (
{
name = bottom;
position = "{193, 0}";
},
{
name = center;
position = "{271, 370}";
},
{
name = top;
position = "{380, 740}";
}
);
layerId = "63C36BCE-C2CB-4BF3-9C7E-344D74934179";
paths = (
{
closed = 1;
nodes = (
"84 0 LINE",
"573 720 LINE",
"577 740 LINE",
"514 740 LINE",
"25 20 LINE",
"21 0 LINE"
);
},
{
closed = 1;
nodes = (
"412 0 LINE",
"460 224 LINE",
"432 224 LINE",
"397 107 LINE SMOOTH",
"377 41 OFFCURVE",
"342 35 OFFCURVE",
"294 35 CURVE SMOOTH",
"46 35 LINE",
"39 0 LINE"
);
},
{
closed = 1;
nodes = (
"183 516 LINE",
"218 633 LINE SMOOTH",
"238 699 OFFCURVE",
"272 705 OFFCURVE",
"320 705 CURVE SMOOTH",
"508 705 LINE",
"515 740 LINE",
"202 740 LINE",
"155 516 LINE"
);
}
);
width = 500;
}
);
unicode = 005A;
},
{
color = 6;
glyphname = a;
layers = (
{
anchors = (
{
name = bottom;
position = "{203, 0}";
},
{
name = ogonek;
position = "{308, 0}";
},
{
name = top;
position = "{303, 540}";
}
);
guideLines = (
{
angle = 257.6192;
position = "{411, 623}";
},
{
angle = 78.1176;
position = "{413, 315}";
},
{
position = "{305, 142}";
},
{
angle = 77.6249;
position = "{110, 263}";
}
);
layerId = "63C36BCE-C2CB-4BF3-9C7E-344D74934179";
paths = (
{
closed = 1;
nodes = (
"217 -10 OFFCURVE",
"285 132 OFFCURVE",
"325 253 CURVE SMOOTH",
"343 307 LINE",
"358 307 LINE",
"292 97 LINE SMOOTH",
"266 15 OFFCURVE",
"302 -10 OFFCURVE",
"337 -10 CURVE SMOOTH",
"387 -10 OFFCURVE",
"420 38 OFFCURVE",
"463 97 CURVE SMOOTH",
"487 130 LINE",
"470 142 LINE",
"443 106 LINE SMOOTH",
"413 66 OFFCURVE",
"399 42 OFFCURVE",
"372 42 CURVE SMOOTH",
"347 42 OFFCURVE",
"350 69 OFFCURVE",
"353 84 CURVE SMOOTH",
"452 550 LINE",
"428 550 LINE",
"380 530 LINE",
"371 539 OFFCURVE",
"346 550 OFFCURVE",
"313 550 CURVE SMOOTH",
"150 550 OFFCURVE",
"43 286 OFFCURVE",
"36 144 CURVE SMOOTH",
"31 38 OFFCURVE",
"72 -10 OFFCURVE",
"125 -10 CURVE SMOOTH"
);
},
{
closed = 1;
nodes = (
"103 30 OFFCURVE",
"86 81 OFFCURVE",
"104 144 CURVE SMOOTH",
"170 381 LINE SMOOTH",
"193 465 OFFCURVE",
"236 517 OFFCURVE",
"293 517 CURVE SMOOTH",
"330 517 OFFCURVE",
"357 494 OFFCURVE",
"367 477 CURVE",
"341 351 OFFCURVE",
"246 30 OFFCURVE",
"145 30 CURVE SMOOTH"
);
}
);
width = 500;
}
);
unicode = 0061;
},
{
color = 6;
glyphname = ae;
layers = (
{
guideLines = (
{
angle = 77.8481;
position = "{67, 244}";
}
);
layerId = "63C36BCE-C2CB-4BF3-9C7E-344D74934179";
paths = (
{
closed = 1;
nodes = (
"105 -10 OFFCURVE",
"162 84 OFFCURVE",
"202 183 CURVE",
"215 183 LINE",
"198 73 OFFCURVE",
"236 -10 OFFCURVE",
"320 -10 CURVE SMOOTH",
"413 -10 OFFCURVE",
"443 94 OFFCURVE",
"459 158 CURVE SMOOTH",
"462 170 LINE",
"437 178 LINE",
"431 158 LINE SMOOTH",
"411 91 OFFCURVE",
"386 25 OFFCURVE",
"330 25 CURVE SMOOTH",
"287 25 OFFCURVE",
"260 64 OFFCURVE",
"260 126 CURVE SMOOTH",
"260 147 OFFCURVE",
"263 182 OFFCURVE",
"271 220 CURVE SMOOTH",
"292 320 LINE SMOOTH",
"318 443 OFFCURVE",
"358 519 OFFCURVE",
"421 519 CURVE SMOOTH",
"454 519 OFFCURVE",
"466 498 OFFCURVE",
"466 470 CURVE SMOOTH",
"466 393 OFFCURVE",
"377 322 OFFCURVE",
"291 322 CURVE SMOOTH",
"282 322 LINE",
"278 300 LINE",
"291 300 LINE SMOOTH",
"388 300 OFFCURVE",
"532 371 OFFCURVE",
"532 469 CURVE SMOOTH",
"532 520 OFFCURVE",
"494 550 OFFCURVE",
"444 550 CURVE SMOOTH",
"404 550 OFFCURVE",
"363 531 OFFCURVE",
"330 501 CURVE",
"340 550 LINE",
"320 550 LINE",
"292 533 LINE",
"280 540 OFFCURVE",
"256 550 OFFCURVE",
"232 550 CURVE SMOOTH",
"41 550 OFFCURVE",
"-92 -10 OFFCURVE",
"48 -10 CURVE SMOOTH"
);
},
{
closed = 1;
nodes = (
"39 30 OFFCURVE",
"37 49 OFFCURVE",
"43 78 CURVE SMOOTH",
"108 381 LINE SMOOTH",
"117 424 OFFCURVE",
"139 513 OFFCURVE",
"210 513 CURVE SMOOTH",
"238 513 OFFCURVE",
"262 498 OFFCURVE",
"271 486 CURVE",
"256 421 LINE SMOOTH",
"220 267 OFFCURVE",
"135 30 OFFCURVE",
"61 30 CURVE SMOOTH"
);
}
);
width = 500;
}
);
unicode = 00E6;
},
{
color = 6;
glyphname = b;
layers = (
{
guideLines = (
{
angle = 78.074;
position = "{200, 285}";
},
{
angle = 258.0542;
position = "{148, 360}";
},
{
angle = 257.9777;
position = "{401, 277}";
}
);
layerId = "63C36BCE-C2CB-4BF3-9C7E-344D74934179";
paths = (
{
closed = 1;
nodes = (
"388 -10 OFFCURVE",
"484 234 OFFCURVE",
"484 395 CURVE SMOOTH",
"484 491 OFFCURVE",
"451 550 OFFCURVE",
"380 550 CURVE SMOOTH",
"273 550 OFFCURVE",
"222 413 OFFCURVE",
"194 332 CURVE",
"179 332 LINE",
"254 540 LINE",
"298 750 LINE",
"274 750 LINE",
"225 725 LINE",
"100 712 LINE",
"95 688 LINE",
"217 688 LINE",
"81 48 LINE",
"98 23 OFFCURVE",
"144 -10 OFFCURVE",
"209 -10 CURVE SMOOTH"
);
},
{
closed = 1;
nodes = (
"166 22 OFFCURVE",
"152 62 OFFCURVE",
"163 112 CURVE SMOOTH",
"193 250 LINE SMOOTH",
"227 407 OFFCURVE",
"289 514 OFFCURVE",
"361 514 CURVE SMOOTH",
"404 514 OFFCURVE",
"433 475 OFFCURVE",
"417 400 CURVE SMOOTH",
"370 182 LINE SMOOTH",
"347 75 OFFCURVE",
"292 22 OFFCURVE",
"225 22 CURVE SMOOTH"
);
}
);
width = 500;
}
);
unicode = 0062;
},
{
color = 6;
glyphname = c;
layers = (
{
anchors = (
{
name = bottom;
position = "{235, 0}";
},
{
name = top;
position = "{347, 540}";
}
);
layerId = "63C36BCE-C2CB-4BF3-9C7E-344D74934179";
paths = (
{
closed = 1;
nodes = (
"302 -10 OFFCURVE",
"374 48 OFFCURVE",
"416 163 CURVE SMOOTH",
"428 196 LINE",
"403 204 LINE",
"388 163 LINE SMOOTH",
"375 128 OFFCURVE",
"331 25 OFFCURVE",
"235 25 CURVE SMOOTH",
"160 25 OFFCURVE",
"122 95 OFFCURVE",
"148 220 CURVE SMOOTH",
"169 320 LINE SMOOTH",
"195 443 OFFCURVE",
"266 519 OFFCURVE",
"347 519 CURVE SMOOTH",
"359 519 OFFCURVE",
"369 517 OFFCURVE",
"373 516 CURVE",
"377 488 LINE SMOOTH",
"383 444 OFFCURVE",
"404 420 OFFCURVE",
"436 420 CURVE SMOOTH",
"466 420 OFFCURVE",
"485 441 OFFCURVE",
"485 468 CURVE SMOOTH",
"485 516 OFFCURVE",
"424 550 OFFCURVE",
"355 550 CURVE SMOOTH",
"192 550 OFFCURVE",
"73 363 OFFCURVE",
"73 185 CURVE SMOOTH",
"73 67 OFFCURVE",
"126 -10 OFFCURVE",
"220 -10 CURVE SMOOTH"
);
}
);
width = 500;
}
);
unicode = 0063;
},
{
color = 6;
glyphname = d;
layers = (
{
guideLines = (
{
angle = 77.8191;
position = "{100, 258}";
},
{
angle = 258.354;
position = "{336, 417}";
},
{
position = "{285, 142}";
}
);
layerId = "63C36BCE-C2CB-4BF3-9C7E-344D74934179";
paths = (
{
closed = 1;
nodes = (
"198 -10 OFFCURVE",
"266 132 OFFCURVE",
"306 253 CURVE SMOOTH",
"324 307 LINE",
"339 307 LINE",
"273 97 LINE SMOOTH",
"247 15 OFFCURVE",
"283 -10 OFFCURVE",
"318 -10 CURVE SMOOTH",
"367 -10 OFFCURVE",
"401 39 OFFCURVE",
"444 97 CURVE SMOOTH",
"468 129 LINE",
"451 142 LINE",
"424 106 LINE SMOOTH",
"394 66 OFFCURVE",
"380 42 OFFCURVE",
"353 42 CURVE SMOOTH",
"328 42 OFFCURVE",
"331 69 OFFCURVE",
"334 84 CURVE SMOOTH",
"476 750 LINE",
"452 750 LINE",
"403 725 LINE",
"278 712 LINE",
"273 688 LINE",
"395 688 LINE",
"361 530 LINE",
"352 539 OFFCURVE",
"327 550 OFFCURVE",
"294 550 CURVE SMOOTH",
"130 550 OFFCURVE",
"24 286 OFFCURVE",
"18 144 CURVE SMOOTH",
"13 45 OFFCURVE",
"56 -10 OFFCURVE",
"110 -10 CURVE SMOOTH"
);
},
{
closed = 1;
nodes = (
"84 30 OFFCURVE",
"70 80 OFFCURVE",
"87 144 CURVE SMOOTH",
"151 381 LINE SMOOTH",
"174 465 OFFCURVE",
"216 517 OFFCURVE",
"277 517 CURVE SMOOTH",
"316 517 OFFCURVE",
"341 494 OFFCURVE",
"348 477 CURVE",
"322 351 OFFCURVE",
"227 30 OFFCURVE",
"126 30 CURVE SMOOTH"
);
}
);
width = 500;
}
);
unicode = 0064;
},
{
color = 6;
glyphname = eth;
layers = (
{
layerId = "63C36BCE-C2CB-4BF3-9C7E-344D74934179";
paths = (
{
closed = 1;
nodes = (
"354 -10 OFFCURVE",
"489 209 OFFCURVE",
"489 421 CURVE SMOOTH",
"489 631 OFFCURVE",
"348 732 OFFCURVE",
"241 750 CURVE",
"230 728 LINE",
"355 693 OFFCURVE",
"462 561 OFFCURVE",
"419 367 CURVE SMOOTH",
"417 358 LINE",
"409 358 LINE",
"415 421 OFFCURVE",
"387 505 OFFCURVE",
"289 505 CURVE SMOOTH",
"143 505 OFFCURVE",
"34 327 OFFCURVE",
"34 168 CURVE SMOOTH",
"34 48 OFFCURVE",
"96 -10 OFFCURVE",
"183 -10 CURVE SMOOTH"
);
},
{
closed = 1;
nodes = (
"114 25 OFFCURVE",
"75 76 OFFCURVE",
"95 170 CURVE SMOOTH",
"128 325 LINE SMOOTH",
"148 419 OFFCURVE",
"209 473 OFFCURVE",
"281 473 CURVE SMOOTH",
"357 473 OFFCURVE",
"400 419 OFFCURVE",
"380 325 CURVE SMOOTH",
"347 170 LINE SMOOTH",
"327 76 OFFCURVE",
"266 25 OFFCURVE",
"190 25 CURVE SMOOTH"
);
},
{
closed = 1;
nodes = (
"528 670 LINE",
"535 703 LINE",
"225 611 LINE",
"218 578 LINE"
);
}
);
width = 500;
}
);
unicode = 00F0;
},
{
color = 3;
glyphname = dcroat;
layers = (
{
components = (
{
alignment = -1;
name = crossbar;
transform = "{1.15678, 0, 0, 0.9, 54, 353}";
}
);
guideLines = (
{
angle = 257.8557;
position = "{378, 609}";
}
);
layerId = "63C36BCE-C2CB-4BF3-9C7E-344D74934179";
paths = (
{
closed = 1;
nodes = (
"137 381 LINE SMOOTH",
"156 466 OFFCURVE",
"204 517 OFFCURVE",
"269 517 CURVE SMOOTH",
"311 517 OFFCURVE",
"339 494 OFFCURVE",
"348 477 CURVE",
"322 351 OFFCURVE",
"227 30 OFFCURVE",
"126 30 CURVE SMOOTH",
"84 30 OFFCURVE",
"71 80 OFFCURVE",
"85 144 CURVE SMOOTH"
);
},
{
closed = 1;
nodes = (
"361 530 LINE",
"352 539 OFFCURVE",
"327 550 OFFCURVE",
"294 550 CURVE SMOOTH",
"134 550 OFFCURVE",
"17 327 OFFCURVE",
"17 144 CURVE SMOOTH",
"17 39 OFFCURVE",
"56 -10 OFFCURVE",
"109 -10 CURVE SMOOTH",
"198 -10 OFFCURVE",
"266 132 OFFCURVE",
"306 253 CURVE SMOOTH",
"324 307 LINE",
"337 307 LINE",
"273 97 LINE SMOOTH",
"248 15 OFFCURVE",
"283 -10 OFFCURVE",
"318 -10 CURVE SMOOTH",
"368 -10 OFFCURVE",
"401 39 OFFCURVE",
"444 97 CURVE SMOOTH",
"468 129 LINE",
"451 142 LINE",
"424 106 LINE SMOOTH",
"394 66 OFFCURVE",
"380 42 OFFCURVE",
"353 42 CURVE SMOOTH",
"328 42 OFFCURVE",
"331 69 OFFCURVE",
"334 84 CURVE SMOOTH",
"476 750 LINE",
"452 750 LINE",
"403 725 LINE"
);
},
{
closed = 1;
nodes = (
"452 750 LINE",
"403 725 LINE",
"338 712 LINE",
"333 688 LINE",
"395 688 LINE",
"476 750 LINE"
);
}
);
width = 500;
}
);
unicode = 0111;
},
{
color = 6;
glyphname = e;
layers = (
{
anchors = (
{
name = bottom;
position = "{193, 0}";
},
{
name = ogonek;
position = "{240, 0}";
},
{
name = top;
position = "{333, 540}";
}
);
guideLines = (
{
angle = 90;
position = "{260, 233}";
}
);
layerId = "63C36BCE-C2CB-4BF3-9C7E-344D74934179";
paths = (
{
closed = 1;
nodes = (
"325 -10 OFFCURVE",
"385 93 OFFCURVE",
"410 163 CURVE SMOOTH",
"422 196 LINE",
"397 204 LINE",
"382 163 LINE SMOOTH",
"369 128 OFFCURVE",
"322 25 OFFCURVE",
"229 25 CURVE SMOOTH",
"152 25 OFFCURVE",
"116 95 OFFCURVE",
"142 220 CURVE SMOOTH",
"163 320 LINE SMOOTH",
"189 443 OFFCURVE",
"244 519 OFFCURVE",
"323 519 CURVE SMOOTH",
"372 519 OFFCURVE",
"403 488 OFFCURVE",
"403 437 CURVE SMOOTH",
"403 320 OFFCURVE",
"250 281 OFFCURVE",
"116 301 CURVE",
"116 279 LINE",
"241 261 OFFCURVE",
"469 291 OFFCURVE",
"469 439 CURVE SMOOTH",
"469 508 OFFCURVE",
"418 550 OFFCURVE",
"344 550 CURVE SMOOTH",
"186 550 OFFCURVE",
"67 361 OFFCURVE",
"67 188 CURVE SMOOTH",
"67 66 OFFCURVE",
"125 -10 OFFCURVE",
"217 -10 CURVE SMOOTH"
);
}
);
width = 500;
}
);
unicode = 0065;
},
{
color = 6;
glyphname = f;
layers = (
{
guideLines = (
{
angle = 78.0514;
position = "{246, 299}";
},
{
angle = 258.0514;
position = "{313, 299}";
}
);
layerId = "63C36BCE-C2CB-4BF3-9C7E-344D74934179";
paths = (
{
closed = 1;
nodes = (
"172 -190 OFFCURVE",
"231 -88 OFFCURVE",
"259 43 CURVE SMOOTH",
"364 540 LINE SMOOTH",
"380 614 OFFCURVE",
"405 744 OFFCURVE",
"517 744 CURVE SMOOTH",
"535 744 OFFCURVE",
"547 741 OFFCURVE",
"551 738 CURVE",
"558 711 LINE SMOOTH",
"565 684 OFFCURVE",
"577 643 OFFCURVE",
"616 643 CURVE SMOOTH",
"644 643 OFFCURVE",
"663 664 OFFCURVE",
"663 691 CURVE SMOOTH",
"663 737 OFFCURVE",
"609 773 OFFCURVE",
"527 773 CURVE SMOOTH",
"390 773 OFFCURVE",
"325 671 OFFCURVE",
"297 540 CURVE SMOOTH",
"192 43 LINE SMOOTH",
"176 -31 OFFCURVE",
"156 -161 OFFCURVE",
"48 -161 CURVE SMOOTH",
"31 -161 OFFCURVE",
"19 -158 OFFCURVE",
"15 -155 CURVE",
"8 -128 LINE SMOOTH",
"1 -101 OFFCURVE",
"-11 -60 OFFCURVE",
"-50 -60 CURVE SMOOTH",
"-78 -60 OFFCURVE",
"-97 -81 OFFCURVE",
"-97 -108 CURVE SMOOTH",
"-97 -156 OFFCURVE",
"-40 -190 OFFCURVE",
"38 -190 CURVE SMOOTH"
);
},
{
closed = 1;
nodes = (
"296 508 LINE",
"303 541 LINE",
"139 530 LINE",
"134 508 LINE"
);
},
{
closed = 1;
nodes = (
"554 508 LINE",
"564 540 LINE",
"345 540 LINE",
"338 508 LINE"
);
}
);
width = 500;
}
);
unicode = 0066;
},
{
color = 6;
glyphname = g;
layers = (
{
anchors = (
{
name = bottom;
position = "{153, -186}";
},
{
name = top;
position = "{307, 540}";
}
);
guideLines = (
{
angle = -14.9314;
position = "{263, 109}";
}
);
layerId = "63C36BCE-C2CB-4BF3-9C7E-344D74934179";
paths = (
{
closed = 1;
nodes = (
"292 -213 OFFCURVE",
"418 -156 OFFCURVE",
"418 -50 CURVE SMOOTH",
"418 40 OFFCURVE",
"328 70 OFFCURVE",
"282 88 CURVE SMOOTH",
"209 117 LINE SMOOTH",
"185 127 OFFCURVE",
"153 137 OFFCURVE",
"153 169 CURVE SMOOTH",
"153 198 OFFCURVE",
"182 211 OFFCURVE",
"199 218 CURVE",
"207 217 OFFCURVE",
"216 216 OFFCURVE",
"225 216 CURVE SMOOTH",
"336 216 OFFCURVE",
"429 309 OFFCURVE",
"429 419 CURVE SMOOTH",
"429 453 OFFCURVE",
"420 485 OFFCURVE",
"400 509 CURVE",
"524 509 LINE",
"530 540 LINE",
"357 540 LINE",
"341 546 OFFCURVE",
"323 550 OFFCURVE",
"301 550 CURVE SMOOTH",
"190 550 OFFCURVE",
"97 457 OFFCURVE",
"97 347 CURVE SMOOTH",
"97 294 OFFCURVE",
"119 247 OFFCURVE",
"167 227 CURVE",
"167 222 LINE",
"137 206 OFFCURVE",
"100 178 OFFCURVE",
"100 134 CURVE SMOOTH",
"100 100 OFFCURVE",
"122 80 OFFCURVE",
"146 67 CURVE",
"146 60 LINE",
"67 49 OFFCURVE",
"-38 1 OFFCURVE",
"-38 -87 CURVE SMOOTH",
"-38 -174 OFFCURVE",
"57 -213 OFFCURVE",
"163 -213 CURVE SMOOTH"
);
},
{
closed = 1;
nodes = (
"89 -177 OFFCURVE",
"20 -138 OFFCURVE",
"20 -70 CURVE SMOOTH",
"20 0 OFFCURVE",
"94 28 OFFCURVE",
"156 45 CURVE SMOOTH",
"181 52 LINE",
"258 22 LINE SMOOTH",
"294 8 OFFCURVE",
"359 -15 OFFCURVE",
"359 -76 CURVE SMOOTH",
"359 -143 OFFCURVE",
"277 -177 OFFCURVE",
"186 -177 CURVE SMOOTH"
);
},
{
closed = 1;
nodes = (
"166 244 OFFCURVE",
"149 290 OFFCURVE",
"164 362 CURVE SMOOTH",
"173 404 LINE SMOOTH",
"187 471 OFFCURVE",
"228 522 OFFCURVE",
"295 522 CURVE SMOOTH",
"358 522 OFFCURVE",
"376 476 OFFCURVE",
"361 404 CURVE SMOOTH",
"352 362 LINE SMOOTH",
"338 295 OFFCURVE",
"297 244 OFFCURVE",
"229 244 CURVE SMOOTH"
);
}
);
width = 500;
}
);
unicode = 0067;
},
{
color = 6;
glyphname = h;
layers = (
{
guideLines = (
{
position = "{305, 293}";
}
);
layerId = "63C36BCE-C2CB-4BF3-9C7E-344D74934179";
paths = (
{
closed = 1;
nodes = (
"393 -10 OFFCURVE",
"426 39 OFFCURVE",
"468 97 CURVE SMOOTH",
"492 130 LINE",
"475 142 LINE",
"448 106 LINE SMOOTH",
"418 66 OFFCURVE",
"404 42 OFFCURVE",
"377 42 CURVE SMOOTH",
"345 42 OFFCURVE",
"355 74 OFFCURVE",
"358 84 CURVE SMOOTH",
"461 430 LINE SMOOTH",
"483 504 OFFCURVE",
"448 550 OFFCURVE",
"387 550 CURVE SMOOTH",
"279 550 OFFCURVE",
"218 408 OFFCURVE",
"180 293 CURVE",
"165 293 LINE",
"237 540 LINE",
"282 750 LINE",
"258 750 LINE",
"209 725 LINE",
"84 712 LINE",
"79 688 LINE",
"201 688 LINE",
"55 0 LINE",
"124 0 LINE",
"202 368 OFFCURVE",
"271 497 OFFCURVE",
"356 497 CURVE SMOOTH",
"397 497 OFFCURVE",
"405 468 OFFCURVE",
"392 424 CURVE SMOOTH",
"289 77 LINE SMOOTH",
"271 17 OFFCURVE",
"302 -10 OFFCURVE",
"340 -10 CURVE SMOOTH"
);
}
);
width = 500;
}
);
unicode = 0068;
},
{
color = 6;
glyphname = i;
layers = (
{
anchors = (
{
name = bottom;
position = "{277, 0}";
},
{
name = ogonek;
position = "{517, 10}";
},
{
name = top;
position = "{240, 679}";
}
);
guideLines = (
{
angle = 257.6973;
position = "{205, 304}";
},
{
angle = 233.1301;
position = "{437, 159}";
},
{
angle = 233.1301;
position = "{426, 184}";
}
);
layerId = "63C36BCE-C2CB-4BF3-9C7E-344D74934179";
paths = (
{
closed = 1;
nodes = (
"304 -10 OFFCURVE",
"346 35 OFFCURVE",
"415 129 CURVE SMOOTH",
"437 159 LINE",
"418 173 LINE",
"396 144 LINE SMOOTH",
"348 81 OFFCURVE",
"311 40 OFFCURVE",
"270 40 CURVE SMOOTH",
"234 40 OFFCURVE",
"220 65 OFFCURVE",
"229 108 CURVE SMOOTH",
"327 554 LINE",
"303 554 LINE",
"254 529 LINE",
"77 516 LINE",
"77 492 LINE",
"246 492 LINE",
"162 108 LINE SMOOTH",
"146 36 OFFCURVE",
"180 -10 OFFCURVE",
"242 -10 CURVE SMOOTH"
);
},
{
closed = 1;
nodes = (
"344 630 OFFCURVE",
"377 662 OFFCURVE",
"377 697 CURVE SMOOTH",
"377 722 OFFCURVE",
"359 740 OFFCURVE",
"332 740 CURVE SMOOTH",
"297 740 OFFCURVE",
"264 708 OFFCURVE",
"264 673 CURVE SMOOTH",
"264 648 OFFCURVE",
"283 630 OFFCURVE",
"309 630 CURVE SMOOTH"
);
}
);
width = 500;
}
);
unicode = 0069;
},
{
color = 6;
glyphname = idotless;
layers = (
{
anchors = (
{
name = bottom;
position = "{174, 0}";
},
{
name = ogonek;
position = "{215, 0}";
},
{
name = top;
position = "{307, 540}";
}
);
layerId = "63C36BCE-C2CB-4BF3-9C7E-344D74934179";
paths = (
{
closed = 1;
nodes = (
"283 -10 OFFCURVE",
"314 39 OFFCURVE",
"357 97 CURVE SMOOTH",
"435 203 LINE",
"418 215 LINE",
"337 106 LINE SMOOTH",
"307 66 OFFCURVE",
"291 42 OFFCURVE",
"264 42 CURVE SMOOTH",
"232 42 OFFCURVE",
"225 78 OFFCURVE",
"234 119 CURVE SMOOTH",
"327 554 LINE",
"303 554 LINE",
"254 529 LINE",
"77 516 LINE",
"77 492 LINE",
"246 492 LINE",
"166 115 LINE SMOOTH",
"150 40 OFFCURVE",
"167 -10 OFFCURVE",
"225 -10 CURVE SMOOTH"
);
}
);
width = 500;
}
);
unicode = 0131;
},
{
color = 6;
glyphname = j;
layers = (
{
layerId = "63C36BCE-C2CB-4BF3-9C7E-344D74934179";
paths = (
{
closed = 1;
nodes = (
"245 -190 OFFCURVE",
"291 -31 OFFCURVE",
"307 43 CURVE SMOOTH",
"417 554 LINE",
"393 554 LINE",
"344 529 LINE",
"147 516 LINE",
"147 492 LINE",
"336 492 LINE",
"240 43 LINE SMOOTH",
"224 -31 OFFCURVE",
"200 -161 OFFCURVE",
"66 -161 CURVE SMOOTH",
"46 -161 OFFCURVE",
"30 -158 OFFCURVE",
"23 -155 CURVE",
"16 -128 LINE SMOOTH",
"9 -101 OFFCURVE",
"-3 -60 OFFCURVE",
"-42 -60 CURVE SMOOTH",
"-70 -60 OFFCURVE",
"-89 -81 OFFCURVE",
"-89 -108 CURVE SMOOTH",
"-89 -156 OFFCURVE",
"-28 -190 OFFCURVE",
"58 -190 CURVE SMOOTH"
);
},
{
closed = 1;
nodes = (
"435 630 OFFCURVE",
"468 662 OFFCURVE",
"468 697 CURVE SMOOTH",
"468 722 OFFCURVE",
"450 740 OFFCURVE",
"423 740 CURVE SMOOTH",
"388 740 OFFCURVE",
"355 708 OFFCURVE",
"355 673 CURVE SMOOTH",
"355 648 OFFCURVE",
"374 630 OFFCURVE",
"400 630 CURVE SMOOTH"
);
}
);
width = 500;
}
);
unicode = 006A;
},
{
color = 6;
glyphname = k;
layers = (
{
anchors = (
{
name = bottom;
position = "{193, 0}";
},
{
name = top;
position = "{384, 900}";
}
);
guideLines = (
{
angle = -61.6872;
position = "{308, 274}";
},
{
angle = 118.3128;
position = "{305, 140}";
}
);
layerId = "63C36BCE-C2CB-4BF3-9C7E-344D74934179";
paths = (
{
closed = 1;
nodes = (
"405 -10 OFFCURVE",
"433 25 OFFCURVE",
"485 97 CURVE SMOOTH",
"509 130 LINE",
"492 142 LINE",
"465 106 LINE SMOOTH",
"435 66 OFFCURVE",
"416 42 OFFCURVE",
"391 42 CURVE SMOOTH",
"367 42 OFFCURVE",
"356 65 OFFCURVE",
"345 85 CURVE SMOOTH",
"248 265 LINE",
"255 265 LINE SMOOTH",
"407 265 OFFCURVE",
"477 354 OFFCURVE",
"477 440 CURVE SMOOTH",
"477 509 OFFCURVE",
"431 550 OFFCURVE",
"363 550 CURVE SMOOTH",
"241 550 OFFCURVE",
"194 417 OFFCURVE",
"153 293 CURVE",
"138 293 LINE",
"210 540 LINE",
"254 750 LINE",
"230 750 LINE",
"181 725 LINE",
"46 712 LINE",
"41 688 LINE",
"173 688 LINE",
"27 0 LINE",
"96 0 LINE",
"125 116 LINE SMOOTH",
"156 240 OFFCURVE",
"218 519 OFFCURVE",
"340 519 CURVE SMOOTH",
"379 519 OFFCURVE",
"411 490 OFFCURVE",
"411 438 CURVE SMOOTH",
"411 362 OFFCURVE",
"342 290 OFFCURVE",
"244 290 CURVE SMOOTH",
"163 290 LINE",
"163 282 LINE",
"276 73 LINE SMOOTH",
"301 27 OFFCURVE",
"320 -10 OFFCURVE",
"364 -10 CURVE SMOOTH"
);
}
);
width = 500;
}
);
unicode = 006B;
},
{
color = 6;
glyphname = l;
layers = (
{
anchors = (
{
name = bottom;
position = "{193, 0}";
},
{
name = center;
position = "{320, 598}";
},
{
name = top;
position = "{295, 740}";
},
{
name = topright;
position = "{677, 1196}";
}
);
guideLines = (
{
angle = 258.0239;
position = "{191, 424}";
},
{
angle = 77.954;
position = "{259, 429}";
}
);
layerId = "63C36BCE-C2CB-4BF3-9C7E-344D74934179";
paths = (
{
closed = 1;
nodes = (
"314 -10 OFFCURVE",
"361 52 OFFCURVE",
"417 129 CURVE SMOOTH",
"439 159 LINE",
"420 173 LINE",
"398 144 LINE SMOOTH",
"364 99 OFFCURVE",
"321 40 OFFCURVE",
"258 40 CURVE SMOOTH",
"207 40 OFFCURVE",
"185 79 OFFCURVE",
"199 143 CURVE SMOOTH",
"328 750 LINE",
"304 750 LINE",
"255 725 LINE",
"90 712 LINE",
"85 688 LINE",
"247 688 LINE",
"131 143 LINE SMOOTH",
"112 52 OFFCURVE",
"144 -10 OFFCURVE",
"229 -10 CURVE SMOOTH"
);
}
);
width = 500;
}
);
unicode = 006C;
},
{
color = 3;
glyphname = lslash;
layers = (
{
components = (
{
name = l;
}
);
layerId = "63C36BCE-C2CB-4BF3-9C7E-344D74934179";
paths = (
{
closed = 1;
nodes = (
"70 325 LINE",
"63 291 LINE",
"386 461 LINE",
"393 495 LINE"
);
}
);
width = 500;
}
);
unicode = 0142;
},
{
color = 6;
glyphname = m;
layers = (
{
guideLines = (
{
angle = 255.9638;
position = "{218, 212}";
},
{
angle = 253.1645;
position = "{381, 251}";
},
{
position = "{285, 142}";
},
{
angle = 75.4889;
position = "{163, 378}";
}
);
layerId = "63C36BCE-C2CB-4BF3-9C7E-344D74934179";
paths = (
{
closed = 1;
nodes = (
"381 -10 OFFCURVE",
"414 33 OFFCURVE",
"461 97 CURVE SMOOTH",
"506 158 LINE",
"489 170 LINE",
"441 106 LINE SMOOTH",
"411 66 OFFCURVE",
"393 42 OFFCURVE",
"377 42 CURVE SMOOTH",
"358 42 OFFCURVE",
"368 76 OFFCURVE",
"371 84 CURVE SMOOTH",
"476 430 LINE SMOOTH",
"499 505 OFFCURVE",
"484 550 OFFCURVE",
"441 550 CURVE SMOOTH",
"371 550 OFFCURVE",
"332 432 OFFCURVE",
"295 315 CURVE SMOOTH",
"288 293 LINE",
"277 293 LINE",
"326 453 LINE SMOOTH",
"347 523 OFFCURVE",
"321 550 OFFCURVE",
"291 550 CURVE SMOOTH",
"219 550 OFFCURVE",
"179 396 OFFCURVE",
"158 316 CURVE SMOOTH",
"152 293 LINE",
"141 293 LINE",
"185 463 LINE SMOOTH",
"201 524 OFFCURVE",
"180 550 OFFCURVE",
"155 550 CURVE SMOOTH",
"126 550 OFFCURVE",
"103 517 OFFCURVE",
"48 443 CURVE SMOOTH",
"25 412 LINE",
"42 399 LINE",
"68 434 LINE SMOOTH",
"108 488 OFFCURVE",
"117 498 OFFCURVE",
"128 498 CURVE SMOOTH",
"145 498 OFFCURVE",
"142 474 OFFCURVE",
"138 456 CURVE SMOOTH",
"41 0 LINE",
"95 0 LINE",
"169 291 LINE SMOOTH",
"209 449 OFFCURVE",
"242 497 OFFCURVE",
"266 497 CURVE SMOOTH",
"286 497 OFFCURVE",
"281 465 OFFCURVE",
"276 446 CURVE SMOOTH",
"165 0 LINE",
"214 0 LINE",
"303 285 LINE SMOOTH",
"331 376 OFFCURVE",
"373 497 OFFCURVE",
"416 497 CURVE SMOOTH",
"439 497 OFFCURVE",
"428 460 OFFCURVE",
"423 444 CURVE SMOOTH",
"312 77 LINE SMOOTH",
"294 17 OFFCURVE",
"310 -10 OFFCURVE",
"344 -10 CURVE SMOOTH"
);
}
);
width = 500;
}
);
unicode = 006D;
},
{
color = 6;
glyphname = n;
layers = (
{
anchors = (
{
name = bottom;
position = "{193, 0}";
},
{
name = top;
position = "{307, 540}";
}
);
guideLines = (
{
angle = 254.0546;
position = "{107, 0}";
},
{
position = "{285, 142}";
},
{
angle = 233.1301;
position = "{469, 124}";
}
);
layerId = "63C36BCE-C2CB-4BF3-9C7E-344D74934179";
paths = (
{
closed = 1;
nodes = (
"400 -10 OFFCURVE",
"433 39 OFFCURVE",
"475 97 CURVE SMOOTH",
"499 130 LINE",
"482 142 LINE",
"455 106 LINE SMOOTH",
"425 66 OFFCURVE",
"407 42 OFFCURVE",
"384 42 CURVE SMOOTH",
"354 42 OFFCURVE",
"362 74 OFFCURVE",
"365 84 CURVE SMOOTH",
"468 430 LINE SMOOTH",
"490 504 OFFCURVE",
"455 550 OFFCURVE",
"394 550 CURVE SMOOTH",
"286 550 OFFCURVE",
"224 406 OFFCURVE",
"187 293 CURVE",
"172 293 LINE",
"228 463 LINE SMOOTH",
"248 523 OFFCURVE",
"216 550 OFFCURVE",
"180 550 CURVE SMOOTH",
"133 550 OFFCURVE",
"102 501 OFFCURVE",
"59 443 CURVE SMOOTH",
"36 412 LINE",
"53 399 LINE",
"79 434 LINE SMOOTH",
"109 474 OFFCURVE",
"126 498 OFFCURVE",
"147 498 CURVE SMOOTH",
"168 498 OFFCURVE",
"163 475 OFFCURVE",
"159 456 CURVE SMOOTH",
"62 0 LINE",
"131 0 LINE",
"209 368 OFFCURVE",
"278 497 OFFCURVE",
"363 497 CURVE SMOOTH",
"404 497 OFFCURVE",
"412 468 OFFCURVE",
"399 424 CURVE SMOOTH",
"296 77 LINE SMOOTH",
"278 17 OFFCURVE",
"309 -10 OFFCURVE",
"347 -10 CURVE SMOOTH"
);
}
);
width = 500;
}
);
unicode = 006E;
},
{
color = 6;
glyphname = eng;
layers = (
{
guideLines = (
{
angle = 253.4675;
position = "{348, 251}";
},
{
angle = 73.4224;
position = "{417, 257}";
}
);
layerId = "63C36BCE-C2CB-4BF3-9C7E-344D74934179";
paths = (
{
closed = 1;
nodes = (
"287 -190 OFFCURVE",
"331 -30 OFFCURVE",
"353 43 CURVE SMOOTH",
"468 430 LINE SMOOTH",
"490 504 OFFCURVE",
"455 550 OFFCURVE",
"394 550 CURVE SMOOTH",
"286 550 OFFCURVE",
"224 406 OFFCURVE",
"187 293 CURVE",
"174 293 LINE",
"228 463 LINE SMOOTH",
"247 523 OFFCURVE",
"216 550 OFFCURVE",
"180 550 CURVE SMOOTH",
"133 550 OFFCURVE",
"102 501 OFFCURVE",
"59 443 CURVE SMOOTH",
"36 412 LINE",
"53 399 LINE",
"79 434 LINE SMOOTH",
"109 474 OFFCURVE",
"126 498 OFFCURVE",
"147 498 CURVE SMOOTH",
"168 498 OFFCURVE",
"163 475 OFFCURVE",
"159 456 CURVE SMOOTH",
"62 0 LINE",
"131 0 LINE",
"209 368 OFFCURVE",
"278 497 OFFCURVE",
"363 497 CURVE SMOOTH",
"404 497 OFFCURVE",
"412 468 OFFCURVE",
"399 424 CURVE SMOOTH",
"286 43 LINE SMOOTH",
"245 -95 OFFCURVE",
"213 -161 OFFCURVE",
"121 -161 CURVE SMOOTH",
"99 -161 OFFCURVE",
"84 -158 OFFCURVE",
"79 -155 CURVE",
"72 -128 LINE SMOOTH",
"65 -101 OFFCURVE",
"53 -60 OFFCURVE",
"14 -60 CURVE SMOOTH",
"-14 -60 OFFCURVE",
"-33 -81 OFFCURVE",
"-33 -108 CURVE SMOOTH",
"-33 -155 OFFCURVE",
"30 -190 OFFCURVE",
"110 -190 CURVE SMOOTH"
);
}
);
width = 500;
}
);
unicode = 014B;
},
{
color = 6;
glyphname = o;
layers = (
{
anchors = (
{
name = bottom;
position = "{193, 0}";
},
{
name = center;
position = "{250, 270}";
},
{
name = ogonek;
position = "{395, 10}";
},
{
name = top;
position = "{321, 540}";
},
{
name = topright;
position = "{399, 484}";
}
);
layerId = "63C36BCE-C2CB-4BF3-9C7E-344D74934179";
paths = (
{
closed = 1;
nodes = (
"333 -10 OFFCURVE",
"452 178 OFFCURVE",
"452 357 CURVE SMOOTH",
"452 465 OFFCURVE",
"408 550 OFFCURVE",
"316 550 CURVE SMOOTH",
"176 550 OFFCURVE",
"58 359 OFFCURVE",
"58 183 CURVE SMOOTH",
"58 77 OFFCURVE",
"101 -10 OFFCURVE",
"194 -10 CURVE SMOOTH"
);
},
{
closed = 1;
nodes = (
"129 22 OFFCURVE",
"100 96 OFFCURVE",
"127 220 CURVE SMOOTH",
"149 320 LINE SMOOTH",
"176 444 OFFCURVE",
"235 518 OFFCURVE",
"308 518 CURVE SMOOTH",
"382 518 OFFCURVE",
"409 444 OFFCURVE",
"383 320 CURVE SMOOTH",
"362 220 LINE SMOOTH",
"336 96 OFFCURVE",
"276 22 OFFCURVE",
"202 22 CURVE SMOOTH"
);
}
);
width = 500;
}
);
unicode = 006F;
},
{
color = 3;
glyphname = oslash;
layers = (
{
components = (
{
alignment = -1;
name = o;
transform = "{1, 0, 0, 1, -5, 1}";
}
);
layerId = "63C36BCE-C2CB-4BF3-9C7E-344D74934179";
paths = (
{
closed = 1;
nodes = (
"478 535 LINE",
"454 551 LINE",
"23 6 LINE",
"47 -10 LINE"
);
}
);
width = 500;
}
);
unicode = 00F8;
},
{
color = 6;
glyphname = oe;
layers = (
{
layerId = "63C36BCE-C2CB-4BF3-9C7E-344D74934179";
paths = (
{
closed = 1;
nodes = (
"137 -10 OFFCURVE",
"184 32 OFFCURVE",
"220 93 CURVE",
"231 31 OFFCURVE",
"267 -10 OFFCURVE",
"326 -10 CURVE SMOOTH",
"419 -10 OFFCURVE",
"449 94 OFFCURVE",
"465 158 CURVE SMOOTH",
"468 170 LINE",
"443 178 LINE",
"437 158 LINE SMOOTH",
"417 91 OFFCURVE",
"392 25 OFFCURVE",
"334 25 CURVE SMOOTH",
"292 25 OFFCURVE",
"266 65 OFFCURVE",
"266 127 CURVE SMOOTH",
"266 147 OFFCURVE",
"269 182 OFFCURVE",
"277 220 CURVE SMOOTH",
"294 300 LINE",
"297 300 LINE SMOOTH",
"394 300 OFFCURVE",
"538 371 OFFCURVE",
"538 469 CURVE SMOOTH",
"538 520 OFFCURVE",
"500 550 OFFCURVE",
"450 550 CURVE SMOOTH",
"380 550 OFFCURVE",
"331 507 OFFCURVE",
"296 445 CURVE",
"286 507 OFFCURVE",
"257 550 OFFCURVE",
"204 550 CURVE SMOOTH",
"15 550 OFFCURVE",
"-106 -10 OFFCURVE",
"85 -10 CURVE SMOOTH"
);
},
{
closed = 1;
nodes = (
"51 22 OFFCURVE",
"26 69 OFFCURVE",
"54 200 CURVE SMOOTH",
"84 340 LINE SMOOTH",
"112 471 OFFCURVE",
"156 518 OFFCURVE",
"198 518 CURVE SMOOTH",
"239 518 OFFCURVE",
"264 471 OFFCURVE",
"236 340 CURVE SMOOTH",
"206 200 LINE SMOOTH",
"178 69 OFFCURVE",
"134 22 OFFCURVE",
"92 22 CURVE SMOOTH"
);
},
{
closed = 1;
nodes = (
"324 444 OFFCURVE",
"365 519 OFFCURVE",
"428 519 CURVE SMOOTH",
"460 519 OFFCURVE",
"472 498 OFFCURVE",
"472 470 CURVE SMOOTH",
"472 393 OFFCURVE",
"384 323 OFFCURVE",
"298 322 CURVE"
);
}
);
width = 500;
}
);
unicode = 0153;
},
{
color = 6;
glyphname = p;
layers = (
{
guideLines = (
{
angle = 90;
position = "{185, 138}";
},
{
angle = 258.0239;
position = "{114, -152}";
},
{
angle = 78.0888;
position = "{225, 186}";
}
);
layerId = "63C36BCE-C2CB-4BF3-9C7E-344D74934179";
paths = (
{
closed = 1;
nodes = (
"273 -186 LINE",
"273 -152 LINE",
"114 -152 LINE",
"147 3 LINE",
"165 -4 OFFCURVE",
"188 -10 OFFCURVE",
"216 -10 CURVE SMOOTH",
"384 -10 OFFCURVE",
"480 233 OFFCURVE",
"480 397 CURVE SMOOTH",
"480 491 OFFCURVE",
"447 550 OFFCURVE",
"381 550 CURVE SMOOTH",
"322 550 OFFCURVE",
"271 504 OFFCURVE",
"255 490 CURVE",
"242 490 LINE",
"283 647 LINE",
"216 647 LINE",
"46 -152 LINE",
"-58 -152 LINE",
"-58 -186 LINE"
);
},
{
closed = 1;
nodes = (
"62 362 LINE",
"198 450 LINE",
"198 470 LINE",
"51 414 LINE",
"51 362 LINE"
);
},
{
closed = 1;
nodes = (
"190 22 OFFCURVE",
"165 33 OFFCURVE",
"156 42 CURVE",
"245 465 LINE",
"268 486 OFFCURVE",
"314 514 OFFCURVE",
"353 514 CURVE SMOOTH",
"402 514 OFFCURVE",
"429 475 OFFCURVE",
"413 400 CURVE SMOOTH",
"367 182 LINE SMOOTH",
"344 75 OFFCURVE",
"294 22 OFFCURVE",
"222 22 CURVE SMOOTH"
);
}
);
width = 500;
}
);
unicode = 0070;
},
{
color = 6;
glyphname = thorn;
layers = (
{
guideLines = (
{
angle = 257.9741;
position = "{156, 42}";
}
);
layerId = "63C36BCE-C2CB-4BF3-9C7E-344D74934179";
paths = (
{
closed = 1;
nodes = (
"273 -190 LINE",
"273 -162 LINE",
"114 -152 LINE",
"147 3 LINE",
"165 -4 OFFCURVE",
"188 -10 OFFCURVE",
"216 -10 CURVE SMOOTH",
"384 -10 OFFCURVE",
"480 233 OFFCURVE",
"480 397 CURVE SMOOTH",
"480 491 OFFCURVE",
"447 550 OFFCURVE",
"381 550 CURVE SMOOTH",
"322 550 OFFCURVE",
"271 504 OFFCURVE",
"255 490 CURVE",
"250 490 LINE",
"306 750 LINE",
"282 750 LINE",
"233 725 LINE",
"138 712 LINE",
"133 688 LINE",
"225 688 LINE",
"46 -152 LINE",
"-58 -162 LINE",
"-58 -190 LINE"
);
},
{
closed = 1;
nodes = (
"62 362 LINE",
"198 450 LINE",
"198 470 LINE",
"51 414 LINE",
"51 362 LINE"
);
},
{
closed = 1;
nodes = (
"190 22 OFFCURVE",
"165 33 OFFCURVE",
"156 42 CURVE",
"245 465 LINE",
"268 486 OFFCURVE",
"314 514 OFFCURVE",
"353 514 CURVE SMOOTH",
"402 514 OFFCURVE",
"429 475 OFFCURVE",
"413 400 CURVE SMOOTH",
"367 182 LINE SMOOTH",
"344 75 OFFCURVE",
"294 22 OFFCURVE",
"222 22 CURVE SMOOTH"
);
}
);
width = 500;
}
);
unicode = 00FE;
},
{
color = 6;
glyphname = q;
layers = (
{
layerId = "63C36BCE-C2CB-4BF3-9C7E-344D74934179";
paths = (
{
closed = 1;
nodes = (
"416 -186 LINE",
"416 -152 LINE",
"342 -152 LINE",
"491 551 LINE",
"467 551 LINE",
"419 531 LINE",
"410 539 OFFCURVE",
"385 550 OFFCURVE",
"353 550 CURVE SMOOTH",
"187 550 OFFCURVE",
"82 286 OFFCURVE",
"76 144 CURVE SMOOTH",
"72 57 OFFCURVE",
"106 -9 OFFCURVE",
"167 -9 CURVE SMOOTH",
"256 -9 OFFCURVE",
"324 133 OFFCURVE",
"364 254 CURVE SMOOTH",
"382 308 LINE",
"397 308 LINE",
"331 98 LINE",
"274 -152 LINE",
"108 -152 LINE",
"108 -186 LINE"
);
},
{
closed = 1;
nodes = (
"142 31 OFFCURVE",
"125 81 OFFCURVE",
"143 144 CURVE SMOOTH",
"209 381 LINE SMOOTH",
"232 465 OFFCURVE",
"275 517 OFFCURVE",
"336 517 CURVE SMOOTH",
"375 517 OFFCURVE",
"399 495 OFFCURVE",
"406 478 CURVE",
"380 352 OFFCURVE",
"285 31 OFFCURVE",
"184 31 CURVE SMOOTH"
);
}
);
width = 500;
}
);
unicode = 0071;
},
{
color = 6;
glyphname = r;
layers = (
{
anchors = (
{
name = bottom;
position = "{100, 0}";
},
{
name = top;
position = "{307, 540}";
}
);
guideLines = (
{
angle = 72.7185;
position = "{158, 377}";
},
{
angle = 78.0814;
position = "{185, 145}";
},
{
position = "{305, 293}";
}
);
layerId = "63C36BCE-C2CB-4BF3-9C7E-344D74934179";
paths = (
{
closed = 1;
nodes = (
"130 0 LINE",
"181 178 LINE SMOOTH",
"238 378 OFFCURVE",
"333 516 OFFCURVE",
"401 516 CURVE",
"398 493 LINE SMOOTH",
"393 453 OFFCURVE",
"412 428 OFFCURVE",
"449 428 CURVE SMOOTH",
"486 428 OFFCURVE",
"508 455 OFFCURVE",
"508 486 CURVE SMOOTH",
"508 522 OFFCURVE",
"478 550 OFFCURVE",
"427 550 CURVE SMOOTH",
"336 550 OFFCURVE",
"264 461 OFFCURVE",
"194 288 CURVE",
"179 288 LINE",
"235 448 LINE SMOOTH",
"255 506 OFFCURVE",
"237 550 OFFCURVE",
"183 550 CURVE SMOOTH",
"125 550 OFFCURVE",
"94 501 OFFCURVE",
"51 443 CURVE SMOOTH",
"28 412 LINE",
"45 399 LINE",
"71 434 LINE SMOOTH",
"101 474 OFFCURVE",
"119 498 OFFCURVE",
"145 498 CURVE SMOOTH",
"171 498 OFFCURVE",
"175 475 OFFCURVE",
"171 456 CURVE SMOOTH",
"74 0 LINE"
);
}
);
width = 500;
}
);
unicode = 0072;
},
{
color = 6;
glyphname = s;
layers = (
{
anchors = (
{
name = bottom;
position = "{221, 0}";
},
{
name = top;
position = "{345, 540}";
}
);
layerId = "63C36BCE-C2CB-4BF3-9C7E-344D74934179";
paths = (
{
closed = 1;
nodes = (
"368 -10 OFFCURVE",
"418 89 OFFCURVE",
"418 156 CURVE SMOOTH",
"418 289 OFFCURVE",
"217 322 OFFCURVE",
"217 430 CURVE SMOOTH",
"217 476 OFFCURVE",
"254 521 OFFCURVE",
"335 521 CURVE SMOOTH",
"357 521 OFFCURVE",
"372 518 OFFCURVE",
"378 515 CURVE",
"385 490 LINE SMOOTH",
"393 460 OFFCURVE",
"405 428 OFFCURVE",
"438 428 CURVE SMOOTH",
"464 428 OFFCURVE",
"481 447 OFFCURVE",
"481 472 CURVE SMOOTH",
"481 514 OFFCURVE",
"433 550 OFFCURVE",
"345 550 CURVE SMOOTH",
"223 550 OFFCURVE",
"156 481 OFFCURVE",
"156 400 CURVE SMOOTH",
"156 262 OFFCURVE",
"357 245 OFFCURVE",
"357 125 CURVE SMOOTH",
"357 67 OFFCURVE",
"311 19 OFFCURVE",
"218 19 CURVE SMOOTH",
"194 19 OFFCURVE",
"176 22 OFFCURVE",
"170 25 CURVE",
"162 68 LINE SMOOTH",
"157 94 OFFCURVE",
"148 134 OFFCURVE",
"105 134 CURVE SMOOTH",
"78 134 OFFCURVE",
"57 117 OFFCURVE",
"57 84 CURVE SMOOTH",
"57 30 OFFCURVE",
"114 -10 OFFCURVE",
"213 -10 CURVE SMOOTH"
);
}
);
width = 500;
}
);
unicode = 0073;
},
{
color = 6;
glyphname = germandbls;
layers = (
{
layerId = "63C36BCE-C2CB-4BF3-9C7E-344D74934179";
paths = (
{
closed = 1;
nodes = (
"56 -190 OFFCURVE",
"93 -19 OFFCURVE",
"106 43 CURVE SMOOTH",
"211 540 LINE SMOOTH",
"227 614 OFFCURVE",
"249 744 OFFCURVE",
"364 744 CURVE SMOOTH",
"423 744 OFFCURVE",
"456 710 OFFCURVE",
"456 658 CURVE SMOOTH",
"456 541 OFFCURVE",
"289 530 OFFCURVE",
"289 390 CURVE SMOOTH",
"289 270 OFFCURVE",
"412 251 OFFCURVE",
"412 131 CURVE SMOOTH",
"412 55 OFFCURVE",
"363 19 OFFCURVE",
"306 19 CURVE SMOOTH",
"294 19 OFFCURVE",
"280 21 OFFCURVE",
"273 22 CURVE",
"265 68 LINE SMOOTH",
"261 93 OFFCURVE",
"253 134 OFFCURVE",
"209 134 CURVE SMOOTH",
"181 134 OFFCURVE",
"160 117 OFFCURVE",
"160 84 CURVE SMOOTH",
"160 27 OFFCURVE",
"221 -10 OFFCURVE",
"297 -10 CURVE SMOOTH",
"417 -10 OFFCURVE",
"471 81 OFFCURVE",
"471 163 CURVE SMOOTH",
"471 286 OFFCURVE",
"348 322 OFFCURVE",
"348 427 CURVE SMOOTH",
"348 549 OFFCURVE",
"517 542 OFFCURVE",
"517 659 CURVE SMOOTH",
"517 724 OFFCURVE",
"464 773 OFFCURVE",
"369 773 CURVE SMOOTH",
"232 773 OFFCURVE",
"172 671 OFFCURVE",
"144 540 CURVE",
"46 530 LINE",
"41 508 LINE",
"137 508 LINE",
"39 43 LINE SMOOTH",
"13 -81 OFFCURVE",
"0 -161 OFFCURVE",
"-71 -161 CURVE SMOOTH",
"-81 -161 OFFCURVE",
"-88 -159 OFFCURVE",
"-91 -158 CURVE",
"-95 -128 LINE SMOOTH",
"-99 -101 OFFCURVE",
"-114 -60 OFFCURVE",
"-153 -60 CURVE SMOOTH",
"-181 -60 OFFCURVE",
"-200 -80 OFFCURVE",
"-200 -110 CURVE SMOOTH",
"-200 -166 OFFCURVE",
"-137 -190 OFFCURVE",
"-84 -190 CURVE SMOOTH"
);
}
);
width = 500;
}
);
unicode = 00DF;
},
{
color = 6;
glyphname = t;
layers = (
{
anchors = (
{
name = bottom;
position = "{203, 0}";
},
{
name = center;
position = "{250, 270}";
},
{
name = top;
position = "{317, 540}";
},
{
name = topright;
position = "{537, 540}";
}
);
guideLines = (
{
angle = 77.964;
position = "{222, 342}";
},
{
angle = 258.0876;
position = "{151, 326}";
}
);
layerId = "63C36BCE-C2CB-4BF3-9C7E-344D74934179";
paths = (
{
closed = 1;
nodes = (
"295 -10 OFFCURVE",
"342 52 OFFCURVE",
"398 129 CURVE SMOOTH",
"420 159 LINE",
"401 173 LINE",
"379 144 LINE SMOOTH",
"345 99 OFFCURVE",
"302 40 OFFCURVE",
"239 40 CURVE SMOOTH",
"186 40 OFFCURVE",
"167 82 OFFCURVE",
"180 143 CURVE SMOOTH",
"257 508 LINE",
"471 508 LINE",
"481 540 LINE",
"264 540 LINE",
"287 647 LINE",
"212 647 LINE",
"196 540 LINE",
"59 540 LINE",
"49 508 LINE",
"189 508 LINE",
"112 143 LINE SMOOTH",
"93 52 OFFCURVE",
"124 -10 OFFCURVE",
"210 -10 CURVE SMOOTH"
);
}
);
width = 500;
}
);
unicode = 0074;
},
{
color = 6;
glyphname = u;
layers = (
{
anchors = (
{
name = bottom;
position = "{193, 0}";
},
{
name = ogonek;
position = "{294, 0}";
},
{
name = top;
position = "{286, 540}";
},
{
name = topright;
position = "{440, 487}";
}
);
layerId = "63C36BCE-C2CB-4BF3-9C7E-344D74934179";
paths = (
{
closed = 1;
nodes = (
"234 -10 OFFCURVE",
"298 142 OFFCURVE",
"332 247 CURVE",
"347 247 LINE",
"291 77 LINE SMOOTH",
"271 17 OFFCURVE",
"303 -10 OFFCURVE",
"339 -10 CURVE SMOOTH",
"386 -10 OFFCURVE",
"417 39 OFFCURVE",
"460 97 CURVE SMOOTH",
"483 128 LINE",
"466 141 LINE",
"440 106 LINE SMOOTH",
"410 66 OFFCURVE",
"393 42 OFFCURVE",
"372 42 CURVE SMOOTH",
"351 42 OFFCURVE",
"356 65 OFFCURVE",
"360 84 CURVE SMOOTH",
"457 540 LINE",
"388 540 LINE",
"311 176 OFFCURVE",
"241 43 OFFCURVE",
"159 43 CURVE SMOOTH",
"117 43 OFFCURVE",
"106 78 OFFCURVE",
"125 136 CURVE SMOOTH",
"233 463 LINE SMOOTH",
"253 523 OFFCURVE",
"220 550 OFFCURVE",
"183 550 CURVE SMOOTH",
"136 550 OFFCURVE",
"104 501 OFFCURVE",
"61 443 CURVE SMOOTH",
"38 412 LINE",
"55 399 LINE",
"81 434 LINE SMOOTH",
"111 474 OFFCURVE",
"126 498 OFFCURVE",
"151 498 CURVE SMOOTH",
"178 498 OFFCURVE",
"171 472 OFFCURVE",
"166 456 CURVE SMOOTH",
"63 147 LINE SMOOTH",
"31 52 OFFCURVE",
"59 -10 OFFCURVE",
"126 -10 CURVE SMOOTH"
);
}
);
width = 500;
}
);
unicode = 0075;
},
{
color = 6;
glyphname = v;
layers = (
{
guideLines = (
{
angle = 71.3854;
position = "{223, 484}";
}
);
layerId = "63C36BCE-C2CB-4BF3-9C7E-344D74934179";
paths = (
{
closed = 1;
nodes = (
"394 -10 OFFCURVE",
"496 194 OFFCURVE",
"496 415 CURVE SMOOTH",
"496 492 OFFCURVE",
"483 550 OFFCURVE",
"440 550 CURVE SMOOTH",
"421 550 OFFCURVE",
"395 538 OFFCURVE",
"395 503 CURVE SMOOTH",
"395 448 OFFCURVE",
"459 454 OFFCURVE",
"459 336 CURVE SMOOTH",
"459 198 OFFCURVE",
"371 27 OFFCURVE",
"247 27 CURVE SMOOTH",
"191 27 OFFCURVE",
"156 63 OFFCURVE",
"156 134 CURVE SMOOTH",
"156 232 OFFCURVE",
"218 321 OFFCURVE",
"276 408 CURVE SMOOTH",
"364 540 LINE",
"296 540 LINE",
"302 484 LINE",
"300 484 LINE SMOOTH",
"266 484 OFFCURVE",
"241 550 OFFCURVE",
"169 550 CURVE SMOOTH",
"95 550 OFFCURVE",
"59 479 OFFCURVE",
"59 441 CURVE SMOOTH",
"59 380 OFFCURVE",
"148 377 OFFCURVE",
"148 437 CURVE SMOOTH",
"148 455 OFFCURVE",
"140 469 OFFCURVE",
"112 475 CURVE SMOOTH",
"87 480 LINE",
"88 488 OFFCURVE",
"104 499 OFFCURVE",
"143 499 CURVE SMOOTH",
"209 499 OFFCURVE",
"261 470 OFFCURVE",
"306 470 CURVE",
"239 399 LINE SMOOTH",
"185 342 OFFCURVE",
"80 233 OFFCURVE",
"80 116 CURVE SMOOTH",
"80 41 OFFCURVE",
"124 -10 OFFCURVE",
"214 -10 CURVE SMOOTH"
);
}
);
width = 500;
}
);
unicode = 0076;
},
{
color = 6;
glyphname = w;
layers = (
{
anchors = (
{
name = bottom;
position = "{193, 0}";
},
{
name = top;
position = "{347, 540}";
}
);
layerId = "63C36BCE-C2CB-4BF3-9C7E-344D74934179";
paths = (
{
closed = 1;
nodes = (
"171 -10 OFFCURVE",
"215 69 OFFCURVE",
"229 104 CURVE",
"240 104 LINE",
"240 59 OFFCURVE",
"250 -10 OFFCURVE",
"308 -10 CURVE SMOOTH",
"405 -10 OFFCURVE",
"481 185 OFFCURVE",
"481 399 CURVE SMOOTH",
"481 502 OFFCURVE",
"464 549 OFFCURVE",
"423 549 CURVE SMOOTH",
"397 549 OFFCURVE",
"380 529 OFFCURVE",
"380 504 CURVE SMOOTH",
"380 483 OFFCURVE",
"392 467 OFFCURVE",
"398 459 CURVE SMOOTH",
"414 439 OFFCURVE",
"448 418 OFFCURVE",
"448 334 CURVE SMOOTH",
"448 223 OFFCURVE",
"388 45 OFFCURVE",
"312 45 CURVE SMOOTH",
"261 45 OFFCURVE",
"261 124 OFFCURVE",
"261 146 CURVE SMOOTH",
"261 169 LINE",
"286 212 OFFCURVE",
"320 291 OFFCURVE",
"320 346 CURVE SMOOTH",
"320 375 OFFCURVE",
"311 384 OFFCURVE",
"298 384 CURVE SMOOTH",
"252 384 OFFCURVE",
"236 263 OFFCURVE",
"236 171 CURVE",
"224 142 LINE SMOOTH",
"215 120 OFFCURVE",
"185 47 OFFCURVE",
"126 47 CURVE SMOOTH",
"94 47 OFFCURVE",
"78 69 OFFCURVE",
"78 114 CURVE SMOOTH",
"78 199 OFFCURVE",
"135 312 OFFCURVE",
"199 408 CURVE SMOOTH",
"287 540 LINE",
"219 540 LINE",
"225 484 LINE",
"223 484 LINE SMOOTH",
"207 484 OFFCURVE",
"207 550 OFFCURVE",
"147 550 CURVE SMOOTH",
"88 550 OFFCURVE",
"41 489 OFFCURVE",
"41 441 CURVE SMOOTH",
"41 406 OFFCURVE",
"67 393 OFFCURVE",
"84 393 CURVE SMOOTH",
"105 393 OFFCURVE",
"130 409 OFFCURVE",
"130 438 CURVE SMOOTH",
"130 468 OFFCURVE",
"102 474 OFFCURVE",
"95 475 CURVE SMOOTH",
"70 480 LINE",
"73 488 OFFCURVE",
"86 499 OFFCURVE",
"109 499 CURVE SMOOTH",
"149 499 OFFCURVE",
"191 470 OFFCURVE",
"229 470 CURVE",
"183 423 LINE SMOOTH",
"85 323 OFFCURVE",
"13 196 OFFCURVE",
"13 90 CURVE SMOOTH",
"13 22 OFFCURVE",
"43 -10 OFFCURVE",
"93 -10 CURVE SMOOTH"
);
}
);
width = 500;
}
);
unicode = 0077;
},
{
color = 6;
glyphname = x;
layers = (
{
layerId = "63C36BCE-C2CB-4BF3-9C7E-344D74934179";
paths = (
{
closed = 1;
nodes = (
"408 -10 OFFCURVE",
"423 54 OFFCURVE",
"439 97 CURVE SMOOTH",
"456 144 LINE",
"432 151 LINE",
"416 106 LINE SMOOTH",
"409 86 OFFCURVE",
"390 42 OFFCURVE",
"362 42 CURVE SMOOTH",
"331 42 OFFCURVE",
"322 89 OFFCURVE",
"317 119 CURVE SMOOTH",
"268 425 LINE SMOOTH",
"262 463 OFFCURVE",
"246 550 OFFCURVE",
"180 550 CURVE SMOOTH",
"118 550 OFFCURVE",
"93 477 OFFCURVE",
"81 443 CURVE SMOOTH",
"65 397 LINE",
"89 389 LINE",
"105 434 LINE SMOOTH",
"113 456 OFFCURVE",
"128 498 OFFCURVE",
"157 498 CURVE SMOOTH",
"189 498 OFFCURVE",
"198 445 OFFCURVE",
"202 421 CURVE SMOOTH",
"251 115 LINE SMOOTH",
"256 85 OFFCURVE",
"271 -10 OFFCURVE",
"346 -10 CURVE SMOOTH"
);
},
{
closed = 1;
nodes = (
"144 -10 OFFCURVE",
"189 95 OFFCURVE",
"246 223 CURVE SMOOTH",
"276 290 LINE",
"255 300 LINE",
"224 233 LINE SMOOTH",
"163 101 OFFCURVE",
"127 26 OFFCURVE",
"94 22 CURVE",
"97 38 LINE SMOOTH",
"103 71 OFFCURVE",
"92 94 OFFCURVE",
"61 94 CURVE SMOOTH",
"27 94 OFFCURVE",
"10 67 OFFCURVE",
"10 41 CURVE SMOOTH",
"10 11 OFFCURVE",
"32 -10 OFFCURVE",
"67 -10 CURVE SMOOTH"
);
},
{
closed = 1;
nodes = (
"291 308 LINE SMOOTH",
"352 440 OFFCURVE",
"388 515 OFFCURVE",
"421 519 CURVE",
"418 503 LINE SMOOTH",
"412 470 OFFCURVE",
"423 447 OFFCURVE",
"454 447 CURVE SMOOTH",
"488 447 OFFCURVE",
"505 474 OFFCURVE",
"505 500 CURVE SMOOTH",
"505 530 OFFCURVE",
"483 551 OFFCURVE",
"448 551 CURVE SMOOTH",
"371 551 OFFCURVE",
"326 446 OFFCURVE",
"269 318 CURVE SMOOTH",
"239 251 LINE",
"260 241 LINE"
);
}
);
width = 500;
}
);
unicode = 0078;
},
{
color = 6;
glyphname = y;
layers = (
{
anchors = (
{
name = bottom;
position = "{342, 0}";
},
{
name = top;
position = "{300, 540}";
}
);
guideLines = (
{
angle = 233.427;
position = "{126, 507}";
}
);
layerId = "63C36BCE-C2CB-4BF3-9C7E-344D74934179";
paths = (
{
closed = 1;
nodes = (
"206 -190 OFFCURVE",
"455 232 OFFCURVE",
"455 460 CURVE SMOOTH",
"455 525 OFFCURVE",
"435 550 OFFCURVE",
"404 550 CURVE SMOOTH",
"376 550 OFFCURVE",
"356 530 OFFCURVE",
"356 496 CURVE SMOOTH",
"356 448 OFFCURVE",
"397 431 OFFCURVE",
"397 362 CURVE SMOOTH",
"397 254 OFFCURVE",
"300 64 OFFCURVE",
"183 -52 CURVE",
"214 2 OFFCURVE",
"254 134 OFFCURVE",
"254 298 CURVE SMOOTH",
"254 477 OFFCURVE",
"209 550 OFFCURVE",
"142 550 CURVE SMOOTH",
"96 550 OFFCURVE",
"65 516 OFFCURVE",
"32 476 CURVE SMOOTH",
"11 451 LINE",
"24 439 LINE",
"45 462 LINE SMOOTH",
"74 494 OFFCURVE",
"89 507 OFFCURVE",
"109 507 CURVE SMOOTH",
"154 507 OFFCURVE",
"190 444 OFFCURVE",
"190 272 CURVE SMOOTH",
"190 12 OFFCURVE",
"108 -166 OFFCURVE",
"-45 -166 CURVE",
"-43 -137 LINE SMOOTH",
"-41 -102 OFFCURVE",
"-51 -61 OFFCURVE",
"-96 -61 CURVE SMOOTH",
"-130 -61 OFFCURVE",
"-152 -86 OFFCURVE",
"-152 -119 CURVE SMOOTH",
"-152 -158 OFFCURVE",
"-120 -190 OFFCURVE",
"-50 -190 CURVE SMOOTH"
);
}
);
width = 500;
}
);
unicode = 0079;
},
{
color = 6;
glyphname = z;
layers = (
{
anchors = (
{
name = bottom;
position = "{193, 0}";
},
{
name = center;
position = "{250, 270}";
},
{
name = top;
position = "{307, 540}";
}
);
guideLines = (
{
angle = 228.5006;
position = "{422, 506}";
}
);
layerId = "63C36BCE-C2CB-4BF3-9C7E-344D74934179";
paths = (
{
closed = 1;
nodes = (
"83 -11 OFFCURVE",
"83 27 OFFCURVE",
"83 36 CURVE SMOOTH",
"83 58 LINE SMOOTH",
"83 64 OFFCURVE",
"83 78 OFFCURVE",
"102 78 CURVE SMOOTH",
"147 78 OFFCURVE",
"229 -11 OFFCURVE",
"316 -11 CURVE SMOOTH",
"399 -11 OFFCURVE",
"427 70 OFFCURVE",
"427 106 CURVE SMOOTH",
"427 170 OFFCURVE",
"338 171 OFFCURVE",
"338 113 CURVE SMOOTH",
"338 85 OFFCURVE",
"359 77 OFFCURVE",
"375 74 CURVE SMOOTH",
"400 69 LINE",
"399 61 OFFCURVE",
"385 50 OFFCURVE",
"350 50 CURVE SMOOTH",
"271 50 OFFCURVE",
"204 102 OFFCURVE",
"144 102 CURVE SMOOTH",
"121 102 OFFCURVE",
"105 94 OFFCURVE",
"99 88 CURVE",
"93 92 LINE",
"467 472 LINE SMOOTH",
"503 509 OFFCURVE",
"496 550 OFFCURVE",
"458 550 CURVE SMOOTH",
"421 550 OFFCURVE",
"421 512 OFFCURVE",
"421 503 CURVE SMOOTH",
"421 481 LINE SMOOTH",
"421 475 OFFCURVE",
"421 461 OFFCURVE",
"402 461 CURVE SMOOTH",
"357 461 OFFCURVE",
"295 550 OFFCURVE",
"208 550 CURVE SMOOTH",
"125 550 OFFCURVE",
"97 469 OFFCURVE",
"97 433 CURVE SMOOTH",
"97 369 OFFCURVE",
"186 368 OFFCURVE",
"186 426 CURVE SMOOTH",
"186 454 OFFCURVE",
"165 462 OFFCURVE",
"149 465 CURVE SMOOTH",
"124 470 LINE",
"125 478 OFFCURVE",
"139 489 OFFCURVE",
"174 489 CURVE SMOOTH",
"253 489 OFFCURVE",
"300 437 OFFCURVE",
"360 437 CURVE SMOOTH",
"383 437 OFFCURVE",
"399 445 OFFCURVE",
"405 451 CURVE",
"411 447 LINE",
"28 58 LINE SMOOTH",
"2 32 OFFCURVE",
"5 -11 OFFCURVE",
"45 -11 CURVE SMOOTH"
);
}
);
width = 500;
}
);
unicode = 007A;
},
{
color = 6;
glyphname = c.001;
layers = (
{
anchors = (
{
name = bottom;
position = "{235, 0}";
},
{
name = top;
position = "{297, 540}";
}
);
layerId = "63C36BCE-C2CB-4BF3-9C7E-344D74934179";
paths = (
{
closed = 1;
nodes = (
"302 -10 OFFCURVE",
"374 48 OFFCURVE",
"416 163 CURVE SMOOTH",
"428 196 LINE",
"403 204 LINE",
"388 163 LINE SMOOTH",
"375 128 OFFCURVE",
"331 25 OFFCURVE",
"235 25 CURVE SMOOTH",
"160 25 OFFCURVE",
"122 95 OFFCURVE",
"148 220 CURVE SMOOTH",
"169 320 LINE SMOOTH",
"195 443 OFFCURVE",
"266 519 OFFCURVE",
"347 519 CURVE SMOOTH",
"359 519 OFFCURVE",
"369 517 OFFCURVE",
"373 516 CURVE",
"377 488 LINE SMOOTH",
"383 444 OFFCURVE",
"404 420 OFFCURVE",
"436 420 CURVE SMOOTH",
"466 420 OFFCURVE",
"485 441 OFFCURVE",
"485 468 CURVE SMOOTH",
"485 516 OFFCURVE",
"424 550 OFFCURVE",
"355 550 CURVE SMOOTH",
"192 550 OFFCURVE",
"73 363 OFFCURVE",
"73 185 CURVE SMOOTH",
"73 67 OFFCURVE",
"126 -10 OFFCURVE",
"220 -10 CURVE SMOOTH"
);
}
);
width = 500;
}
);
},
{
color = 6;
glyphname = e.001;
layers = (
{
anchors = (
{
name = bottom;
position = "{193, 0}";
},
{
name = ogonek;
position = "{240, 0}";
},
{
name = top;
position = "{333, 540}";
}
);
guideLines = (
{
angle = 90;
position = "{260, 233}";
}
);
layerId = "63C36BCE-C2CB-4BF3-9C7E-344D74934179";
paths = (
{
closed = 1;
nodes = (
"325 -10 OFFCURVE",
"385 93 OFFCURVE",
"410 163 CURVE SMOOTH",
"422 196 LINE",
"397 204 LINE",
"382 163 LINE SMOOTH",
"369 128 OFFCURVE",
"322 25 OFFCURVE",
"229 25 CURVE SMOOTH",
"152 25 OFFCURVE",
"116 95 OFFCURVE",
"142 220 CURVE SMOOTH",
"163 320 LINE SMOOTH",
"189 443 OFFCURVE",
"244 519 OFFCURVE",
"323 519 CURVE SMOOTH",
"372 519 OFFCURVE",
"403 488 OFFCURVE",
"403 437 CURVE SMOOTH",
"403 320 OFFCURVE",
"250 281 OFFCURVE",
"116 301 CURVE",
"116 279 LINE",
"241 261 OFFCURVE",
"469 291 OFFCURVE",
"469 439 CURVE SMOOTH",
"469 508 OFFCURVE",
"418 550 OFFCURVE",
"344 550 CURVE SMOOTH",
"186 550 OFFCURVE",
"67 361 OFFCURVE",
"67 188 CURVE SMOOTH",
"67 66 OFFCURVE",
"125 -10 OFFCURVE",
"217 -10 CURVE SMOOTH"
);
}
);
width = 500;
}
);
},
{
color = 6;
glyphname = ordfeminine;
layers = (
{
layerId = "63C36BCE-C2CB-4BF3-9C7E-344D74934179";
paths = (
{
closed = 1;
nodes = (
"243 216 OFFCURVE",
"282 314 OFFCURVE",
"302 373 CURVE SMOOTH",
"313 405 LINE",
"322 405 LINE",
"283 280 LINE SMOOTH",
"268 231 OFFCURVE",
"288 216 OFFCURVE",
"313 216 CURVE SMOOTH",
"348 216 OFFCURVE",
"370 244 OFFCURVE",
"395 280 CURVE SMOOTH",
"409 300 LINE",
"397 308 LINE",
"380 285 LINE SMOOTH",
"362 261 OFFCURVE",
"354 250 OFFCURVE",
"340 250 CURVE SMOOTH",
"327 250 OFFCURVE",
"327 263 OFFCURVE",
"329 272 CURVE SMOOTH",
"388 550 LINE",
"364 550 LINE",
"331 538 LINE",
"325 543 OFFCURVE",
"310 550 OFFCURVE",
"289 550 CURVE SMOOTH",
"139 550 OFFCURVE",
"59 216 OFFCURVE",
"176 216 CURVE SMOOTH"
);
},
{
closed = 1;
nodes = (
"165 247 OFFCURVE",
"159 278 OFFCURVE",
"167 308 CURVE SMOOTH",
"206 449 LINE SMOOTH",
"220 499 OFFCURVE",
"245 526 OFFCURVE",
"279 526 CURVE SMOOTH",
"302 526 OFFCURVE",
"317 515 OFFCURVE",
"323 506 CURVE",
"308 431 OFFCURVE",
"249 247 OFFCURVE",
"190 247 CURVE SMOOTH"
);
}
);
width = 500;
}
);
unicode = 00AA;
},
{
color = 6;
glyphname = ordmasculine;
layers = (
{
layerId = "63C36BCE-C2CB-4BF3-9C7E-344D74934179";
paths = (
{
closed = 1;
nodes = (
"408 216 OFFCURVE",
"479 550 OFFCURVE",
"307 550 CURVE SMOOTH",
"135 550 OFFCURVE",
"65 216 OFFCURVE",
"236 216 CURVE SMOOTH"
);
},
{
closed = 1;
nodes = (
"192 242 OFFCURVE",
"175 286 OFFCURVE",
"191 360 CURVE SMOOTH",
"201 406 LINE SMOOTH",
"217 480 OFFCURVE",
"253 524 OFFCURVE",
"302 524 CURVE SMOOTH",
"352 524 OFFCURVE",
"369 480 OFFCURVE",
"353 406 CURVE SMOOTH",
"343 360 LINE SMOOTH",
"327 286 OFFCURVE",
"291 242 OFFCURVE",
"242 242 CURVE SMOOTH"
);
}
);
width = 500;
}
);
unicode = 00BA;
},
{
color = 6;
glyphname = zero;
layers = (
{
layerId = "63C36BCE-C2CB-4BF3-9C7E-344D74934179";
paths = (
{
closed = 1;
nodes = (
"477 -10 OFFCURVE",
"639 750 OFFCURVE",
"366 750 CURVE SMOOTH",
"92 750 OFFCURVE",
"-69 -10 OFFCURVE",
"204 -10 CURVE SMOOTH"
);
},
{
closed = 1;
nodes = (
"120 27 OFFCURVE",
"96 97 OFFCURVE",
"121 215 CURVE SMOOTH",
"187 525 LINE SMOOTH",
"211 637 OFFCURVE",
"262 713 OFFCURVE",
"358 713 CURVE SMOOTH",
"449 713 OFFCURVE",
"474 643 OFFCURVE",
"449 525 CURVE SMOOTH",
"383 215 LINE SMOOTH",
"358 97 OFFCURVE",
"303 27 OFFCURVE",
"212 27 CURVE SMOOTH"
);
}
);
width = 500;
}
);
unicode = 0030;
},
{
color = 6;
glyphname = one;
layers = (
{
layerId = "63C36BCE-C2CB-4BF3-9C7E-344D74934179";
paths = (
{
closed = 1;
nodes = (
"443 0 LINE",
"450 34 LINE",
"261 34 LINE",
"413 750 LINE",
"389 750 LINE",
"347 697 OFFCURVE",
"297 675 OFFCURVE",
"235 670 CURVE SMOOTH",
"135 662 LINE",
"129 635 LINE",
"321 635 LINE",
"193 34 LINE",
"-6 34 LINE",
"-13 0 LINE"
);
}
);
width = 500;
}
);
unicode = 0031;
},
{
color = 6;
glyphname = two;
layers = (
{
layerId = "63C36BCE-C2CB-4BF3-9C7E-344D74934179";
paths = (
{
closed = 1;
nodes = (
"103 -10 OFFCURVE",
"114 7 OFFCURVE",
"114 27 CURVE SMOOTH",
"114 50 OFFCURVE",
"98 65 OFFCURVE",
"92 70 CURVE SMOOTH",
"69 90 LINE",
"84 111 OFFCURVE",
"117 138 OFFCURVE",
"150 138 CURVE SMOOTH",
"229 138 OFFCURVE",
"207 -10 OFFCURVE",
"318 -10 CURVE SMOOTH",
"411 -10 OFFCURVE",
"435 94 OFFCURVE",
"447 153 CURVE SMOOTH",
"466 246 LINE",
"442 249 LINE",
"422 154 LINE SMOOTH",
"413 112 OFFCURVE",
"395 51 OFFCURVE",
"345 51 CURVE SMOOTH",
"277 51 OFFCURVE",
"261 166 OFFCURVE",
"172 166 CURVE SMOOTH",
"124 166 OFFCURVE",
"79 130 OFFCURVE",
"58 103 CURVE",
"75 187 OFFCURVE",
"157 252 OFFCURVE",
"216 290 CURVE SMOOTH",
"321 357 LINE SMOOTH",
"368 387 OFFCURVE",
"516 467 OFFCURVE",
"516 600 CURVE SMOOTH",
"516 686 OFFCURVE",
"455 750 OFFCURVE",
"358 750 CURVE SMOOTH",
"240 750 OFFCURVE",
"136 655 OFFCURVE",
"136 554 CURVE SMOOTH",
"136 505 OFFCURVE",
"160 487 OFFCURVE",
"184 487 CURVE SMOOTH",
"215 487 OFFCURVE",
"242 515 OFFCURVE",
"242 547 CURVE SMOOTH",
"242 572 OFFCURVE",
"226 587 OFFCURVE",
"220 594 CURVE SMOOTH",
"188 632 LINE",
"205 668 OFFCURVE",
"253 715 OFFCURVE",
"324 715 CURVE SMOOTH",
"398 715 OFFCURVE",
"444 667 OFFCURVE",
"444 594 CURVE SMOOTH",
"444 484 OFFCURVE",
"338 414 OFFCURVE",
"307 392 CURVE SMOOTH",
"203 317 LINE SMOOTH",
"144 274 OFFCURVE",
"24 185 OFFCURVE",
"24 61 CURVE SMOOTH",
"24 10 OFFCURVE",
"51 -10 OFFCURVE",
"75 -10 CURVE SMOOTH"
);
}
);
width = 500;
}
);
unicode = 0032;
},
{
color = 6;
glyphname = three;
layers = (
{
guideLines = (
{
angle = 48.0484;
position = "{276, 540}";
}
);
layerId = "63C36BCE-C2CB-4BF3-9C7E-344D74934179";
paths = (
{
closed = 1;
nodes = (
"361 -10 OFFCURVE",
"469 152 OFFCURVE",
"469 302 CURVE SMOOTH",
"469 415 OFFCURVE",
"408 455 OFFCURVE",
"339 455 CURVE SMOOTH",
"303 455 OFFCURVE",
"274 444 OFFCURVE",
"257 436 CURVE",
"256 439 LINE",
"521 673 LINE",
"535 740 LINE",
"202 740 LINE",
"157 526 LINE",
"185 526 LINE",
"208 601 LINE SMOOTH",
"226 659 OFFCURVE",
"283 673 OFFCURVE",
"313 673 CURVE SMOOTH",
"486 673 LINE",
"165 386 LINE",
"182 366 LINE",
"229 399 OFFCURVE",
"274 423 OFFCURVE",
"326 423 CURVE SMOOTH",
"403 423 OFFCURVE",
"421 369 OFFCURVE",
"407 302 CURVE SMOOTH",
"378 167 LINE SMOOTH",
"358 75 OFFCURVE",
"297 25 OFFCURVE",
"204 25 CURVE SMOOTH",
"102 25 OFFCURVE",
"70 85 OFFCURVE",
"80 156 CURVE",
"114 177 LINE SMOOTH",
"130 187 OFFCURVE",
"175 210 OFFCURVE",
"175 251 CURVE SMOOTH",
"175 274 OFFCURVE",
"161 288 OFFCURVE",
"139 288 CURVE SMOOTH",
"89 288 OFFCURVE",
"46 214 OFFCURVE",
"46 135 CURVE SMOOTH",
"46 50 OFFCURVE",
"97 -10 OFFCURVE",
"197 -10 CURVE SMOOTH"
);
}
);
width = 500;
}
);
unicode = 0033;
},
{
color = 6;
glyphname = four;
layers = (
{
guideLines = (
{
angle = 238.9338;
position = "{314, 740}";
}
);
layerId = "63C36BCE-C2CB-4BF3-9C7E-344D74934179";
paths = (
{
closed = 1;
nodes = (
"447 0 LINE",
"454 34 LINE",
"335 34 LINE",
"373 213 LINE",
"477 213 LINE",
"484 247 LINE",
"380 247 LINE",
"485 740 LINE",
"447 740 LINE",
"45 247 LINE",
"38 213 LINE",
"305 213 LINE",
"267 34 LINE",
"138 34 LINE",
"131 0 LINE"
);
},
{
closed = 1;
nodes = (
"395 636 LINE",
"312 247 LINE",
"78 247 LINE"
);
}
);
width = 500;
}
);
unicode = 0034;
},
{
color = 6;
glyphname = five;
layers = (
{
guideLines = (
{
angle = 83.3865;
position = "{132, 568}";
}
);
layerId = "63C36BCE-C2CB-4BF3-9C7E-344D74934179";
paths = (
{
closed = 1;
nodes = (
"357 -10 OFFCURVE",
"472 139 OFFCURVE",
"472 301 CURVE SMOOTH",
"472 413 OFFCURVE",
"417 465 OFFCURVE",
"332 465 CURVE SMOOTH",
"257 465 OFFCURVE",
"191 422 OFFCURVE",
"163 389 CURVE",
"257 673 LINE",
"537 673 LINE",
"553 750 LINE",
"535 750 LINE",
"503 740 LINE",
"253 740 LINE",
"125 348 LINE",
"153 344 LINE",
"178 382 OFFCURVE",
"241 433 OFFCURVE",
"320 433 CURVE SMOOTH",
"401 433 OFFCURVE",
"427 382 OFFCURVE",
"412 312 CURVE SMOOTH",
"381 167 LINE SMOOTH",
"361 75 OFFCURVE",
"303 25 OFFCURVE",
"216 25 CURVE SMOOTH",
"124 25 OFFCURVE",
"80 82 OFFCURVE",
"91 156 CURVE",
"124 177 LINE SMOOTH",
"140 187 OFFCURVE",
"185 211 OFFCURVE",
"185 252 CURVE SMOOTH",
"185 274 OFFCURVE",
"172 288 OFFCURVE",
"150 288 CURVE SMOOTH",
"99 288 OFFCURVE",
"56 214 OFFCURVE",
"56 138 CURVE SMOOTH",
"56 46 OFFCURVE",
"119 -10 OFFCURVE",
"211 -10 CURVE SMOOTH"
);
}
);
width = 500;
}
);
unicode = 0035;
},
{
color = 6;
glyphname = six;
layers = (
{
guideLines = (
{
angle = 90;
position = "{119, 285}";
}
);
layerId = "63C36BCE-C2CB-4BF3-9C7E-344D74934179";
paths = (
{
closed = 1;
nodes = (
"375 -10 OFFCURVE",
"475 154 OFFCURVE",
"475 294 CURVE SMOOTH",
"475 395 OFFCURVE",
"424 465 OFFCURVE",
"332 465 CURVE SMOOTH",
"235 465 OFFCURVE",
"171 381 OFFCURVE",
"149 318 CURVE",
"141 318 LINE",
"151 363 LINE SMOOTH",
"200 584 OFFCURVE",
"295 720 OFFCURVE",
"411 720 CURVE SMOOTH",
"472 720 OFFCURVE",
"515 683 OFFCURVE",
"504 634 CURVE",
"477 616 LINE SMOOTH",
"459 604 OFFCURVE",
"423 584 OFFCURVE",
"423 549 CURVE SMOOTH",
"423 528 OFFCURVE",
"436 516 OFFCURVE",
"456 516 CURVE SMOOTH",
"501 516 OFFCURVE",
"538 578 OFFCURVE",
"538 639 CURVE SMOOTH",
"538 711 OFFCURVE",
"486 750 OFFCURVE",
"415 750 CURVE SMOOTH",
"212 750 OFFCURVE",
"69 426 OFFCURVE",
"69 199 CURVE SMOOTH",
"69 34 OFFCURVE",
"145 -10 OFFCURVE",
"223 -10 CURVE SMOOTH"
);
},
{
closed = 1;
nodes = (
"157 25 OFFCURVE",
"120 76 OFFCURVE",
"140 170 CURVE SMOOTH",
"164 285 LINE SMOOTH",
"184 379 OFFCURVE",
"249 433 OFFCURVE",
"321 433 CURVE SMOOTH",
"393 433 OFFCURVE",
"431 379 OFFCURVE",
"411 285 CURVE SMOOTH",
"387 170 LINE SMOOTH",
"367 76 OFFCURVE",
"309 25 OFFCURVE",
"233 25 CURVE SMOOTH"
);
}
);
width = 500;
}
);
unicode = 0036;
},
{
color = 6;
glyphname = seven;
layers = (
{
layerId = "63C36BCE-C2CB-4BF3-9C7E-344D74934179";
paths = (
{
closed = 1;
nodes = (
"194 0 LINE",
"204 47 LINE SMOOTH",
"300 498 OFFCURVE",
"548 465 OFFCURVE",
"548 681 CURVE SMOOTH",
"548 734 OFFCURVE",
"529 750 OFFCURVE",
"503 750 CURVE SMOOTH",
"473 750 OFFCURVE",
"456 730 OFFCURVE",
"456 704 CURVE SMOOTH",
"456 679 OFFCURVE",
"474 669 OFFCURVE",
"494 659 CURVE SMOOTH",
"502 655 LINE",
"492 641 OFFCURVE",
"467 622 OFFCURVE",
"437 622 CURVE SMOOTH",
"357 622 OFFCURVE",
"367 750 OFFCURVE",
"276 750 CURVE SMOOTH",
"229 750 OFFCURVE",
"204 715 OFFCURVE",
"192 692 CURVE",
"188 692 LINE",
"199 740 LINE",
"169 740 LINE",
"122 521 LINE",
"152 521 LINE",
"166 586 LINE SMOOTH",
"176 631 OFFCURVE",
"186 689 OFFCURVE",
"238 689 CURVE SMOOTH",
"305 689 OFFCURVE",
"323 594 OFFCURVE",
"418 594 CURVE SMOOTH",
"465 594 OFFCURVE",
"502 620 OFFCURVE",
"517 639 CURVE",
"482 476 OFFCURVE",
"226 456 OFFCURVE",
"139 47 CURVE SMOOTH",
"129 0 LINE"
);
}
);
width = 500;
}
);
unicode = 0037;
},
{
color = 6;
glyphname = eight;
layers = (
{
layerId = "63C36BCE-C2CB-4BF3-9C7E-344D74934179";
paths = (
{
closed = 1;
nodes = (
"348 -10 OFFCURVE",
"458 144 OFFCURVE",
"458 280 CURVE SMOOTH",
"458 365 OFFCURVE",
"411 419 OFFCURVE",
"376 435 CURVE",
"378 443 LINE",
"430 468 OFFCURVE",
"499 533 OFFCURVE",
"499 623 CURVE SMOOTH",
"499 711 OFFCURVE",
"438 750 OFFCURVE",
"363 750 CURVE SMOOTH",
"249 750 OFFCURVE",
"156 659 OFFCURVE",
"156 554 CURVE SMOOTH",
"156 493 OFFCURVE",
"190 455 OFFCURVE",
"216 443 CURVE",
"214 435 LINE",
"140 401 OFFCURVE",
"43 306 OFFCURVE",
"43 169 CURVE SMOOTH",
"43 70 OFFCURVE",
"90 -10 OFFCURVE",
"198 -10 CURVE SMOOTH"
);
},
{
closed = 1;
nodes = (
"122 25 OFFCURVE",
"88 72 OFFCURVE",
"106 157 CURVE SMOOTH",
"135 291 LINE SMOOTH",
"153 376 OFFCURVE",
"209 423 OFFCURVE",
"294 423 CURVE SMOOTH",
"379 423 OFFCURVE",
"413 376 OFFCURVE",
"395 291 CURVE SMOOTH",
"366 157 LINE SMOOTH",
"348 72 OFFCURVE",
"292 25 OFFCURVE",
"207 25 CURVE SMOOTH"
);
},
{
closed = 1;
nodes = (
"229 455 OFFCURVE",
"199 492 OFFCURVE",
"214 560 CURVE SMOOTH",
"226 615 LINE SMOOTH",
"241 683 OFFCURVE",
"284 720 OFFCURVE",
"355 720 CURVE SMOOTH",
"426 720 OFFCURVE",
"455 683 OFFCURVE",
"441 615 CURVE SMOOTH",
"430 560 LINE SMOOTH",
"416 492 OFFCURVE",
"372 455 OFFCURVE",
"301 455 CURVE SMOOTH"
);
}
);
width = 500;
}
);
unicode = 0038;
},
{
color = 6;
glyphname = zeroinferior;
layers = (
{
layerId = "63C36BCE-C2CB-4BF3-9C7E-344D74934179";
paths = (
{
closed = 1;
nodes = (
"359 -10 OFFCURVE",
"435 340 OFFCURVE",
"259 340 CURVE SMOOTH",
"83 340 OFFCURVE",
"10 -10 OFFCURVE",
"185 -10 CURVE SMOOTH"
);
},
{
closed = 1;
nodes = (
"141 17 OFFCURVE",
"119 58 OFFCURVE",
"133 123 CURVE SMOOTH",
"151 207 LINE SMOOTH",
"165 272 OFFCURVE",
"205 313 OFFCURVE",
"253 313 CURVE SMOOTH",
"301 313 OFFCURVE",
"325 273 OFFCURVE",
"311 207 CURVE SMOOTH",
"293 123 LINE SMOOTH",
"279 58 OFFCURVE",
"240 17 OFFCURVE",
"190 17 CURVE SMOOTH"
);
}
);
width = 500;
}
);
unicode = 2080;
},
{
color = 6;
glyphname = oneinferior;
layers = (
{
layerId = "63C36BCE-C2CB-4BF3-9C7E-344D74934179";
paths = (
{
closed = 1;
nodes = (
"306 0 LINE",
"312 28 LINE",
"231 28 LINE",
"297 330 LINE",
"283 330 LINE",
"250 298 OFFCURVE",
"242 289 OFFCURVE",
"183 284 CURVE SMOOTH",
"157 282 LINE",
"152 261 LINE",
"237 261 LINE",
"188 28 LINE",
"106 28 LINE",
"100 0 LINE"
);
}
);
width = 500;
}
);
unicode = 2081;
},
{
color = 6;
glyphname = twoinferior;
layers = (
{
layerId = "63C36BCE-C2CB-4BF3-9C7E-344D74934179";
paths = (
{
closed = 1;
nodes = (
"135 -10 OFFCURVE",
"144 1 OFFCURVE",
"144 13 CURVE SMOOTH",
"144 24 OFFCURVE",
"136 36 OFFCURVE",
"121 37 CURVE SMOOTH",
"111 38 LINE",
"116 44 OFFCURVE",
"129 51 OFFCURVE",
"146 51 CURVE SMOOTH",
"196 51 OFFCURVE",
"192 -10 OFFCURVE",
"250 -10 CURVE SMOOTH",
"304 -10 OFFCURVE",
"315 43 OFFCURVE",
"321 72 CURVE SMOOTH",
"327 103 LINE",
"308 103 LINE",
"302 75 LINE SMOOTH",
"300 65 OFFCURVE",
"295 40 OFFCURVE",
"267 40 CURVE SMOOTH",
"234 40 OFFCURVE",
"213 78 OFFCURVE",
"170 78 CURVE SMOOTH",
"144 78 OFFCURVE",
"119 63 OFFCURVE",
"108 52 CURVE",
"112 70 OFFCURVE",
"141 92 OFFCURVE",
"195 118 CURVE SMOOTH",
"226 133 LINE SMOOTH",
"257 148 OFFCURVE",
"349 189 OFFCURVE",
"349 263 CURVE SMOOTH",
"349 307 OFFCURVE",
"317 340 OFFCURVE",
"263 340 CURVE SMOOTH",
"193 340 OFFCURVE",
"134 286 OFFCURVE",
"134 233 CURVE SMOOTH",
"134 209 OFFCURVE",
"146 196 OFFCURVE",
"166 196 CURVE SMOOTH",
"187 196 OFFCURVE",
"206 213 OFFCURVE",
"206 233 CURVE SMOOTH",
"206 241 OFFCURVE",
"203 250 OFFCURVE",
"193 258 CURVE SMOOTH",
"168 278 LINE",
"180 294 OFFCURVE",
"209 315 OFFCURVE",
"243 315 CURVE SMOOTH",
"275 315 OFFCURVE",
"298 296 OFFCURVE",
"298 258 CURVE SMOOTH",
"298 196 OFFCURVE",
"236 166 OFFCURVE",
"217 155 CURVE SMOOTH",
"189 139 LINE SMOOTH",
"117 98 OFFCURVE",
"82 58 OFFCURVE",
"82 24 CURVE SMOOTH",
"82 1 OFFCURVE",
"98 -10 OFFCURVE",
"116 -10 CURVE SMOOTH"
);
}
);
width = 500;
}
);
unicode = 2082;
},
{
color = 6;
glyphname = threeinferior;
layers = (
{
layerId = "63C36BCE-C2CB-4BF3-9C7E-344D74934179";
paths = (
{
closed = 1;
nodes = (
"268 -10 OFFCURVE",
"329 52 OFFCURVE",
"329 124 CURVE SMOOTH",
"329 180 OFFCURVE",
"293 198 OFFCURVE",
"245 198 CURVE SMOOTH",
"227 198 OFFCURVE",
"215 195 OFFCURVE",
"211 193 CURVE",
"210 194 LINE",
"356 299 LINE",
"362 330 LINE",
"178 330 LINE",
"157 230 LINE",
"171 230 LINE",
"180 257 LINE SMOOTH",
"189 284 OFFCURVE",
"204 291 OFFCURVE",
"228 291 CURVE SMOOTH",
"312 291 LINE",
"150 175 LINE",
"160 157 LINE",
"172 165 OFFCURVE",
"197 175 OFFCURVE",
"223 175 CURVE SMOOTH",
"264 175 OFFCURVE",
"285 153 OFFCURVE",
"277 114 CURVE SMOOTH",
"270 80 LINE SMOOTH",
"262 41 OFFCURVE",
"229 14 OFFCURVE",
"182 14 CURVE SMOOTH",
"144 14 OFFCURVE",
"123 32 OFFCURVE",
"126 66 CURVE",
"138 69 LINE SMOOTH",
"166 76 OFFCURVE",
"180 95 OFFCURVE",
"180 113 CURVE SMOOTH",
"180 127 OFFCURVE",
"170 135 OFFCURVE",
"155 135 CURVE SMOOTH",
"124 135 OFFCURVE",
"100 100 OFFCURVE",
"100 59 CURVE SMOOTH",
"100 15 OFFCURVE",
"134 -10 OFFCURVE",
"186 -10 CURVE SMOOTH"
);
}
);
width = 500;
}
);
unicode = 2083;
},
{
color = 6;
glyphname = fourinferior;
layers = (
{
layerId = "63C36BCE-C2CB-4BF3-9C7E-344D74934179";
paths = (
{
closed = 1;
nodes = (
"318 0 LINE",
"324 28 LINE",
"250 28 LINE",
"261 82 LINE",
"333 82 LINE",
"339 110 LINE",
"267 110 LINE",
"314 330 LINE",
"284 330 LINE",
"85 110 LINE",
"79 82 LINE",
"218 82 LINE",
"207 28 LINE",
"139 28 LINE",
"133 0 LINE"
);
},
{
closed = 1;
nodes = (
"259 276 LINE",
"224 110 LINE",
"112 110 LINE"
);
}
);
width = 500;
}
);
unicode = 2084;
},
{
color = 6;
glyphname = fiveinferior;
layers = (
{
layerId = "63C36BCE-C2CB-4BF3-9C7E-344D74934179";
paths = (
{
closed = 1;
nodes = (
"335 -10 OFFCURVE",
"383 212 OFFCURVE",
"247 212 CURVE SMOOTH",
"210 212 OFFCURVE",
"179 194 OFFCURVE",
"166 181 CURVE",
"204 296 LINE",
"348 296 LINE",
"357 340 LINE",
"349 340 LINE",
"334 335 LINE",
"196 335 LINE",
"137 155 LINE",
"160 153 LINE",
"171 169 OFFCURVE",
"200 190 OFFCURVE",
"236 190 CURVE SMOOTH",
"275 190 OFFCURVE",
"287 167 OFFCURVE",
"280 134 CURVE SMOOTH",
"269 80 LINE SMOOTH",
"260 37 OFFCURVE",
"233 14 OFFCURVE",
"187 14 CURVE SMOOTH",
"154 14 OFFCURVE",
"124 27 OFFCURVE",
"127 61 CURVE",
"139 64 LINE SMOOTH",
"164 70 OFFCURVE",
"180 88 OFFCURVE",
"180 108 CURVE SMOOTH",
"180 122 OFFCURVE",
"170 130 OFFCURVE",
"156 130 CURVE SMOOTH",
"126 130 OFFCURVE",
"101 97 OFFCURVE",
"101 57 CURVE SMOOTH",
"101 12 OFFCURVE",
"139 -10 OFFCURVE",
"186 -10 CURVE SMOOTH"
);
}
);
width = 500;
}
);
unicode = 2085;
},
{
color = 6;
glyphname = sixinferior;
layers = (
{
layerId = "63C36BCE-C2CB-4BF3-9C7E-344D74934179";
paths = (
{
closed = 1;
nodes = (
"333 -10 OFFCURVE",
"375 209 OFFCURVE",
"244 209 CURVE SMOOTH",
"194 209 OFFCURVE",
"162 176 OFFCURVE",
"151 151 CURVE",
"148 151 LINE",
"150 162 LINE SMOOTH",
"167 258 OFFCURVE",
"218 316 OFFCURVE",
"277 316 CURVE SMOOTH",
"298 316 OFFCURVE",
"324 308 OFFCURVE",
"323 288 CURVE",
"311 285 LINE SMOOTH",
"283 278 OFFCURVE",
"270 261 OFFCURVE",
"270 243 CURVE SMOOTH",
"270 229 OFFCURVE",
"280 221 OFFCURVE",
"294 221 CURVE SMOOTH",
"324 221 OFFCURVE",
"348 253 OFFCURVE",
"348 285 CURVE SMOOTH",
"348 326 OFFCURVE",
"310 340 OFFCURVE",
"276 340 CURVE SMOOTH",
"173 340 OFFCURVE",
"98 208 OFFCURVE",
"98 98 CURVE SMOOTH",
"98 21 OFFCURVE",
"133 -10 OFFCURVE",
"187 -10 CURVE SMOOTH"
);
},
{
closed = 1;
nodes = (
"159 14 OFFCURVE",
"141 38 OFFCURVE",
"150 81 CURVE SMOOTH",
"157 116 LINE SMOOTH",
"166 159 OFFCURVE",
"195 184 OFFCURVE",
"232 184 CURVE SMOOTH",
"264 184 OFFCURVE",
"282 159 OFFCURVE",
"273 116 CURVE SMOOTH",
"266 81 LINE SMOOTH",
"257 38 OFFCURVE",
"230 14 OFFCURVE",
"195 14 CURVE SMOOTH"
);
}
);
width = 500;
}
);
unicode = 2086;
},
{
color = 6;
glyphname = seveninferior;
layers = (
{
layerId = "63C36BCE-C2CB-4BF3-9C7E-344D74934179";
paths = (
{
closed = 1;
nodes = (
"219 0 LINE",
"223 21 LINE SMOOTH",
"261 223 OFFCURVE",
"393 212 OFFCURVE",
"393 307 CURVE SMOOTH",
"393 334 OFFCURVE",
"382 343 OFFCURVE",
"370 343 CURVE SMOOTH",
"358 343 OFFCURVE",
"349 334 OFFCURVE",
"349 321 CURVE SMOOTH",
"349 317 OFFCURVE",
"350 308 OFFCURVE",
"361 302 CURVE SMOOTH",
"370 297 LINE",
"367 293 OFFCURVE",
"359 287 OFFCURVE",
"347 287 CURVE SMOOTH",
"308 287 OFFCURVE",
"278 340 OFFCURVE",
"238 340 CURVE SMOOTH",
"216 340 OFFCURVE",
"205 324 OFFCURVE",
"199 314 CURVE",
"197 314 LINE",
"202 335 LINE",
"182 335 LINE",
"160 232 LINE",
"180 232 LINE",
"184 252 LINE SMOOTH",
"188 273 OFFCURVE",
"195 298 OFFCURVE",
"217 298 CURVE SMOOTH",
"246 298 OFFCURVE",
"288 255 OFFCURVE",
"326 255 CURVE SMOOTH",
"348 255 OFFCURVE",
"362 270 OFFCURVE",
"369 280 CURVE",
"372 279 LINE",
"348 215 OFFCURVE",
"210 199 OFFCURVE",
"176 21 CURVE SMOOTH",
"172 0 LINE"
);
}
);
width = 500;
}
);
unicode = 2087;
},
{
color = 6;
glyphname = eightinferior;
layers = (
{
layerId = "63C36BCE-C2CB-4BF3-9C7E-344D74934179";
paths = (
{
closed = 1;
nodes = (
"267 -10 OFFCURVE",
"325 49 OFFCURVE",
"325 118 CURVE SMOOTH",
"325 159 OFFCURVE",
"303 182 OFFCURVE",
"287 188 CURVE",
"288 192 LINE",
"313 203 OFFCURVE",
"345 233 OFFCURVE",
"345 275 CURVE SMOOTH",
"345 316 OFFCURVE",
"316 340 OFFCURVE",
"269 340 CURVE SMOOTH",
"206 340 OFFCURVE",
"157 297 OFFCURVE",
"157 244 CURVE SMOOTH",
"157 215 OFFCURVE",
"172 197 OFFCURVE",
"184 192 CURVE",
"183 188 LINE",
"150 174 OFFCURVE",
"107 133 OFFCURVE",
"107 73 CURVE SMOOTH",
"107 28 OFFCURVE",
"130 -10 OFFCURVE",
"191 -10 CURVE SMOOTH"
);
},
{
closed = 1;
nodes = (
"163 13 OFFCURVE",
"148 35 OFFCURVE",
"156 74 CURVE SMOOTH",
"165 116 LINE SMOOTH",
"173 155 OFFCURVE",
"200 177 OFFCURVE",
"234 177 CURVE SMOOTH",
"268 177 OFFCURVE",
"283 155 OFFCURVE",
"275 116 CURVE SMOOTH",
"266 74 LINE SMOOTH",
"258 35 OFFCURVE",
"231 13 OFFCURVE",
"197 13 CURVE SMOOTH"
);
},
{
closed = 1;
nodes = (
"211 201 OFFCURVE",
"198 219 OFFCURVE",
"204 251 CURVE SMOOTH",
"207 268 LINE SMOOTH",
"212 297 OFFCURVE",
"233 317 OFFCURVE",
"263 317 CURVE SMOOTH",
"291 317 OFFCURVE",
"305 299 OFFCURVE",
"298 268 CURVE SMOOTH",
"294 251 LINE SMOOTH",
"286 217 OFFCURVE",
"264 201 OFFCURVE",
"238 201 CURVE SMOOTH"
);
}
);
width = 500;
}
);
unicode = 2088;
},
{
color = 6;
glyphname = nineinferior;
layers = (
{
layerId = "63C36BCE-C2CB-4BF3-9C7E-344D74934179";
paths = (
{
closed = 1;
nodes = (
"271 -10 OFFCURVE",
"355 108 OFFCURVE",
"355 230 CURVE SMOOTH",
"355 310 OFFCURVE",
"319 340 OFFCURVE",
"265 340 CURVE SMOOTH",
"119 340 OFFCURVE",
"79 121 OFFCURVE",
"209 121 CURVE SMOOTH",
"258 121 OFFCURVE",
"291 154 OFFCURVE",
"302 179 CURVE",
"305 179 LINE",
"303 168 LINE SMOOTH",
"284 65 OFFCURVE",
"231 14 OFFCURVE",
"176 14 CURVE SMOOTH",
"154 14 OFFCURVE",
"129 22 OFFCURVE",
"130 42 CURVE",
"142 45 LINE SMOOTH",
"170 52 OFFCURVE",
"183 69 OFFCURVE",
"183 87 CURVE SMOOTH",
"183 101 OFFCURVE",
"173 109 OFFCURVE",
"158 109 CURVE SMOOTH",
"130 109 OFFCURVE",
"105 79 OFFCURVE",
"105 45 CURVE SMOOTH",
"105 4 OFFCURVE",
"142 -10 OFFCURVE",
"175 -10 CURVE SMOOTH"
);
},
{
closed = 1;
nodes = (
"189 146 OFFCURVE",
"171 171 OFFCURVE",
"180 214 CURVE SMOOTH",
"187 249 LINE SMOOTH",
"196 292 OFFCURVE",
"223 316 OFFCURVE",
"258 316 CURVE SMOOTH",
"293 316 OFFCURVE",
"312 292 OFFCURVE",
"303 249 CURVE SMOOTH",
"296 214 LINE SMOOTH",
"287 171 OFFCURVE",
"257 146 OFFCURVE",
"221 146 CURVE SMOOTH"
);
}
);
width = 500;
}
);
unicode = 2089;
},
{
color = 6;
glyphname = fraction;
layers = (
{
layerId = "63C36BCE-C2CB-4BF3-9C7E-344D74934179";
paths = (
{
closed = 1;
nodes = (
"110 0 LINE",
"422 740 LINE",
"393 740 LINE",
"81 0 LINE"
);
}
);
width = 500;
}
);
unicode = 2044;
},
{
color = 6;
glyphname = comma;
layers = (
{
anchors = (
{
name = _top;
position = "{250, -100}";
},
{
name = top;
position = "{250, 39}";
}
);
layerId = "63C36BCE-C2CB-4BF3-9C7E-344D74934179";
paths = (
{
closed = 1;
nodes = (
"239 -73 OFFCURVE",
"315 -15 OFFCURVE",
"315 46 CURVE SMOOTH",
"315 81 OFFCURVE",
"292 100 OFFCURVE",
"265 100 CURVE SMOOTH",
"232 100 OFFCURVE",
"202 73 OFFCURVE",
"202 38 CURVE SMOOTH",
"202 8 OFFCURVE",
"225 -10 OFFCURVE",
"253 -10 CURVE",
"248 -33 OFFCURVE",
"204 -65 OFFCURVE",
"173 -83 CURVE",
"182 -101 LINE"
);
}
);
width = 500;
}
);
unicode = 002C;
},
{
color = 3;
glyphname = exclam;
layers = (
{
components = (
{
alignment = -1;
name = dotaccentcomb;
transform = "{1, 0, 0, 1, -182, -640}";
}
);
layerId = "63C36BCE-C2CB-4BF3-9C7E-344D74934179";
paths = (
{
closed = 1;
nodes = (
"220 172 LINE",
"248 172 LINE",
"390 740 LINE",
"320 740 LINE"
);
}
);
width = 500;
}
);
unicode = 0021;
},
{
color = 6;
glyphname = exclamdown;
layers = (
{
anchors = (
{
name = _bottom;
position = "{318, 640}";
},
{
name = bottom;
position = "{276, 440}";
}
);
layerId = "63C36BCE-C2CB-4BF3-9C7E-344D74934179";
paths = (
{
closed = 1;
nodes = (
"174 -200 LINE",
"274 368 LINE",
"246 368 LINE",
"104 -200 LINE"
);
},
{
closed = 1;
nodes = (
"311 440 OFFCURVE",
"344 472 OFFCURVE",
"344 507 CURVE SMOOTH",
"344 532 OFFCURVE",
"326 550 OFFCURVE",
"299 550 CURVE SMOOTH",
"264 550 OFFCURVE",
"231 518 OFFCURVE",
"231 483 CURVE SMOOTH",
"231 458 OFFCURVE",
"250 440 OFFCURVE",
"276 440 CURVE SMOOTH"
);
}
);
width = 500;
}
);
unicode = 00A1;
},
{
color = 6;
glyphname = question;
layers = (
{
layerId = "63C36BCE-C2CB-4BF3-9C7E-344D74934179";
paths = (
{
closed = 1;
nodes = (
"223 172 LINE",
"228 197 LINE SMOOTH",
"268 397 OFFCURVE",
"514 416 OFFCURVE",
"514 597 CURVE SMOOTH",
"514 687 OFFCURVE",
"453 750 OFFCURVE",
"356 750 CURVE SMOOTH",
"238 750 OFFCURVE",
"134 655 OFFCURVE",
"134 554 CURVE SMOOTH",
"134 505 OFFCURVE",
"158 487 OFFCURVE",
"182 487 CURVE SMOOTH",
"213 487 OFFCURVE",
"240 515 OFFCURVE",
"240 547 CURVE SMOOTH",
"240 572 OFFCURVE",
"224 587 OFFCURVE",
"218 594 CURVE SMOOTH",
"186 632 LINE",
"203 668 OFFCURVE",
"251 715 OFFCURVE",
"323 715 CURVE SMOOTH",
"396 715 OFFCURVE",
"442 672 OFFCURVE",
"442 592 CURVE SMOOTH",
"442 425 OFFCURVE",
"241 403 OFFCURVE",
"200 197 CURVE SMOOTH",
"195 172 LINE"
);
},
{
closed = 1;
nodes = (
"208 -10 OFFCURVE",
"239 24 OFFCURVE",
"239 57 CURVE SMOOTH",
"239 82 OFFCURVE",
"220 100 OFFCURVE",
"194 100 CURVE SMOOTH",
"159 100 OFFCURVE",
"126 68 OFFCURVE",
"126 33 CURVE SMOOTH",
"126 8 OFFCURVE",
"144 -10 OFFCURVE",
"171 -10 CURVE SMOOTH"
);
}
);
width = 500;
}
);
unicode = 003F;
},
{
color = 6;
glyphname = questiondown;
layers = (
{
layerId = "63C36BCE-C2CB-4BF3-9C7E-344D74934179";
paths = (
{
closed = 1;
nodes = (
"283 -210 OFFCURVE",
"387 -115 OFFCURVE",
"387 -14 CURVE SMOOTH",
"387 35 OFFCURVE",
"363 53 OFFCURVE",
"339 53 CURVE SMOOTH",
"308 53 OFFCURVE",
"281 25 OFFCURVE",
"281 -7 CURVE SMOOTH",
"281 -32 OFFCURVE",
"297 -47 OFFCURVE",
"303 -54 CURVE SMOOTH",
"335 -92 LINE",
"318 -128 OFFCURVE",
"270 -175 OFFCURVE",
"198 -175 CURVE SMOOTH",
"125 -175 OFFCURVE",
"79 -132 OFFCURVE",
"79 -52 CURVE SMOOTH",
"79 115 OFFCURVE",
"280 137 OFFCURVE",
"321 343 CURVE SMOOTH",
"326 368 LINE",
"298 368 LINE",
"293 343 LINE SMOOTH",
"253 143 OFFCURVE",
"7 124 OFFCURVE",
"7 -57 CURVE SMOOTH",
"7 -147 OFFCURVE",
"68 -210 OFFCURVE",
"165 -210 CURVE SMOOTH"
);
},
{
closed = 1;
nodes = (
"362 440 OFFCURVE",
"395 472 OFFCURVE",
"395 507 CURVE SMOOTH",
"395 532 OFFCURVE",
"377 550 OFFCURVE",
"350 550 CURVE SMOOTH",
"313 550 OFFCURVE",
"282 516 OFFCURVE",
"282 483 CURVE SMOOTH",
"282 458 OFFCURVE",
"301 440 OFFCURVE",
"327 440 CURVE SMOOTH"
);
}
);
width = 500;
}
);
unicode = 00BF;
},
{
color = 6;
glyphname = asterisk;
layers = (
{
layerId = "63C36BCE-C2CB-4BF3-9C7E-344D74934179";
paths = (
{
closed = 1;
nodes = (
"326 522 LINE",
"330 522 LINE",
"412 374 LINE",
"469 415 LINE",
"353 539 LINE",
"354 543 LINE",
"520 575 LINE",
"499 641 LINE",
"346 569 LINE",
"342 572 LINE",
"363 740 LINE",
"293 740 LINE",
"314 572 LINE",
"310 569 LINE",
"157 641 LINE",
"135 575 LINE",
"302 543 LINE",
"303 539 LINE",
"187 415 LINE",
"244 374 LINE"
);
}
);
width = 500;
}
);
unicode = 002A;
},
{
color = 6;
glyphname = slash;
layers = (
{
layerId = "63C36BCE-C2CB-4BF3-9C7E-344D74934179";
paths = (
{
closed = 1;
nodes = (
"46 -173 LINE",
"559 774 LINE",
"522 774 LINE",
"9 -173 LINE"
);
}
);
width = 500;
}
);
unicode = 002F;
},
{
color = 6;
glyphname = backslash;
layers = (
{
layerId = "63C36BCE-C2CB-4BF3-9C7E-344D74934179";
paths = (
{
closed = 1;
nodes = (
"315 -173 LINE",
"204 774 LINE",
"171 774 LINE",
"282 -173 LINE"
);
}
);
width = 500;
}
);
unicode = 005C;
},
{
color = 6;
glyphname = parenleft;
layers = (
{
layerId = "63C36BCE-C2CB-4BF3-9C7E-344D74934179";
paths = (
{
closed = 1;
nodes = (
"286 -122 LINE",
"261 -84 OFFCURVE",
"228 14 OFFCURVE",
"228 143 CURVE SMOOTH",
"228 408 OFFCURVE",
"368 651 OFFCURVE",
"473 760 CURVE",
"445 760 LINE",
"335 655 OFFCURVE",
"190 418 OFFCURVE",
"190 156 CURVE SMOOTH",
"190 20 OFFCURVE",
"229 -82 OFFCURVE",
"258 -122 CURVE"
);
}
);
width = 500;
}
);
unicode = 0028;
},
{
color = 6;
glyphname = parenright;
layers = (
{
layerId = "63C36BCE-C2CB-4BF3-9C7E-344D74934179";
paths = (
{
closed = 1;
nodes = (
"64 -122 LINE",
"174 -17 OFFCURVE",
"319 220 OFFCURVE",
"319 482 CURVE SMOOTH",
"319 618 OFFCURVE",
"280 720 OFFCURVE",
"251 760 CURVE",
"223 760 LINE",
"248 722 OFFCURVE",
"281 624 OFFCURVE",
"281 495 CURVE SMOOTH",
"281 230 OFFCURVE",
"141 -13 OFFCURVE",
"36 -122 CURVE"
);
}
);
width = 500;
}
);
unicode = 0029;
},
{
color = 6;
glyphname = braceleft;
layers = (
{
layerId = "63C36BCE-C2CB-4BF3-9C7E-344D74934179";
paths = (
{
closed = 1;
nodes = (
"279 -127 LINE",
"284 -103 LINE",
"236 -103 LINE SMOOTH",
"210 -103 OFFCURVE",
"163 -103 OFFCURVE",
"163 -38 CURVE SMOOTH",
"163 60 OFFCURVE",
"270 134 OFFCURVE",
"270 242 CURVE SMOOTH",
"270 286 OFFCURVE",
"254 319 OFFCURVE",
"204 319 CURVE",
"205 326 LINE",
"272 326 OFFCURVE",
"313 377 OFFCURVE",
"313 491 CURVE SMOOTH",
"313 526 OFFCURVE",
"309 583 OFFCURVE",
"309 614 CURVE SMOOTH",
"309 748 OFFCURVE",
"386 748 OFFCURVE",
"417 748 CURVE SMOOTH",
"465 748 LINE",
"470 772 LINE",
"416 772 LINE SMOOTH",
"320 772 OFFCURVE",
"267 719 OFFCURVE",
"267 603 CURVE SMOOTH",
"267 568 OFFCURVE",
"272 514 OFFCURVE",
"272 478 CURVE SMOOTH",
"272 336 OFFCURVE",
"196 336 OFFCURVE",
"167 336 CURVE SMOOTH",
"129 336 LINE",
"123 309 LINE",
"161 309 LINE SMOOTH",
"189 309 OFFCURVE",
"230 309 OFFCURVE",
"230 242 CURVE SMOOTH",
"230 135 OFFCURVE",
"123 65 OFFCURVE",
"123 -39 CURVE SMOOTH",
"123 -127 OFFCURVE",
"199 -127 OFFCURVE",
"225 -127 CURVE SMOOTH"
);
}
);
width = 500;
}
);
unicode = 007B;
},
{
color = 6;
glyphname = braceright;
layers = (
{
layerId = "63C36BCE-C2CB-4BF3-9C7E-344D74934179";
paths = (
{
closed = 1;
nodes = (
"96 -127 LINE SMOOTH",
"192 -127 OFFCURVE",
"245 -74 OFFCURVE",
"245 42 CURVE SMOOTH",
"245 77 OFFCURVE",
"240 131 OFFCURVE",
"240 167 CURVE SMOOTH",
"240 309 OFFCURVE",
"316 309 OFFCURVE",
"345 309 CURVE SMOOTH",
"383 309 LINE",
"389 336 LINE",
"351 336 LINE SMOOTH",
"323 336 OFFCURVE",
"282 336 OFFCURVE",
"282 403 CURVE SMOOTH",
"282 510 OFFCURVE",
"389 580 OFFCURVE",
"389 684 CURVE SMOOTH",
"389 772 OFFCURVE",
"313 772 OFFCURVE",
"287 772 CURVE SMOOTH",
"233 772 LINE",
"228 748 LINE",
"276 748 LINE SMOOTH",
"302 748 OFFCURVE",
"349 748 OFFCURVE",
"349 683 CURVE SMOOTH",
"349 585 OFFCURVE",
"242 511 OFFCURVE",
"242 403 CURVE SMOOTH",
"242 359 OFFCURVE",
"258 326 OFFCURVE",
"308 326 CURVE",
"307 319 LINE",
"240 319 OFFCURVE",
"199 268 OFFCURVE",
"199 154 CURVE SMOOTH",
"199 119 OFFCURVE",
"203 62 OFFCURVE",
"203 31 CURVE SMOOTH",
"203 -103 OFFCURVE",
"126 -103 OFFCURVE",
"95 -103 CURVE SMOOTH",
"47 -103 LINE",
"42 -127 LINE"
);
}
);
width = 500;
}
);
unicode = 007D;
},
{
color = 6;
glyphname = bracketleft;
layers = (
{
layerId = "63C36BCE-C2CB-4BF3-9C7E-344D74934179";
paths = (
{
closed = 1;
nodes = (
"254 -122 LINE",
"259 -96 LINE",
"128 -96 LINE",
"305 734 LINE",
"436 734 LINE",
"441 760 LINE",
"272 760 LINE",
"85 -121 LINE",
"87 -121 LINE",
"87 -122 LINE"
);
}
);
width = 500;
}
);
unicode = 005B;
},
{
color = 6;
glyphname = bracketright;
layers = (
{
layerId = "63C36BCE-C2CB-4BF3-9C7E-344D74934179";
paths = (
{
closed = 1;
nodes = (
"247 -122 LINE",
"434 759 LINE",
"432 759 LINE",
"432 760 LINE",
"265 760 LINE",
"260 734 LINE",
"391 734 LINE",
"214 -96 LINE",
"83 -96 LINE",
"78 -122 LINE"
);
}
);
width = 500;
}
);
unicode = 005D;
},
{
color = 6;
glyphname = hyphen;
layers = (
{
layerId = "63C36BCE-C2CB-4BF3-9C7E-344D74934179";
paths = (
{
closed = 1;
nodes = (
"369 291 LINE",
"375 325 LINE",
"110 325 LINE",
"104 291 LINE"
);
}
);
width = 500;
}
);
unicode = 002D;
},
{
color = 6;
glyphname = quotedblbase;
layers = (
{
anchors = (
{
name = _top;
position = "{250, -100}";
},
{
name = top;
position = "{250, 39}";
}
);
layerId = "63C36BCE-C2CB-4BF3-9C7E-344D74934179";
paths = (
{
closed = 1;
nodes = (
"286 -73 OFFCURVE",
"362 -15 OFFCURVE",
"362 46 CURVE SMOOTH",
"362 81 OFFCURVE",
"339 100 OFFCURVE",
"312 100 CURVE SMOOTH",
"279 100 OFFCURVE",
"249 73 OFFCURVE",
"249 38 CURVE SMOOTH",
"249 8 OFFCURVE",
"272 -10 OFFCURVE",
"300 -10 CURVE",
"295 -33 OFFCURVE",
"251 -65 OFFCURVE",
"220 -83 CURVE",
"229 -101 LINE"
);
},
{
closed = 1;
nodes = (
"102 -73 OFFCURVE",
"178 -15 OFFCURVE",
"178 46 CURVE SMOOTH",
"178 81 OFFCURVE",
"155 100 OFFCURVE",
"128 100 CURVE SMOOTH",
"95 100 OFFCURVE",
"65 73 OFFCURVE",
"65 38 CURVE SMOOTH",
"65 8 OFFCURVE",
"88 -10 OFFCURVE",
"116 -10 CURVE",
"111 -33 OFFCURVE",
"67 -65 OFFCURVE",
"36 -83 CURVE",
"45 -101 LINE"
);
}
);
width = 500;
}
);
unicode = 201E;
},
{
color = 6;
glyphname = guilsinglleft;
layers = (
{
layerId = "63C36BCE-C2CB-4BF3-9C7E-344D74934179";
paths = (
{
closed = 1;
nodes = (
"353 82 LINE",
"197 275 LINE",
"353 468 LINE",
"343 480 LINE",
"123 281 LINE",
"123 269 LINE",
"343 70 LINE"
);
}
);
width = 500;
}
);
unicode = 2039;
},
{
color = 6;
glyphname = guilsinglright;
layers = (
{
layerId = "63C36BCE-C2CB-4BF3-9C7E-344D74934179";
paths = (
{
closed = 1;
nodes = (
"373 269 LINE",
"373 281 LINE",
"153 480 LINE",
"143 468 LINE",
"299 275 LINE",
"143 82 LINE",
"153 70 LINE"
);
}
);
width = 500;
}
);
unicode = 203A;
},
{
color = 6;
glyphname = quotesingle;
layers = (
{
layerId = "63C36BCE-C2CB-4BF3-9C7E-344D74934179";
paths = (
{
closed = 1;
nodes = (
"288 450 LINE",
"371 740 LINE",
"301 740 LINE",
"260 450 LINE"
);
}
);
width = 500;
}
);
unicode = 0027;
},
{
color = 6;
glyphname = cent;
layers = (
{
layerId = "63C36BCE-C2CB-4BF3-9C7E-344D74934179";
paths = (
{
closed = 1;
nodes = (
"282 -10 OFFCURVE",
"354 48 OFFCURVE",
"396 163 CURVE SMOOTH",
"408 196 LINE",
"383 204 LINE",
"368 163 LINE SMOOTH",
"355 128 OFFCURVE",
"311 25 OFFCURVE",
"215 25 CURVE SMOOTH",
"140 25 OFFCURVE",
"102 95 OFFCURVE",
"128 220 CURVE SMOOTH",
"149 320 LINE SMOOTH",
"175 443 OFFCURVE",
"246 519 OFFCURVE",
"327 519 CURVE SMOOTH",
"339 519 OFFCURVE",
"349 517 OFFCURVE",
"353 516 CURVE",
"357 488 LINE SMOOTH",
"363 444 OFFCURVE",
"384 420 OFFCURVE",
"416 420 CURVE SMOOTH",
"446 420 OFFCURVE",
"465 441 OFFCURVE",
"465 468 CURVE SMOOTH",
"465 516 OFFCURVE",
"404 550 OFFCURVE",
"335 550 CURVE SMOOTH",
"172 550 OFFCURVE",
"53 363 OFFCURVE",
"53 185 CURVE SMOOTH",
"53 67 OFFCURVE",
"106 -10 OFFCURVE",
"200 -10 CURVE SMOOTH"
);
},
{
closed = 1;
nodes = (
"193 -97 LINE",
"350 637 LINE",
"320 637 LINE",
"163 -97 LINE"
);
}
);
width = 500;
}
);
unicode = 00A2;
},
{
color = 6;
glyphname = currency;
layers = (
{
layerId = "63C36BCE-C2CB-4BF3-9C7E-344D74934179";
paths = (
{
closed = 1;
nodes = (
"178 322 LINE",
"208 299 OFFCURVE",
"246 285 OFFCURVE",
"292 285 CURVE SMOOTH",
"338 285 OFFCURVE",
"376 299 OFFCURVE",
"405 322 CURVE",
"490 237 LINE",
"512 258 LINE",
"427 342 LINE",
"456 375 OFFCURVE",
"471 418 OFFCURVE",
"471 464 CURVE SMOOTH",
"471 515 OFFCURVE",
"454 560 OFFCURVE",
"422 593 CURVE",
"512 683 LINE",
"490 704 LINE",
"399 612 LINE",
"371 633 OFFCURVE",
"335 644 OFFCURVE",
"292 644 CURVE SMOOTH",
"249 644 OFFCURVE",
"213 633 OFFCURVE",
"184 612 CURVE",
"93 704 LINE",
"72 683 LINE",
"161 593 LINE",
"130 560 OFFCURVE",
"112 515 OFFCURVE",
"112 464 CURVE SMOOTH",
"112 418 OFFCURVE",
"128 375 OFFCURVE",
"156 343 CURVE",
"72 258 LINE",
"93 237 LINE"
);
},
{
closed = 1;
nodes = (
"200 318 OFFCURVE",
"150 366 OFFCURVE",
"150 433 CURVE SMOOTH",
"150 496 LINE SMOOTH",
"150 563 OFFCURVE",
"200 611 OFFCURVE",
"292 611 CURVE SMOOTH",
"384 611 OFFCURVE",
"433 563 OFFCURVE",
"433 496 CURVE SMOOTH",
"433 433 LINE SMOOTH",
"433 366 OFFCURVE",
"384 318 OFFCURVE",
"292 318 CURVE SMOOTH"
);
}
);
width = 500;
}
);
unicode = 00A4;
},
{
color = 6;
glyphname = dollar;
layers = (
{
layerId = "63C36BCE-C2CB-4BF3-9C7E-344D74934179";
paths = (
{
closed = 1;
nodes = (
"319 -10 OFFCURVE",
"402 71 OFFCURVE",
"402 188 CURVE SMOOTH",
"402 363 OFFCURVE",
"216 443 OFFCURVE",
"216 589 CURVE SMOOTH",
"216 654 OFFCURVE",
"253 719 OFFCURVE",
"335 719 CURVE SMOOTH",
"437 719 OFFCURVE",
"443 617 OFFCURVE",
"445 572 CURVE SMOOTH",
"447 533 LINE",
"465 533 LINE",
"506 730 LINE",
"464 739 OFFCURVE",
"392 751 OFFCURVE",
"348 751 CURVE SMOOTH",
"222 751 OFFCURVE",
"153 658 OFFCURVE",
"153 557 CURVE SMOOTH",
"153 391 OFFCURVE",
"339 320 OFFCURVE",
"339 158 CURVE SMOOTH",
"339 77 OFFCURVE",
"291 24 OFFCURVE",
"203 24 CURVE SMOOTH",
"83 24 OFFCURVE",
"76 122 OFFCURVE",
"77 168 CURVE SMOOTH",
"79 246 LINE",
"61 246 LINE",
"13 22 LINE",
"46 8 OFFCURVE",
"113 -10 OFFCURVE",
"178 -10 CURVE SMOOTH"
);
},
{
closed = 1;
nodes = (
"184 -103 LINE",
"386 844 LINE",
"356 844 LINE",
"154 -103 LINE"
);
}
);
width = 500;
}
);
unicode = 0024;
},
{
color = 6;
glyphname = euro;
layers = (
{
layerId = "63C36BCE-C2CB-4BF3-9C7E-344D74934179";
paths = (
{
closed = 1;
nodes = (
"301 -10 OFFCURVE",
"353 7 OFFCURVE",
"378 20 CURVE",
"414 191 LINE",
"398 191 LINE",
"381 119 OFFCURVE",
"327 24 OFFCURVE",
"242 24 CURVE SMOOTH",
"176 24 OFFCURVE",
"141 78 OFFCURVE",
"168 205 CURVE SMOOTH",
"238 535 LINE SMOOTH",
"263 652 OFFCURVE",
"330 714 OFFCURVE",
"394 714 CURVE SMOOTH",
"474 714 OFFCURVE",
"487 620 OFFCURVE",
"474 549 CURVE",
"490 549 LINE",
"527 720 LINE",
"506 733 OFFCURVE",
"463 750 OFFCURVE",
"419 750 CURVE SMOOTH",
"232 750 OFFCURVE",
"99 457 OFFCURVE",
"99 212 CURVE SMOOTH",
"99 85 OFFCURVE",
"135 -10 OFFCURVE",
"253 -10 CURVE SMOOTH"
);
},
{
closed = 1;
nodes = (
"373 303 LINE",
"379 333 LINE",
"63 333 LINE",
"57 303 LINE"
);
},
{
closed = 1;
nodes = (
"395 408 LINE",
"402 438 LINE",
"86 438 LINE",
"79 408 LINE"
);
}
);
width = 500;
}
);
unicode = 20AC;
},
{
color = 6;
glyphname = sterling;
layers = (
{
layerId = "63C36BCE-C2CB-4BF3-9C7E-344D74934179";
paths = (
{
closed = 1;
nodes = (
"367 -120 OFFCURVE",
"407 21 OFFCURVE",
"421 82 CURVE SMOOTH",
"429 117 LINE",
"400 117 LINE",
"392 82 LINE SMOOTH",
"380 31 OFFCURVE",
"358 -56 OFFCURVE",
"265 -56 CURVE SMOOTH",
"151 -56 OFFCURVE",
"129 75 OFFCURVE",
"53 75 CURVE SMOOTH",
"-9 75 OFFCURVE",
"-22 -10 OFFCURVE",
"58 -10 CURVE SMOOTH",
"121 -10 OFFCURVE",
"273 41 OFFCURVE",
"273 257 CURVE SMOOTH",
"273 336 OFFCURVE",
"253 432 OFFCURVE",
"253 510 CURVE SMOOTH",
"253 648 OFFCURVE",
"306 737 OFFCURVE",
"386 724 CURVE",
"403 674 LINE SMOOTH",
"408 660 OFFCURVE",
"418 628 OFFCURVE",
"454 628 CURVE SMOOTH",
"486 628 OFFCURVE",
"507 652 OFFCURVE",
"507 681 CURVE SMOOTH",
"507 723 OFFCURVE",
"462 750 OFFCURVE",
"388 750 CURVE SMOOTH",
"255 750 OFFCURVE",
"184 662 OFFCURVE",
"184 501 CURVE SMOOTH",
"184 424 OFFCURVE",
"202 334 OFFCURVE",
"202 251 CURVE SMOOTH",
"202 85 OFFCURVE",
"125 15 OFFCURVE",
"67 9 CURVE",
"114 3 LINE",
"100 26 LINE",
"118 -37 OFFCURVE",
"173 -120 OFFCURVE",
"255 -120 CURVE SMOOTH"
);
},
{
closed = 1;
nodes = (
"439 362 LINE",
"446 394 LINE",
"73 394 LINE",
"66 362 LINE"
);
}
);
width = 500;
}
);
unicode = 00A3;
},
{
color = 6;
glyphname = yen;
layers = (
{
layerId = "63C36BCE-C2CB-4BF3-9C7E-344D74934179";
paths = (
{
closed = 1;
nodes = (
"385 0 LINE",
"392 34 LINE",
"248 34 LINE",
"307 311 LINE",
"435 311 LINE",
"442 343 LINE",
"314 343 LINE",
"314 345 LINE",
"341 389 LINE",
"452 389 LINE",
"458 421 LINE",
"359 421 LINE",
"529 706 LINE",
"595 706 LINE",
"602 740 LINE",
"439 740 LINE",
"432 706 LINE",
"494 706 LINE",
"304 391 LINE",
"237 706 LINE",
"333 706 LINE",
"340 740 LINE",
"99 740 LINE",
"92 706 LINE",
"170 706 LINE",
"228 421 LINE",
"124 421 LINE",
"118 389 LINE",
"236 389 LINE",
"244 345 LINE",
"244 343 LINE",
"108 343 LINE",
"101 311 LINE",
"237 311 LINE",
"178 34 LINE",
"34 34 LINE",
"27 0 LINE"
);
}
);
width = 500;
}
);
unicode = 00A5;
},
{
color = 6;
glyphname = divisionslash;
layers = (
{
layerId = "63C36BCE-C2CB-4BF3-9C7E-344D74934179";
paths = (
{
closed = 1;
nodes = (
"51 -133 LINE",
"504 814 LINE",
"467 814 LINE",
"14 -133 LINE"
);
}
);
width = 500;
}
);
unicode = 2215;
},
{
color = 6;
glyphname = plus;
layers = (
{
layerId = "63C36BCE-C2CB-4BF3-9C7E-344D74934179";
paths = (
{
closed = 1;
nodes = (
"260 150 LINE",
"260 291 LINE",
"401 291 LINE",
"401 325 LINE",
"260 325 LINE",
"260 467 LINE",
"226 467 LINE",
"226 325 LINE",
"84 325 LINE",
"84 291 LINE",
"226 291 LINE",
"226 150 LINE"
);
}
);
width = 500;
}
);
unicode = 002B;
},
{
color = 6;
glyphname = divide;
layers = (
{
layerId = "63C36BCE-C2CB-4BF3-9C7E-344D74934179";
paths = (
{
closed = 1;
nodes = (
"468 345 LINE",
"468 377 LINE",
"72 377 LINE",
"72 345 LINE"
);
},
{
closed = 1;
nodes = (
"301 175 OFFCURVE",
"325 199 OFFCURVE",
"325 230 CURVE SMOOTH",
"325 261 OFFCURVE",
"301 285 OFFCURVE",
"270 285 CURVE SMOOTH",
"239 285 OFFCURVE",
"215 261 OFFCURVE",
"215 230 CURVE SMOOTH",
"215 199 OFFCURVE",
"239 175 OFFCURVE",
"270 175 CURVE SMOOTH"
);
},
{
closed = 1;
nodes = (
"301 447 OFFCURVE",
"325 471 OFFCURVE",
"325 502 CURVE SMOOTH",
"325 533 OFFCURVE",
"301 557 OFFCURVE",
"270 557 CURVE SMOOTH",
"239 557 OFFCURVE",
"215 533 OFFCURVE",
"215 502 CURVE SMOOTH",
"215 471 OFFCURVE",
"239 447 OFFCURVE",
"270 447 CURVE SMOOTH"
);
}
);
width = 500;
}
);
unicode = 00F7;
},
{
color = 6;
glyphname = equal;
layers = (
{
layerId = "63C36BCE-C2CB-4BF3-9C7E-344D74934179";
paths = (
{
closed = 1;
nodes = (
"396.248 342 LINE",
"396.248 376 LINE",
"101.882 376 LINE",
"101.882 342 LINE"
);
},
{
closed = 1;
nodes = (
"396.246 214 LINE",
"396.246 248 LINE",
"101.882 248 LINE",
"101.882 214 LINE"
);
}
);
width = 500;
}
);
unicode = 003D;
},
{
color = 6;
glyphname = notequal;
layers = (
{
layerId = "63C36BCE-C2CB-4BF3-9C7E-344D74934179";
paths = (
{
closed = 1;
nodes = (
"184 133 LINE",
"351 457 LINE",
"314 457 LINE",
"147 133 LINE"
);
},
{
closed = 1;
nodes = (
"396 214 LINE",
"396 248 LINE",
"102 248 LINE",
"102 214 LINE"
);
},
{
closed = 1;
nodes = (
"396 342 LINE",
"396 376 LINE",
"102 376 LINE",
"102 342 LINE"
);
}
);
width = 500;
}
);
unicode = 2260;
},
{
color = 6;
glyphname = less;
layers = (
{
layerId = "63C36BCE-C2CB-4BF3-9C7E-344D74934179";
paths = (
{
closed = 1;
nodes = (
"425 99 LINE",
"154 308 LINE",
"425 517 LINE",
"417 531 LINE",
"60 316 LINE",
"60 300 LINE",
"417 85 LINE"
);
}
);
width = 500;
}
);
unicode = 003C;
},
{
color = 6;
glyphname = greaterequal;
layers = (
{
layerId = "63C36BCE-C2CB-4BF3-9C7E-344D74934179";
paths = (
{
closed = 1;
nodes = (
"439 350 LINE",
"439 366 LINE",
"82 531 LINE",
"74 517 LINE",
"325 358 LINE",
"74 199 LINE",
"82 185 LINE"
);
},
{
closed = 1;
nodes = (
"439 87 LINE",
"439 117 LINE",
"52 117 LINE",
"52 87 LINE"
);
}
);
width = 500;
}
);
unicode = 2265;
},
{
color = 6;
glyphname = lessequal;
layers = (
{
layerId = "63C36BCE-C2CB-4BF3-9C7E-344D74934179";
paths = (
{
closed = 1;
nodes = (
"415 199 LINE",
"164 358 LINE",
"415 517 LINE",
"407 531 LINE",
"50 366 LINE",
"50 350 LINE",
"407 185 LINE"
);
},
{
closed = 1;
nodes = (
"437 87 LINE",
"437 117 LINE",
"50 117 LINE",
"50 87 LINE"
);
}
);
width = 500;
}
);
unicode = 2264;
},
{
color = 6;
glyphname = plusminus;
layers = (
{
layerId = "63C36BCE-C2CB-4BF3-9C7E-344D74934179";
paths = (
{
closed = 1;
nodes = (
"261 235 LINE",
"261 333 LINE",
"437 333 LINE",
"437 363 LINE",
"261 363 LINE",
"261 462 LINE",
"227 462 LINE",
"227 363 LINE",
"50 363 LINE",
"50 333 LINE",
"227 333 LINE",
"227 235 LINE"
);
},
{
closed = 1;
nodes = (
"437 87 LINE",
"437 117 LINE",
"50 117 LINE",
"50 87 LINE"
);
}
);
width = 500;
}
);
unicode = 00B1;
},
{
color = 6;
glyphname = approxequal;
layers = (
{
layerId = "63C36BCE-C2CB-4BF3-9C7E-344D74934179";
paths = (
{
closed = 1;
nodes = (
"435 341 OFFCURVE",
"447 415 OFFCURVE",
"451 434 CURVE",
"438 434 LINE",
"432 406 OFFCURVE",
"411 388 OFFCURVE",
"372 388 CURVE SMOOTH",
"307 388 OFFCURVE",
"258 439 OFFCURVE",
"190 439 CURVE SMOOTH",
"109 439 OFFCURVE",
"97 365 OFFCURVE",
"93 346 CURVE",
"106 346 LINE",
"112 374 OFFCURVE",
"134 392 OFFCURVE",
"172 392 CURVE SMOOTH",
"237 392 OFFCURVE",
"286 341 OFFCURVE",
"354 341 CURVE SMOOTH"
);
},
{
closed = 1;
nodes = (
"403 189 OFFCURVE",
"415 263 OFFCURVE",
"419 282 CURVE",
"406 282 LINE",
"400 254 OFFCURVE",
"378 236 OFFCURVE",
"340 236 CURVE SMOOTH",
"275 236 OFFCURVE",
"226 287 OFFCURVE",
"158 287 CURVE SMOOTH",
"77 287 OFFCURVE",
"65 213 OFFCURVE",
"61 194 CURVE",
"74 194 LINE",
"80 222 OFFCURVE",
"101 240 OFFCURVE",
"140 240 CURVE SMOOTH",
"205 240 OFFCURVE",
"254 189 OFFCURVE",
"322 189 CURVE SMOOTH"
);
}
);
width = 500;
}
);
unicode = 2248;
},
{
color = 6;
glyphname = asciitilde;
layers = (
{
layerId = "63C36BCE-C2CB-4BF3-9C7E-344D74934179";
paths = (
{
closed = 1;
nodes = (
"435 588 OFFCURVE",
"450 660 OFFCURVE",
"455 681 CURVE",
"442 681 LINE",
"436 653 OFFCURVE",
"424 635 OFFCURVE",
"407 635 CURVE SMOOTH",
"377 635 OFFCURVE",
"309 686 OFFCURVE",
"267 686 CURVE SMOOTH",
"217 686 OFFCURVE",
"200 613 OFFCURVE",
"196 593 CURVE",
"209 593 LINE",
"215 621 OFFCURVE",
"226 639 OFFCURVE",
"244 639 CURVE SMOOTH",
"274 639 OFFCURVE",
"342 588 OFFCURVE",
"384 588 CURVE SMOOTH"
);
}
);
width = 500;
}
);
unicode = 007E;
},
{
color = 6;
glyphname = logicalnot;
layers = (
{
layerId = "63C36BCE-C2CB-4BF3-9C7E-344D74934179";
paths = (
{
closed = 1;
nodes = (
"415 341 LINE",
"415 375 LINE",
"85 375 LINE",
"85 341 LINE"
);
},
{
closed = 1;
nodes = (
"415 197 LINE",
"415 375 LINE",
"383 375 LINE",
"383 197 LINE"
);
}
);
width = 500;
}
);
unicode = 00AC;
},
{
color = 6;
glyphname = asciicircum;
layers = (
{
layerId = "63C36BCE-C2CB-4BF3-9C7E-344D74934179";
paths = (
{
closed = 1;
nodes = (
"216 510 LINE",
"330 656 LINE",
"382 510 LINE",
"394 510 LINE",
"370 750 LINE",
"330 750 LINE",
"204 510 LINE"
);
}
);
width = 500;
}
);
unicode = 005E;
},
{
color = 6;
glyphname = micro;
layers = (
{
guideLines = (
{
angle = 71.5337;
position = "{93, 204}";
},
{
angle = 251.778;
position = "{202, 338}";
}
);
layerId = "63C36BCE-C2CB-4BF3-9C7E-344D74934179";
paths = (
{
closed = 1;
nodes = (
"26 -190 OFFCURVE",
"52 -116 OFFCURVE",
"67 -70 CURVE SMOOTH",
"72 -55 LINE",
"68 40 LINE",
"81 40 LINE SMOOTH",
"80 19 OFFCURVE",
"93 -10 OFFCURVE",
"132 -10 CURVE SMOOTH",
"226 -10 OFFCURVE",
"285 136 OFFCURVE",
"322 247 CURVE",
"337 247 LINE",
"281 77 LINE SMOOTH",
"261 17 OFFCURVE",
"293 -10 OFFCURVE",
"329 -10 CURVE SMOOTH",
"376 -10 OFFCURVE",
"407 39 OFFCURVE",
"450 97 CURVE SMOOTH",
"473 128 LINE",
"456 141 LINE",
"430 106 LINE SMOOTH",
"400 66 OFFCURVE",
"383 42 OFFCURVE",
"362 42 CURVE SMOOTH",
"341 42 OFFCURVE",
"346 65 OFFCURVE",
"350 84 CURVE SMOOTH",
"447 540 LINE",
"378 540 LINE",
"300 175 OFFCURVE",
"234 43 OFFCURVE",
"165 43 CURVE SMOOTH",
"128 43 OFFCURVE",
"117 81 OFFCURVE",
"135 136 CURVE SMOOTH",
"272 550 LINE",
"248 550 LINE",
"199 525 LINE",
"74 512 LINE",
"69 488 LINE",
"188 488 LINE",
"1 -70 LINE SMOOTH",
"-17 -124 OFFCURVE",
"-27 -165 OFFCURVE",
"-63 -165 CURVE SMOOTH",
"-71 -165 OFFCURVE",
"-77 -163 OFFCURVE",
"-79 -162 CURVE",
"-86 -128 LINE SMOOTH",
"-92 -101 OFFCURVE",
"-105 -60 OFFCURVE",
"-144 -60 CURVE SMOOTH",
"-172 -60 OFFCURVE",
"-191 -81 OFFCURVE",
"-191 -108 CURVE SMOOTH",
"-191 -152 OFFCURVE",
"-140 -190 OFFCURVE",
"-71 -190 CURVE SMOOTH"
);
}
);
width = 500;
}
);
unicode = 00B5;
},
{
color = 3;
glyphname = percent;
layers = (
{
components = (
{
name = doubleo;
transform = "{1, 0, 0, 1, -60, 0}";
}
);
layerId = "63C36BCE-C2CB-4BF3-9C7E-344D74934179";
paths = (
{
closed = 1;
nodes = (
"531 651 LINE",
"506 669 LINE",
"52 130 LINE",
"77 112 LINE"
);
}
);
width = 500;
}
);
unicode = 0025;
},
{
color = 6;
glyphname = perthousand;
layers = (
{
layerId = "63C36BCE-C2CB-4BF3-9C7E-344D74934179";
paths = (
{
closed = 1;
nodes = (
"464 519 LINE",
"449 545 LINE",
"34 269 LINE",
"49 242 LINE"
);
},
{
closed = 1;
nodes = (
"118 13 OFFCURVE",
"92 33 OFFCURVE",
"106 95 CURVE SMOOTH",
"117 145 LINE SMOOTH",
"131 207 OFFCURVE",
"161 227 OFFCURVE",
"190 227 CURVE SMOOTH",
"219 227 OFFCURVE",
"245 207 OFFCURVE",
"231 145 CURVE SMOOTH",
"220 95 LINE SMOOTH",
"206 33 OFFCURVE",
"176 13 OFFCURVE",
"147 13 CURVE SMOOTH"
);
},
{
closed = 1;
nodes = (
"180 -10 OFFCURVE",
"210 7 OFFCURVE",
"234 32 CURVE",
"246 7 OFFCURVE",
"271 -10 OFFCURVE",
"309 -10 CURVE SMOOTH",
"456 -10 OFFCURVE",
"512 250 OFFCURVE",
"364 250 CURVE SMOOTH",
"327 250 OFFCURVE",
"294 233 OFFCURVE",
"271 208 CURVE",
"258 233 OFFCURVE",
"234 250 OFFCURVE",
"196 250 CURVE SMOOTH",
"48 250 OFFCURVE",
"-7 -10 OFFCURVE",
"141 -10 CURVE SMOOTH"
);
},
{
closed = 1;
nodes = (
"286 13 OFFCURVE",
"260 33 OFFCURVE",
"274 95 CURVE SMOOTH",
"285 145 LINE SMOOTH",
"299 207 OFFCURVE",
"329 227 OFFCURVE",
"358 227 CURVE SMOOTH",
"387 227 OFFCURVE",
"413 207 OFFCURVE",
"399 145 CURVE SMOOTH",
"388 95 LINE SMOOTH",
"374 33 OFFCURVE",
"344 13 OFFCURVE",
"315 13 CURVE SMOOTH"
);
},
{
closed = 1;
nodes = (
"327 490 OFFCURVE",
"382 750 OFFCURVE",
"234 750 CURVE SMOOTH",
"87 750 OFFCURVE",
"31 490 OFFCURVE",
"179 490 CURVE SMOOTH"
);
},
{
closed = 1;
nodes = (
"156 513 OFFCURVE",
"130 533 OFFCURVE",
"144 595 CURVE SMOOTH",
"155 645 LINE SMOOTH",
"169 707 OFFCURVE",
"201 727 OFFCURVE",
"229 727 CURVE SMOOTH",
"257 727 OFFCURVE",
"283 707 OFFCURVE",
"269 645 CURVE SMOOTH",
"258 595 LINE SMOOTH",
"244 533 OFFCURVE",
"214 513 OFFCURVE",
"185 513 CURVE SMOOTH"
);
}
);
width = 500;
}
);
unicode = 2030;
},
{
color = 6;
glyphname = lozenge;
layers = (
{
layerId = "63C36BCE-C2CB-4BF3-9C7E-344D74934179";
paths = (
{
closed = 1;
nodes = (
"287 -32 LINE",
"466 371 LINE",
"287 774 LINE",
"254 774 LINE",
"75 371 LINE",
"254 -32 LINE"
);
},
{
closed = 1;
nodes = (
"108 371 LINE",
"271 737 LINE",
"433 371 LINE",
"271 5 LINE"
);
}
);
width = 500;
}
);
unicode = 25CA;
},
{
color = 6;
glyphname = at;
layers = (
{
guideLines = (
{
position = "{677, 155}";
},
{
angle = 78.0849;
position = "{538, 514}";
},
{
angle = 257.9938;
position = "{508, 518}";
},
{
angle = 78.0848;
position = "{107, 454}";
},
{
angle = 257.9938;
position = "{77, 458}";
}
);
layerId = "63C36BCE-C2CB-4BF3-9C7E-344D74934179";
paths = (
{
closed = 1;
nodes = (
"307 -10 OFFCURVE",
"385 42 OFFCURVE",
"417 81 CURVE",
"400 98 LINE",
"371 64 OFFCURVE",
"301 18 OFFCURVE",
"217 18 CURVE SMOOTH",
"103 18 OFFCURVE",
"32 102 OFFCURVE",
"61 238 CURVE SMOOTH",
"109 464 LINE SMOOTH",
"144 629 OFFCURVE",
"233 722 OFFCURVE",
"359 722 CURVE SMOOTH",
"478 722 OFFCURVE",
"534 640 OFFCURVE",
"510 528 CURVE SMOOTH",
"449 241 LINE SMOOTH",
"445 221 OFFCURVE",
"436 194 OFFCURVE",
"410 194 CURVE SMOOTH",
"390 194 OFFCURVE",
"380 209 OFFCURVE",
"387 241 CURVE SMOOTH",
"456 565 LINE",
"428 565 LINE",
"393 550 LINE",
"387 556 OFFCURVE",
"368 565 OFFCURVE",
"341 565 CURVE SMOOTH",
"221 565 OFFCURVE",
"131 406 OFFCURVE",
"131 270 CURVE SMOOTH",
"131 191 OFFCURVE",
"161 155 OFFCURVE",
"204 155 CURVE SMOOTH",
"287 155 OFFCURVE",
"335 293 OFFCURVE",
"353 348 CURVE SMOOTH",
"366 387 LINE",
"376 387 LINE",
"339 256 LINE SMOOTH",
"322 195 OFFCURVE",
"341 155 OFFCURVE",
"391 155 CURVE SMOOTH",
"440 155 OFFCURVE",
"470 192 OFFCURVE",
"480 240 CURVE SMOOTH",
"540 524 LINE SMOOTH",
"569 660 OFFCURVE",
"493 750 OFFCURVE",
"362 750 CURVE SMOOTH",
"209 750 OFFCURVE",
"113 627 OFFCURVE",
"79 468 CURVE SMOOTH",
"31 242 LINE SMOOTH",
"-2 85 OFFCURVE",
"82 -10 OFFCURVE",
"212 -10 CURVE SMOOTH"
);
},
{
closed = 1;
nodes = (
"189 186 OFFCURVE",
"181 221 OFFCURVE",
"191 268 CURVE SMOOTH",
"229 441 LINE SMOOTH",
"243 504 OFFCURVE",
"274 539 OFFCURVE",
"324 539 CURVE SMOOTH",
"356 539 OFFCURVE",
"377 524 OFFCURVE",
"384 512 CURVE",
"365 419 OFFCURVE",
"290 186 OFFCURVE",
"219 186 CURVE SMOOTH"
);
}
);
width = 500;
}
);
unicode = 0040;
},
{
color = 6;
glyphname = ampersand;
layers = (
{
guideLines = (
{
angle = 31.3571;
position = "{150, 440}";
},
{
angle = -55.9896;
position = "{367, 192}";
}
);
layerId = "63C36BCE-C2CB-4BF3-9C7E-344D74934179";
paths = (
{
closed = 1;
nodes = (
"504 0 LINE",
"509 28 LINE",
"476 33 OFFCURVE",
"459 45 OFFCURVE",
"443 79 CURVE SMOOTH",
"257 481 LINE SMOOTH",
"238 522 OFFCURVE",
"219 557 OFFCURVE",
"219 603 CURVE SMOOTH",
"219 672 OFFCURVE",
"263 722 OFFCURVE",
"319 722 CURVE SMOOTH",
"360 722 OFFCURVE",
"385 696 OFFCURVE",
"385 650 CURVE SMOOTH",
"385 558 OFFCURVE",
"287 507 OFFCURVE",
"285 506 CURVE SMOOTH",
"243 483 LINE",
"255 459 LINE",
"294 481 LINE SMOOTH",
"326 499 OFFCURVE",
"439 558 OFFCURVE",
"439 654 CURVE SMOOTH",
"439 713 OFFCURVE",
"398 750 OFFCURVE",
"330 750 CURVE SMOOTH",
"229 750 OFFCURVE",
"158 668 OFFCURVE",
"158 574 CURVE SMOOTH",
"158 527 OFFCURVE",
"175 488 OFFCURVE",
"193 450 CURVE SMOOTH",
"401 0 LINE"
);
},
{
closed = 1;
nodes = (
"249 -10 OFFCURVE",
"319 31 OFFCURVE",
"371 99 CURVE",
"356 130 LINE",
"316 67 OFFCURVE",
"255 22 OFFCURVE",
"184 22 CURVE SMOOTH",
"105 22 OFFCURVE",
"65 77 OFFCURVE",
"82 157 CURVE SMOOTH",
"112 298 LINE SMOOTH",
"126 362 OFFCURVE",
"159 403 OFFCURVE",
"212 435 CURVE",
"200 459 LINE",
"126 416 OFFCURVE",
"22 311 OFFCURVE",
"22 159 CURVE SMOOTH",
"22 50 OFFCURVE",
"75 -10 OFFCURVE",
"170 -10 CURVE SMOOTH"
);
},
{
closed = 1;
nodes = (
"416 177 OFFCURVE",
"429 211 OFFCURVE",
"437 250 CURVE SMOOTH",
"472 414 LINE",
"440 414 LINE",
"405 251 LINE SMOOTH",
"399 224 OFFCURVE",
"388 197 OFFCURVE",
"383 181 CURVE",
"399 145 LINE"
);
},
{
closed = 1;
nodes = (
"542 414 LINE",
"546 442 LINE",
"382 442 LINE",
"378 414 LINE"
);
}
);
width = 500;
}
);
unicode = 0026;
},
{
color = 6;
glyphname = paragraph;
layers = (
{
guideLines = (
{
position = "{319, 290}";
}
);
layerId = "63C36BCE-C2CB-4BF3-9C7E-344D74934179";
paths = (
{
closed = 1;
nodes = (
"316 -189 OFFCURVE",
"338 -31 OFFCURVE",
"354 43 CURVE SMOOTH",
"496 706 LINE",
"540 706 LINE",
"547 740 LINE",
"406 740 LINE SMOOTH",
"239 740 OFFCURVE",
"107 612 OFFCURVE",
"107 469 CURVE SMOOTH",
"107 364 OFFCURVE",
"179 290 OFFCURVE",
"310 290 CURVE SMOOTH",
"340 290 LINE",
"429 706 LINE",
"466 706 LINE",
"324 43 LINE SMOOTH",
"308 -31 OFFCURVE",
"285 -161 OFFCURVE",
"154 -161 CURVE SMOOTH",
"133 -161 OFFCURVE",
"116 -158 OFFCURVE",
"109 -155 CURVE",
"102 -128 LINE SMOOTH",
"95 -101 OFFCURVE",
"83 -60 OFFCURVE",
"44 -60 CURVE SMOOTH",
"16 -60 OFFCURVE",
"-3 -81 OFFCURVE",
"-3 -108 CURVE SMOOTH",
"-3 -157 OFFCURVE",
"61 -189 OFFCURVE",
"140 -189 CURVE SMOOTH"
);
}
);
width = 500;
}
);
unicode = 00B6;
},
{
color = 6;
glyphname = section;
layers = (
{
layerId = "63C36BCE-C2CB-4BF3-9C7E-344D74934179";
paths = (
{
closed = 1;
nodes = (
"296 -171 OFFCURVE",
"374 -90 OFFCURVE",
"374 4 CURVE SMOOTH",
"374 53 OFFCURVE",
"353 96 OFFCURVE",
"324 137 CURVE",
"324 148 LINE",
"408 170 OFFCURVE",
"462 232 OFFCURVE",
"462 312 CURVE SMOOTH",
"462 479 OFFCURVE",
"230 584 OFFCURVE",
"230 725 CURVE SMOOTH",
"230 776 OFFCURVE",
"263 812 OFFCURVE",
"322 812 CURVE SMOOTH",
"405 812 OFFCURVE",
"457 740 OFFCURVE",
"426 607 CURVE SMOOTH",
"423 594 LINE",
"475 594 LINE",
"528 845 LINE",
"493 845 LINE",
"469 734 LINE",
"461 734 LINE",
"456 773 OFFCURVE",
"420 845 OFFCURVE",
"321 845 CURVE SMOOTH",
"224 845 OFFCURVE",
"157 776 OFFCURVE",
"157 692 CURVE SMOOTH",
"157 643 OFFCURVE",
"180 601 OFFCURVE",
"213 559 CURVE",
"213 548 LINE",
"127 531 OFFCURVE",
"70 465 OFFCURVE",
"70 385 CURVE SMOOTH",
"70 223 OFFCURVE",
"302 127 OFFCURVE",
"302 -27 CURVE SMOOTH",
"302 -94 OFFCURVE",
"258 -137 OFFCURVE",
"190 -137 CURVE SMOOTH",
"54 -137 OFFCURVE",
"63 37 OFFCURVE",
"75 95 CURVE SMOOTH",
"83 134 LINE",
"31 134 LINE",
"-32 -161 LINE",
"3 -161 LINE",
"31 -28 LINE",
"39 -28 LINE",
"38 -71 OFFCURVE",
"70 -171 OFFCURVE",
"187 -171 CURVE SMOOTH"
);
},
{
closed = 1;
nodes = (
"235 251 OFFCURVE",
"143 327 OFFCURVE",
"143 416 CURVE SMOOTH",
"143 475 OFFCURVE",
"183 518 OFFCURVE",
"238 525 CURVE",
"305 448 OFFCURVE",
"389 375 OFFCURVE",
"389 284 CURVE SMOOTH",
"389 228 OFFCURVE",
"356 183 OFFCURVE",
"303 166 CURVE"
);
}
);
width = 500;
}
);
unicode = 00A7;
},
{
color = 3;
glyphname = copyright;
layers = (
{
components = (
{
name = smallc;
transform = "{1, 0, 0, 1, -22, 85}";
}
);
layerId = "63C36BCE-C2CB-4BF3-9C7E-344D74934179";
paths = (
{
closed = 1;
nodes = (
"404 -10 OFFCURVE",
"538 275 OFFCURVE",
"538 496 CURVE SMOOTH",
"538 636 OFFCURVE",
"484 750 OFFCURVE",
"362 750 CURVE SMOOTH",
"153 750 OFFCURVE",
"20 465 OFFCURVE",
"20 244 CURVE SMOOTH",
"20 104 OFFCURVE",
"73 -10 OFFCURVE",
"195 -10 CURVE SMOOTH"
);
},
{
closed = 1;
nodes = (
"94 18 OFFCURVE",
"49 119 OFFCURVE",
"49 244 CURVE SMOOTH",
"49 450 OFFCURVE",
"172 722 OFFCURVE",
"359 722 CURVE SMOOTH",
"463 722 OFFCURVE",
"509 621 OFFCURVE",
"509 496 CURVE SMOOTH",
"509 290 OFFCURVE",
"386 18 OFFCURVE",
"198 18 CURVE SMOOTH"
);
}
);
width = 500;
}
);
unicode = 00A9;
},
{
color = 3;
glyphname = registered;
layers = (
{
components = (
{
name = smallr;
transform = "{1, 0, 0, 1, -40, -81}";
}
);
layerId = "63C36BCE-C2CB-4BF3-9C7E-344D74934179";
paths = (
{
closed = 1;
nodes = (
"545 293 OFFCURVE",
"628 740 OFFCURVE",
"356 740 CURVE SMOOTH",
"75 740 OFFCURVE",
"-8 293 OFFCURVE",
"263 293 CURVE SMOOTH"
);
},
{
closed = 1;
nodes = (
"30 317 OFFCURVE",
"105 716 OFFCURVE",
"355 716 CURVE SMOOTH",
"591 716 OFFCURVE",
"513 317 OFFCURVE",
"265 317 CURVE SMOOTH"
);
}
);
width = 500;
}
);
unicode = 00AE;
},
{
color = 6;
glyphname = trademark;
layers = (
{
layerId = "63C36BCE-C2CB-4BF3-9C7E-344D74934179";
paths = (
{
closed = 1;
nodes = (
"348 438 LINE",
"351 453 LINE",
"322 455 LINE",
"365 657 LINE",
"370 438 LINE",
"393 438 LINE",
"493 657 LINE",
"450 455 LINE",
"427 453 LINE",
"424 438 LINE",
"505 438 LINE",
"508 453 LINE",
"482 455 LINE",
"540 732 LINE",
"568 734 LINE",
"570 746 LINE",
"513 746 LINE",
"401 498 LINE",
"394 746 LINE",
"342 746 LINE",
"340 734 LINE",
"361 732 LINE",
"303 455 LINE",
"280 453 LINE",
"277 438 LINE"
);
},
{
closed = 1;
nodes = (
"236 438 LINE",
"239 453 LINE",
"185 459 LINE",
"243 728 LINE",
"263 728 LINE SMOOTH",
"283 728 OFFCURVE",
"292 718 OFFCURVE",
"291 698 CURVE SMOOTH",
"288 656 LINE",
"300 656 LINE",
"320 750 LINE",
"313 750 LINE",
"299 746 LINE",
"157 746 LINE",
"146 750 LINE",
"138 750 LINE",
"118 656 LINE",
"131 656 LINE",
"146 698 LINE SMOOTH",
"153 718 OFFCURVE",
"167 728 OFFCURVE",
"187 728 CURVE SMOOTH",
"208 728 LINE",
"150 459 LINE",
"94 453 LINE",
"91 438 LINE"
);
}
);
width = 500;
}
);
unicode = 2122;
},
{
color = 6;
glyphname = degree;
layers = (
{
layerId = "63C36BCE-C2CB-4BF3-9C7E-344D74934179";
paths = (
{
closed = 1;
nodes = (
"386 540 OFFCURVE",
"426 587 OFFCURVE",
"426 645 CURVE SMOOTH",
"426 703 OFFCURVE",
"386 750 OFFCURVE",
"321 750 CURVE SMOOTH",
"256 750 OFFCURVE",
"216 703 OFFCURVE",
"216 645 CURVE SMOOTH",
"216 587 OFFCURVE",
"256 540 OFFCURVE",
"321 540 CURVE SMOOTH"
);
},
{
closed = 1;
nodes = (
"274 570 OFFCURVE",
"249 603 OFFCURVE",
"249 645 CURVE SMOOTH",
"249 687 OFFCURVE",
"274 720 OFFCURVE",
"321 720 CURVE SMOOTH",
"368 720 OFFCURVE",
"393 687 OFFCURVE",
"393 645 CURVE SMOOTH",
"393 603 OFFCURVE",
"368 570 OFFCURVE",
"321 570 CURVE SMOOTH"
);
}
);
width = 500;
}
);
unicode = 00B0;
},
{
color = 6;
glyphname = bar;
layers = (
{
layerId = "63C36BCE-C2CB-4BF3-9C7E-344D74934179";
paths = (
{
closed = 1;
nodes = (
"171 -173 LINE",
"372 774 LINE",
"338 774 LINE",
"137 -173 LINE"
);
}
);
width = 500;
}
);
unicode = 007C;
},
{
color = 6;
glyphname = brokenbar;
layers = (
{
layerId = "63C36BCE-C2CB-4BF3-9C7E-344D74934179";
paths = (
{
closed = 1;
nodes = (
"291 391 LINE",
"372 774 LINE",
"338 774 LINE",
"257 391 LINE"
);
},
{
closed = 1;
nodes = (
"171 -173 LINE",
"252 210 LINE",
"218 210 LINE",
"137 -173 LINE"
);
}
);
width = 500;
}
);
unicode = 00A6;
},
{
color = 6;
glyphname = dagger;
layers = (
{
layerId = "63C36BCE-C2CB-4BF3-9C7E-344D74934179";
paths = (
{
closed = 1;
nodes = (
"176 -112 LINE",
"225 -8 OFFCURVE",
"239 62 OFFCURVE",
"249 121 CURVE SMOOTH",
"326 582 LINE",
"332 585 LINE",
"335 578 OFFCURVE",
"347 569 OFFCURVE",
"373 569 CURVE SMOOTH",
"433 569 LINE SMOOTH",
"465 569 OFFCURVE",
"472 549 OFFCURVE",
"467 526 CURVE SMOOTH",
"451 450 LINE",
"479 450 LINE",
"520 642 LINE",
"491 642 LINE",
"475 568 LINE",
"471 568 LINE",
"473 597 OFFCURVE",
"461 633 OFFCURVE",
"409 633 CURVE SMOOTH",
"373 633 OFFCURVE",
"345 614 OFFCURVE",
"335 600 CURVE",
"330 604 LINE",
"337 620 LINE SMOOTH",
"375 707 OFFCURVE",
"385 724 OFFCURVE",
"385 742 CURVE SMOOTH",
"385 762 OFFCURVE",
"373 773 OFFCURVE",
"357 773 CURVE SMOOTH",
"332 773 OFFCURVE",
"309 753 OFFCURVE",
"309 696 CURVE SMOOTH",
"309 679 OFFCURVE",
"311 655 OFFCURVE",
"311 620 CURVE SMOOTH",
"311 604 LINE",
"305 600 LINE",
"300 614 OFFCURVE",
"281 633 OFFCURVE",
"245 633 CURVE SMOOTH",
"194 633 OFFCURVE",
"165 597 OFFCURVE",
"155 568 CURVE",
"151 568 LINE",
"167 642 LINE",
"138 642 LINE",
"97 450 LINE",
"125 450 LINE",
"141 526 LINE SMOOTH",
"146 549 OFFCURVE",
"161 569 OFFCURVE",
"193 569 CURVE SMOOTH",
"253 569 LINE SMOOTH",
"279 569 OFFCURVE",
"296 578 OFFCURVE",
"302 585 CURVE",
"306 582 LINE",
"187 121 LINE SMOOTH",
"166 41 OFFCURVE",
"158 -25 OFFCURVE",
"162 -112 CURVE"
);
}
);
width = 500;
}
);
unicode = 2020;
},
{
color = 6;
glyphname = daggerdbl;
layers = (
{
layerId = "63C36BCE-C2CB-4BF3-9C7E-344D74934179";
paths = (
{
closed = 1;
nodes = (
"194 -112 OFFCURVE",
"217 -92 OFFCURVE",
"217 -35 CURVE SMOOTH",
"217 -18 OFFCURVE",
"215 6 OFFCURVE",
"215 41 CURVE SMOOTH",
"215 57 LINE",
"221 61 LINE",
"225 47 OFFCURVE",
"245 28 OFFCURVE",
"281 28 CURVE SMOOTH",
"332 28 OFFCURVE",
"361 64 OFFCURVE",
"371 93 CURVE",
"375 93 LINE",
"359 19 LINE",
"388 19 LINE",
"429 211 LINE",
"401 211 LINE",
"385 135 LINE SMOOTH",
"380 112 OFFCURVE",
"365 92 OFFCURVE",
"333 92 CURVE SMOOTH",
"263 92 LINE SMOOTH",
"244 92 OFFCURVE",
"229 83 OFFCURVE",
"223 76 CURVE",
"220 79 LINE",
"240 130 LINE SMOOTH",
"258 177 OFFCURVE",
"269 226 OFFCURVE",
"266 313 CURVE",
"252 313 LINE",
"212 224 OFFCURVE",
"204 177 OFFCURVE",
"202 130 CURVE SMOOTH",
"200 79 LINE",
"195 76 LINE",
"192 83 OFFCURVE",
"181 92 OFFCURVE",
"163 92 CURVE SMOOTH",
"93 92 LINE SMOOTH",
"61 92 OFFCURVE",
"54 112 OFFCURVE",
"59 135 CURVE SMOOTH",
"75 211 LINE",
"47 211 LINE",
"6 19 LINE",
"35 19 LINE",
"51 93 LINE",
"55 93 LINE",
"53 64 OFFCURVE",
"65 28 OFFCURVE",
"117 28 CURVE SMOOTH",
"153 28 OFFCURVE",
"180 47 OFFCURVE",
"191 61 CURVE",
"196 57 LINE",
"189 41 LINE SMOOTH",
"151 -46 OFFCURVE",
"141 -63 OFFCURVE",
"141 -81 CURVE SMOOTH",
"141 -101 OFFCURVE",
"153 -112 OFFCURVE",
"169 -112 CURVE SMOOTH"
);
},
{
closed = 1;
nodes = (
"274 348 LINE",
"314 436 OFFCURVE",
"323 484 OFFCURVE",
"325 531 CURVE SMOOTH",
"327 582 LINE",
"331 585 LINE",
"334 578 OFFCURVE",
"345 569 OFFCURVE",
"364 569 CURVE SMOOTH",
"434 569 LINE SMOOTH",
"465 569 OFFCURVE",
"473 549 OFFCURVE",
"468 526 CURVE SMOOTH",
"452 450 LINE",
"480 450 LINE",
"520 642 LINE",
"491 642 LINE",
"476 568 LINE",
"472 568 LINE",
"474 597 OFFCURVE",
"461 633 OFFCURVE",
"410 633 CURVE SMOOTH",
"374 633 OFFCURVE",
"346 614 OFFCURVE",
"335 600 CURVE",
"330 604 LINE",
"338 620 LINE SMOOTH",
"364 672 OFFCURVE",
"385 715 OFFCURVE",
"385 742 CURVE SMOOTH",
"385 762 OFFCURVE",
"373 773 OFFCURVE",
"357 773 CURVE SMOOTH",
"333 773 OFFCURVE",
"310 753 OFFCURVE",
"310 693 CURVE SMOOTH",
"310 681 OFFCURVE",
"311 654 OFFCURVE",
"311 620 CURVE SMOOTH",
"311 604 LINE",
"305 600 LINE",
"301 614 OFFCURVE",
"282 633 OFFCURVE",
"246 633 CURVE SMOOTH",
"194 633 OFFCURVE",
"166 597 OFFCURVE",
"156 568 CURVE",
"152 568 LINE",
"167 642 LINE",
"138 642 LINE",
"98 450 LINE",
"126 450 LINE",
"142 526 LINE SMOOTH",
"147 549 OFFCURVE",
"161 569 OFFCURVE",
"194 569 CURVE SMOOTH",
"264 569 LINE SMOOTH",
"282 569 OFFCURVE",
"297 578 OFFCURVE",
"303 585 CURVE",
"307 582 LINE",
"287 531 LINE SMOOTH",
"268 482 OFFCURVE",
"258 436 OFFCURVE",
"260 348 CURVE"
);
}
);
width = 500;
}
);
unicode = 2021;
},
{
color = 6;
glyphname = dieresiscomb;
layers = (
{
anchors = (
{
name = _top;
position = "{435, 540}";
},
{
name = top;
position = "{470, 705}";
}
);
layerId = "63C36BCE-C2CB-4BF3-9C7E-344D74934179";
paths = (
{
closed = 1;
nodes = (
"551 605 OFFCURVE",
"581 634 OFFCURVE",
"581 666 CURVE SMOOTH",
"581 689 OFFCURVE",
"564 705 OFFCURVE",
"540 705 CURVE SMOOTH",
"508 705 OFFCURVE",
"478 676 OFFCURVE",
"478 644 CURVE SMOOTH",
"478 621 OFFCURVE",
"495 605 OFFCURVE",
"519 605 CURVE SMOOTH"
);
},
{
closed = 1;
nodes = (
"410 605 OFFCURVE",
"440 634 OFFCURVE",
"440 666 CURVE SMOOTH",
"440 689 OFFCURVE",
"423 705 OFFCURVE",
"399 705 CURVE SMOOTH",
"367 705 OFFCURVE",
"337 676 OFFCURVE",
"337 644 CURVE SMOOTH",
"337 621 OFFCURVE",
"354 605 OFFCURVE",
"378 605 CURVE SMOOTH"
);
}
);
width = 500;
}
);
unicode = 0308;
},
{
color = 6;
glyphname = dotaccentcomb;
layers = (
{
anchors = (
{
name = _top;
position = "{358, 540}";
},
{
name = top;
position = "{400, 740}";
}
);
layerId = "63C36BCE-C2CB-4BF3-9C7E-344D74934179";
paths = (
{
closed = 1;
nodes = (
"412 630 OFFCURVE",
"445 662 OFFCURVE",
"445 697 CURVE SMOOTH",
"445 722 OFFCURVE",
"426 740 OFFCURVE",
"400 740 CURVE SMOOTH",
"365 740 OFFCURVE",
"332 708 OFFCURVE",
"332 673 CURVE SMOOTH",
"332 648 OFFCURVE",
"350 630 OFFCURVE",
"377 630 CURVE SMOOTH"
);
}
);
width = 500;
}
);
unicode = 0307;
},
{
color = 6;
glyphname = gravecomb;
layers = (
{
anchors = (
{
name = _top;
position = "{399, 540}";
},
{
name = top;
position = "{393, 740}";
}
);
layerId = "63C36BCE-C2CB-4BF3-9C7E-344D74934179";
paths = (
{
closed = 1;
nodes = (
"399 580 LINE",
"413 760 LINE",
"353 760 LINE",
"387 580 LINE"
);
}
);
width = 500;
}
);
unicode = 0300;
},
{
color = 6;
glyphname = acutecomb;
layers = (
{
anchors = (
{
name = _top;
position = "{319, 540}";
},
{
name = top;
position = "{393, 740}";
}
);
layerId = "63C36BCE-C2CB-4BF3-9C7E-344D74934179";
paths = (
{
closed = 1;
nodes = (
"331 580 LINE",
"443 760 LINE",
"373 760 LINE",
"319 580 LINE"
);
}
);
width = 500;
}
);
unicode = 0301;
},
{
color = 6;
glyphname = hungarumlautcomb;
layers = (
{
anchors = (
{
name = _top;
position = "{366, 540}";
},
{
name = top;
position = "{438, 760}";
}
);
layerId = "63C36BCE-C2CB-4BF3-9C7E-344D74934179";
paths = (
{
closed = 1;
nodes = (
"417 580 LINE",
"519 760 LINE",
"459 760 LINE",
"405 580 LINE"
);
},
{
closed = 1;
nodes = (
"331 580 LINE",
"433 760 LINE",
"373 760 LINE",
"319 580 LINE"
);
}
);
width = 500;
}
);
unicode = 030B;
},
{
color = 6;
glyphname = circumflexcomb;
layers = (
{
anchors = (
{
name = _top;
position = "{375, 540}";
},
{
name = top;
position = "{478, 661}";
}
);
layerId = "63C36BCE-C2CB-4BF3-9C7E-344D74934179";
paths = (
{
closed = 1;
nodes = (
"311 580 LINE",
"407 686 LINE",
"457 580 LINE",
"469 580 LINE",
"440 750 LINE",
"400 750 LINE",
"299 580 LINE"
);
}
);
width = 500;
}
);
unicode = 0302;
},
{
color = 6;
glyphname = caroncomb;
layers = (
{
anchors = (
{
name = _top;
position = "{339, 540}";
},
{
name = top;
position = "{384, 750}";
}
);
layerId = "63C36BCE-C2CB-4BF3-9C7E-344D74934179";
paths = (
{
closed = 1;
nodes = (
"368 580 LINE",
"469 750 LINE",
"457 750 LINE",
"361 644 LINE",
"311 750 LINE",
"299 750 LINE",
"328 580 LINE"
);
}
);
width = 500;
}
);
unicode = 030C;
},
{
color = 6;
glyphname = brevecomb;
layers = (
{
anchors = (
{
name = _top;
position = "{329, 540}";
},
{
name = top;
position = "{357, 673}";
}
);
guideLines = (
{
angle = 258.0558;
position = "{346, 622}";
}
);
layerId = "63C36BCE-C2CB-4BF3-9C7E-344D74934179";
paths = (
{
closed = 1;
nodes = (
"409 596 OFFCURVE",
"443 684 OFFCURVE",
"449 750 CURVE",
"431 750 LINE",
"427 706 OFFCURVE",
"403 648 OFFCURVE",
"351 648 CURVE SMOOTH",
"298 648 OFFCURVE",
"300 706 OFFCURVE",
"316 750 CURVE",
"298 750 LINE",
"273 684 OFFCURVE",
"267 596 OFFCURVE",
"338 596 CURVE SMOOTH"
);
}
);
width = 500;
}
);
unicode = 0306;
},
{
color = 6;
glyphname = ringcomb;
layers = (
{
anchors = (
{
name = _top;
position = "{283, 540}";
},
{
name = top;
position = "{328, 750}";
}
);
layerId = "63C36BCE-C2CB-4BF3-9C7E-344D74934179";
paths = (
{
closed = 1;
nodes = (
"361 584 OFFCURVE",
"393 621 OFFCURVE",
"393 667 CURVE SMOOTH",
"393 713 OFFCURVE",
"361 750 OFFCURVE",
"310 750 CURVE SMOOTH",
"259 750 OFFCURVE",
"227 713 OFFCURVE",
"227 667 CURVE SMOOTH",
"227 621 OFFCURVE",
"259 584 OFFCURVE",
"310 584 CURVE SMOOTH"
);
},
{
closed = 1;
nodes = (
"275 611 OFFCURVE",
"256 636 OFFCURVE",
"256 667 CURVE SMOOTH",
"256 698 OFFCURVE",
"275 723 OFFCURVE",
"310 723 CURVE SMOOTH",
"345 723 OFFCURVE",
"364 698 OFFCURVE",
"364 667 CURVE SMOOTH",
"364 636 OFFCURVE",
"345 611 OFFCURVE",
"310 611 CURVE SMOOTH"
);
}
);
width = 500;
}
);
unicode = 030A;
},
{
color = 6;
glyphname = tildecomb;
layers = (
{
anchors = (
{
name = _top;
position = "{373, 540}";
},
{
name = top;
position = "{407, 703}";
}
);
layerId = "63C36BCE-C2CB-4BF3-9C7E-344D74934179";
paths = (
{
closed = 1;
nodes = (
"475 609 OFFCURVE",
"492 679 OFFCURVE",
"497 700 CURVE",
"484 700 LINE",
"478 672 OFFCURVE",
"466 655 OFFCURVE",
"448 655 CURVE SMOOTH",
"419 655 OFFCURVE",
"404 703 OFFCURVE",
"366 703 CURVE SMOOTH",
"319 703 OFFCURVE",
"300 625 OFFCURVE",
"298 612 CURVE",
"311 612 LINE",
"317 640 OFFCURVE",
"328 657 OFFCURVE",
"347 657 CURVE SMOOTH",
"377 657 OFFCURVE",
"390 609 OFFCURVE",
"429 609 CURVE SMOOTH"
);
}
);
width = 500;
}
);
unicode = 0303;
},
{
color = 6;
glyphname = macroncomb;
layers = (
{
anchors = (
{
name = _top;
position = "{215, 540}";
},
{
name = top;
position = "{243, 669}";
}
);
layerId = "63C36BCE-C2CB-4BF3-9C7E-344D74934179";
paths = (
{
closed = 1;
nodes = (
"369 637.9 LINE",
"375 668.5 LINE",
"110 668.5 LINE",
"104 637.9 LINE"
);
}
);
width = 500;
}
);
unicode = 0304;
},
{
color = 6;
glyphname = hookabovecomb;
layers = (
{
anchors = (
{
name = _top;
position = "{240, 540}";
},
{
name = top;
position = "{285, 754}";
}
);
layerId = "63C36BCE-C2CB-4BF3-9C7E-344D74934179";
paths = (
{
closed = 1;
nodes = (
"259 590 LINE",
"260 596 LINE SMOOTH",
"268 647 OFFCURVE",
"342 651 OFFCURVE",
"342 704 CURVE SMOOTH",
"342 733 OFFCURVE",
"319 754 OFFCURVE",
"281 754 CURVE SMOOTH",
"235 754 OFFCURVE",
"203 725 OFFCURVE",
"203 692 CURVE SMOOTH",
"203 673 OFFCURVE",
"215 663 OFFCURVE",
"230 663 CURVE SMOOTH",
"245 663 OFFCURVE",
"254 673 OFFCURVE",
"254 686 CURVE SMOOTH",
"254 696 OFFCURVE",
"247 704 OFFCURVE",
"239 709 CURVE SMOOTH",
"231 714 LINE",
"237 721 OFFCURVE",
"252 731 OFFCURVE",
"270 731 CURVE SMOOTH",
"290 731 OFFCURVE",
"301 719 OFFCURVE",
"301 702 CURVE SMOOTH",
"301 664 OFFCURVE",
"250 657 OFFCURVE",
"240 596 CURVE SMOOTH",
"239 590 LINE"
);
}
);
width = 500;
}
);
unicode = 0309;
},
{
color = 6;
glyphname = commaturnedabovecomb;
layers = (
{
anchors = (
{
name = _top;
position = "{194, 540}";
},
{
name = top;
position = "{241, 761}";
}
);
layerId = "63C36BCE-C2CB-4BF3-9C7E-344D74934179";
paths = (
{
closed = 1;
nodes = (
"237.2 580 OFFCURVE",
"264.2 604.3 OFFCURVE",
"264.2 635.8 CURVE SMOOTH",
"264.2 662.8 OFFCURVE",
"243.5 679 OFFCURVE",
"218.3 679 CURVE",
"223 700 OFFCURVE",
"262 729 OFFCURVE",
"290.3 744.7 CURVE",
"282.2 760.9 LINE",
"231 736 OFFCURVE",
"163 683 OFFCURVE",
"162.5 628.6 CURVE SMOOTH",
"162.5 597.1 OFFCURVE",
"183.2 580 OFFCURVE",
"207.5 580 CURVE SMOOTH"
);
}
);
width = 500;
}
);
unicode = 0312;
},
{
color = 6;
glyphname = horncomb;
layers = (
{
anchors = (
{
name = _topright;
position = "{463, 508}";
},
{
name = topright;
position = "{620, 648}";
}
);
layerId = "63C36BCE-C2CB-4BF3-9C7E-344D74934179";
paths = (
{
closed = 1;
nodes = (
"476 483 LINE SMOOTH",
"546 483 OFFCURVE",
"585 539 OFFCURVE",
"585 583 CURVE SMOOTH",
"585 614 OFFCURVE",
"564 628 OFFCURVE",
"542 628 CURVE SMOOTH",
"517 628 OFFCURVE",
"496 609 OFFCURVE",
"496 584 CURVE SMOOTH",
"496 563 OFFCURVE",
"511 544 OFFCURVE",
"534 544 CURVE SMOOTH",
"536 544 OFFCURVE",
"539 544 OFFCURVE",
"542 545 CURVE",
"539 530 OFFCURVE",
"518 508 OFFCURVE",
"481 508 CURVE SMOOTH",
"463 508 LINE",
"458 483 LINE"
);
}
);
width = 500;
}
);
unicode = 031B;
},
{
color = 6;
glyphname = dotbelowcomb;
layers = (
{
anchors = (
{
name = _bottom;
position = "{225, 0}";
},
{
name = bottom;
position = "{189, -171}";
}
);
layerId = "63C36BCE-C2CB-4BF3-9C7E-344D74934179";
paths = (
{
closed = 1;
nodes = (
"221 -171 OFFCURVE",
"250 -142 OFFCURVE",
"250 -111 CURVE SMOOTH",
"250 -88 OFFCURVE",
"234 -72 OFFCURVE",
"210 -72 CURVE SMOOTH",
"178 -72 OFFCURVE",
"149 -101 OFFCURVE",
"149 -132 CURVE SMOOTH",
"149 -154 OFFCURVE",
"165 -171 OFFCURVE",
"189 -171 CURVE SMOOTH"
);
}
);
width = 500;
}
);
unicode = 0323;
},
{
color = 6;
glyphname = commaaccentcomb;
layers = (
{
anchors = (
{
name = _bottom;
position = "{249, 0}";
},
{
name = bottom;
position = "{205, -207}";
}
);
layerId = "63C36BCE-C2CB-4BF3-9C7E-344D74934179";
paths = (
{
closed = 1;
nodes = (
"215 -182 OFFCURVE",
"284 -129 OFFCURVE",
"283.5 -74.6 CURVE SMOOTH",
"283.5 -43.1 OFFCURVE",
"262.8 -26 OFFCURVE",
"238.5 -26 CURVE SMOOTH",
"208.8 -26 OFFCURVE",
"181.8 -50.3 OFFCURVE",
"181.8 -81.8 CURVE SMOOTH",
"181.8 -108.8 OFFCURVE",
"202.5 -125 OFFCURVE",
"227.7 -125 CURVE",
"223 -146 OFFCURVE",
"184 -175 OFFCURVE",
"155.7 -190.7 CURVE",
"163.8 -206.9 LINE"
);
}
);
width = 500;
}
);
unicode = 0326;
},
{
color = 6;
glyphname = cedillacomb;
layers = (
{
anchors = (
{
name = _bottom;
position = "{197, -8}";
},
{
name = bottom;
position = "{172, -213}";
}
);
layerId = "63C36BCE-C2CB-4BF3-9C7E-344D74934179";
paths = (
{
closed = 1;
nodes = (
"261 -213 OFFCURVE",
"282 -164 OFFCURVE",
"282 -128 CURVE SMOOTH",
"282 -89 OFFCURVE",
"254 -43 OFFCURVE",
"169 -50 CURVE",
"197 -8 LINE",
"164 -8 LINE",
"116 -86 LINE",
"124 -91 LINE",
"137 -86 OFFCURVE",
"152 -84 OFFCURVE",
"164 -84 CURVE SMOOTH",
"206 -84 OFFCURVE",
"239 -105 OFFCURVE",
"239 -139 CURVE SMOOTH",
"239 -166 OFFCURVE",
"219 -193 OFFCURVE",
"176 -193 CURVE SMOOTH",
"162 -193 OFFCURVE",
"150 -191 OFFCURVE",
"144 -189 CURVE",
"142 -165 LINE SMOOTH",
"141 -148 OFFCURVE",
"136 -118 OFFCURVE",
"104 -118 CURVE SMOOTH",
"78 -118 OFFCURVE",
"68 -138 OFFCURVE",
"68 -155 CURVE SMOOTH",
"68 -190 OFFCURVE",
"115 -213 OFFCURVE",
"176 -213 CURVE SMOOTH"
);
}
);
width = 500;
}
);
unicode = 0327;
},
{
color = 6;
glyphname = ogonekcomb;
layers = (
{
anchors = (
{
name = _ogonek;
position = "{212, 0}";
}
);
layerId = "63C36BCE-C2CB-4BF3-9C7E-344D74934179";
paths = (
{
closed = 1;
nodes = (
"240 -176 OFFCURVE",
"276 -134 OFFCURVE",
"289 -102 CURVE",
"278 -96 LINE",
"270 -111 OFFCURVE",
"249 -131 OFFCURVE",
"220 -131 CURVE SMOOTH",
"194 -131 OFFCURVE",
"172 -117 OFFCURVE",
"172 -84 CURVE SMOOTH",
"172 -39 OFFCURVE",
"215 -9 OFFCURVE",
"247 0 CURVE",
"212 0 LINE",
"175 -12 OFFCURVE",
"125 -51 OFFCURVE",
"125 -110 CURVE SMOOTH",
"125 -161 OFFCURVE",
"160 -176 OFFCURVE",
"190 -176 CURVE SMOOTH"
);
}
);
width = 500;
}
);
unicode = 0328;
},
{
color = 6;
glyphname = brevecomb_acutecomb;
layers = (
{
anchors = (
{
name = _top;
position = "{329, 540}";
},
{
name = top;
position = "{431, 873}";
}
);
layerId = "63C36BCE-C2CB-4BF3-9C7E-344D74934179";
paths = (
{
closed = 1;
nodes = (
"409 596 OFFCURVE",
"443 684 OFFCURVE",
"449 750 CURVE",
"431 750 LINE",
"427 706 OFFCURVE",
"403 648 OFFCURVE",
"351 648 CURVE SMOOTH",
"298 648 OFFCURVE",
"300 706 OFFCURVE",
"316 750 CURVE",
"298 750 LINE",
"273 684 OFFCURVE",
"267 596 OFFCURVE",
"338 596 CURVE SMOOTH"
);
},
{
closed = 1;
nodes = (
"369 713 LINE",
"481 893 LINE",
"411 893 LINE",
"357 713 LINE"
);
}
);
width = 500;
}
);
},
{
color = 6;
glyphname = brevecomb_gravecomb;
layers = (
{
anchors = (
{
name = _top;
position = "{329, 540}";
},
{
name = top;
position = "{366, 874}";
}
);
layerId = "63C36BCE-C2CB-4BF3-9C7E-344D74934179";
paths = (
{
closed = 1;
nodes = (
"409 596 OFFCURVE",
"443 684 OFFCURVE",
"449 750 CURVE",
"431 750 LINE",
"427 706 OFFCURVE",
"403 648 OFFCURVE",
"351 648 CURVE SMOOTH",
"298 648 OFFCURVE",
"300 706 OFFCURVE",
"316 750 CURVE",
"298 750 LINE",
"273 684 OFFCURVE",
"267 596 OFFCURVE",
"338 596 CURVE SMOOTH"
);
},
{
closed = 1;
nodes = (
"372 714 LINE",
"386 894 LINE",
"326 894 LINE",
"360 714 LINE"
);
}
);
width = 500;
}
);
},
{
color = 6;
glyphname = brevecomb_hookabovecomb;
layers = (
{
anchors = (
{
name = _top;
position = "{329, 540}";
},
{
name = top;
position = "{402, 887}";
}
);
layerId = "63C36BCE-C2CB-4BF3-9C7E-344D74934179";
paths = (
{
closed = 1;
nodes = (
"409 596 OFFCURVE",
"443 684 OFFCURVE",
"449 750 CURVE",
"431 750 LINE",
"427 706 OFFCURVE",
"403 648 OFFCURVE",
"351 648 CURVE SMOOTH",
"298 648 OFFCURVE",
"300 706 OFFCURVE",
"316 750 CURVE",
"298 750 LINE",
"273 684 OFFCURVE",
"267 596 OFFCURVE",
"338 596 CURVE SMOOTH"
);
},
{
closed = 1;
nodes = (
"376 723 LINE",
"377 729 LINE SMOOTH",
"385 780 OFFCURVE",
"459 784 OFFCURVE",
"459 837 CURVE SMOOTH",
"459 866 OFFCURVE",
"436 887 OFFCURVE",
"398 887 CURVE SMOOTH",
"352 887 OFFCURVE",
"320 858 OFFCURVE",
"320 825 CURVE SMOOTH",
"320 806 OFFCURVE",
"332 796 OFFCURVE",
"347 796 CURVE SMOOTH",
"362 796 OFFCURVE",
"371 806 OFFCURVE",
"371 819 CURVE SMOOTH",
"371 829 OFFCURVE",
"364 837 OFFCURVE",
"356 842 CURVE SMOOTH",
"348 847 LINE",
"354 854 OFFCURVE",
"369 864 OFFCURVE",
"387 864 CURVE SMOOTH",
"407 864 OFFCURVE",
"418 852 OFFCURVE",
"418 835 CURVE SMOOTH",
"418 797 OFFCURVE",
"367 790 OFFCURVE",
"357 729 CURVE SMOOTH",
"356 723 LINE"
);
}
);
width = 500;
}
);
},
{
color = 6;
glyphname = brevecomb_tildecomb;
layers = (
{
anchors = (
{
name = _top;
position = "{329, 540}";
},
{
name = top;
position = "{391, 836}";
}
);
layerId = "63C36BCE-C2CB-4BF3-9C7E-344D74934179";
paths = (
{
closed = 1;
nodes = (
"409 596 OFFCURVE",
"443 684 OFFCURVE",
"449 750 CURVE",
"431 750 LINE",
"427 706 OFFCURVE",
"403 648 OFFCURVE",
"351 648 CURVE SMOOTH",
"298 648 OFFCURVE",
"300 706 OFFCURVE",
"316 750 CURVE",
"298 750 LINE",
"273 684 OFFCURVE",
"267 596 OFFCURVE",
"338 596 CURVE SMOOTH"
);
},
{
closed = 1;
nodes = (
"459 742 OFFCURVE",
"476 812 OFFCURVE",
"481 833 CURVE",
"468 833 LINE",
"462 805 OFFCURVE",
"450 788 OFFCURVE",
"432 788 CURVE SMOOTH",
"403 788 OFFCURVE",
"388 836 OFFCURVE",
"350 836 CURVE SMOOTH",
"303 836 OFFCURVE",
"284 758 OFFCURVE",
"282 745 CURVE",
"295 745 LINE",
"301 773 OFFCURVE",
"312 790 OFFCURVE",
"331 790 CURVE SMOOTH",
"361 790 OFFCURVE",
"374 742 OFFCURVE",
"413 742 CURVE SMOOTH"
);
}
);
width = 500;
}
);
},
{
color = 6;
glyphname = circumflexcomb_acutecomb;
layers = (
{
anchors = (
{
name = _top;
position = "{375, 540}";
},
{
name = top;
position = "{552, 861}";
}
);
layerId = "63C36BCE-C2CB-4BF3-9C7E-344D74934179";
paths = (
{
closed = 1;
nodes = (
"311 580 LINE",
"407 686 LINE",
"457 580 LINE",
"469 580 LINE",
"440 750 LINE",
"400 750 LINE",
"299 580 LINE"
);
},
{
closed = 1;
nodes = (
"490 701 LINE",
"602 881 LINE",
"532 881 LINE",
"478 701 LINE"
);
}
);
width = 500;
}
);
},
{
color = 6;
glyphname = circumflexcomb_gravecomb;
layers = (
{
anchors = (
{
name = _top;
position = "{375, 540}";
},
{
name = top;
position = "{492, 861}";
}
);
layerId = "63C36BCE-C2CB-4BF3-9C7E-344D74934179";
paths = (
{
closed = 1;
nodes = (
"311 580 LINE",
"407 686 LINE",
"457 580 LINE",
"469 580 LINE",
"440 750 LINE",
"400 750 LINE",
"299 580 LINE"
);
},
{
closed = 1;
nodes = (
"498 701 LINE",
"512 881 LINE",
"452 881 LINE",
"486 701 LINE"
);
}
);
width = 500;
}
);
},
{
color = 6;
glyphname = circumflexcomb_hookabovecomb;
layers = (
{
anchors = (
{
name = _top;
position = "{375, 540}";
},
{
name = top;
position = "{523, 875}";
}
);
layerId = "63C36BCE-C2CB-4BF3-9C7E-344D74934179";
paths = (
{
closed = 1;
nodes = (
"311 580 LINE",
"407 686 LINE",
"457 580 LINE",
"469 580 LINE",
"440 750 LINE",
"400 750 LINE",
"299 580 LINE"
);
},
{
closed = 1;
nodes = (
"497 711 LINE",
"498 717 LINE SMOOTH",
"506 768 OFFCURVE",
"580 772 OFFCURVE",
"580 825 CURVE SMOOTH",
"580 854 OFFCURVE",
"557 875 OFFCURVE",
"519 875 CURVE SMOOTH",
"473 875 OFFCURVE",
"441 846 OFFCURVE",
"441 813 CURVE SMOOTH",
"441 794 OFFCURVE",
"453 784 OFFCURVE",
"468 784 CURVE SMOOTH",
"483 784 OFFCURVE",
"492 794 OFFCURVE",
"492 807 CURVE SMOOTH",
"492 817 OFFCURVE",
"485 825 OFFCURVE",
"477 830 CURVE SMOOTH",
"469 835 LINE",
"475 842 OFFCURVE",
"490 852 OFFCURVE",
"508 852 CURVE SMOOTH",
"528 852 OFFCURVE",
"539 840 OFFCURVE",
"539 823 CURVE SMOOTH",
"539 785 OFFCURVE",
"488 778 OFFCURVE",
"478 717 CURVE SMOOTH",
"477 711 LINE"
);
}
);
width = 500;
}
);
},
{
color = 6;
glyphname = circumflexcomb_tildecomb;
layers = (
{
anchors = (
{
name = _top;
position = "{375, 540}";
},
{
name = top;
position = "{448, 860}";
}
);
layerId = "63C36BCE-C2CB-4BF3-9C7E-344D74934179";
paths = (
{
closed = 1;
nodes = (
"311 580 LINE",
"407 686 LINE",
"457 580 LINE",
"469 580 LINE",
"440 750 LINE",
"400 750 LINE",
"299 580 LINE"
);
},
{
closed = 1;
nodes = (
"516 766 OFFCURVE",
"533 836 OFFCURVE",
"538 857 CURVE",
"525 857 LINE",
"519 829 OFFCURVE",
"507 812 OFFCURVE",
"489 812 CURVE SMOOTH",
"460 812 OFFCURVE",
"445 860 OFFCURVE",
"407 860 CURVE SMOOTH",
"360 860 OFFCURVE",
"341 782 OFFCURVE",
"339 769 CURVE",
"352 769 LINE",
"358 797 OFFCURVE",
"369 814 OFFCURVE",
"388 814 CURVE SMOOTH",
"418 814 OFFCURVE",
"431 766 OFFCURVE",
"470 766 CURVE SMOOTH"
);
}
);
width = 500;
}
);
},
{
color = 6;
export = 0;
glyphname = "serif-lower1";
layers = (
{
layerId = "63C36BCE-C2CB-4BF3-9C7E-344D74934179";
paths = (
{
closed = 1;
nodes = (
"591 0 LINE",
"591 28 LINE",
"402 38 LINE",
"402 146 LINE",
"334 146 LINE",
"334 38 LINE",
"145 28 LINE",
"145 0 LINE"
);
}
);
width = 600;
}
);
},
{
color = 6;
export = 0;
glyphname = "stem-lower";
layers = (
{
layerId = "63C36BCE-C2CB-4BF3-9C7E-344D74934179";
paths = (
{
closed = 1;
nodes = (
"327 0 LINE",
"327 740 LINE",
"259 740 LINE",
"259 0 LINE"
);
}
);
width = 600;
}
);
},
{
color = 6;
export = 0;
glyphname = "serif-top1";
layers = (
{
layerId = "63C36BCE-C2CB-4BF3-9C7E-344D74934179";
paths = (
{
closed = 1;
nodes = (
"402 544 LINE",
"402 700 LINE",
"378 700 LINE",
"334 675 LINE",
"192 662 LINE",
"192 638 LINE",
"334 638 LINE",
"334 544 LINE"
);
}
);
width = 600;
}
);
},
{
color = 6;
export = 0;
glyphname = ncurve;
layers = (
{
layerId = "63C36BCE-C2CB-4BF3-9C7E-344D74934179";
paths = (
{
closed = 1;
nodes = (
"155 0 LINE",
"155 421 LINE",
"164 457 OFFCURVE",
"197 504 OFFCURVE",
"254 504 CURVE SMOOTH",
"300 504 OFFCURVE",
"324 476 OFFCURVE",
"324 424 CURVE SMOOTH",
"324 0 LINE",
"476 0 LINE",
"476 28 LINE",
"392 36 LINE",
"392 430 LINE SMOOTH",
"392 508 OFFCURVE",
"351 550 OFFCURVE",
"286 550 CURVE SMOOTH",
"218 550 OFFCURVE",
"173 504 OFFCURVE",
"158 469 CURVE",
"155 469 LINE",
"155 506 LINE",
"87 506 LINE",
"87 0 LINE"
);
}
);
width = 580;
}
);
},
{
color = 6;
export = 0;
glyphname = "serif-lower2";
layers = (
{
layerId = "63C36BCE-C2CB-4BF3-9C7E-344D74934179";
paths = (
{
closed = 1;
nodes = (
"461 0 LINE",
"461 28 LINE",
"402 36 LINE",
"402 146 LINE",
"334 146 LINE",
"334 36 LINE",
"250 28 LINE",
"250 0 LINE"
);
}
);
width = 600;
}
);
},
{
color = 6;
export = 0;
glyphname = "serif-top2";
layers = (
{
layerId = "63C36BCE-C2CB-4BF3-9C7E-344D74934179";
paths = (
{
closed = 1;
nodes = (
"402 544 LINE",
"402 700 LINE",
"378 700 LINE",
"334 675 LINE",
"232 662 LINE",
"232 638 LINE",
"334 638 LINE",
"334 544 LINE"
);
}
);
width = 600;
}
);
},
{
color = 6;
export = 0;
glyphname = "serif-top-3";
layers = (
{
layerId = "63C36BCE-C2CB-4BF3-9C7E-344D74934179";
paths = (
{
closed = 1;
nodes = (
"412 544 LINE",
"412 700 LINE",
"393 700 LINE",
"293 658 LINE",
"293 638 LINE",
"347 638 LINE",
"347 544 LINE"
);
}
);
width = 600;
}
);
},
{
color = 6;
export = 0;
glyphname = "serif-lower3";
layers = (
{
layerId = "63C36BCE-C2CB-4BF3-9C7E-344D74934179";
paths = (
{
closed = 1;
nodes = (
"431 0 LINE",
"431 25 LINE",
"402 30 OFFCURVE",
"402 38 OFFCURVE",
"402 69 CURVE SMOOTH",
"402 146 LINE",
"341 146 LINE",
"341 69 LINE SMOOTH",
"341 38 OFFCURVE",
"338 32 OFFCURVE",
"297 25 CURVE",
"297 0 LINE"
);
}
);
width = 600;
}
);
},
{
color = 6;
export = 0;
glyphname = "serif-upper-1";
layers = (
{
layerId = "63C36BCE-C2CB-4BF3-9C7E-344D74934179";
paths = (
{
closed = 1;
nodes = (
"568 0 LINE",
"568 25 LINE",
"404 39 LINE",
"404 146 LINE",
"334 146 LINE",
"334 39 LINE",
"170 25 LINE",
"170 0 LINE"
);
}
);
width = 600;
}
);
},
{
color = 6;
export = 0;
glyphname = "stem-upper";
layers = (
{
layerId = "63C36BCE-C2CB-4BF3-9C7E-344D74934179";
paths = (
{
closed = 1;
nodes = (
"328 0 LINE",
"328 710 LINE",
"258 710 LINE",
"258 0 LINE"
);
}
);
width = 600;
}
);
},
{
color = 6;
export = 0;
glyphname = "I-Stem";
layers = (
{
layerId = "63C36BCE-C2CB-4BF3-9C7E-344D74934179";
paths = (
{
closed = 1;
nodes = (
"350 0 LINE",
"350 28 LINE",
"284 34 LINE",
"284 706 LINE",
"350 712 LINE",
"350 740 LINE",
"152 740 LINE",
"152 712 LINE",
"218 706 LINE",
"218 34 LINE",
"152 28 LINE",
"152 0 LINE"
);
}
);
width = 600;
}
);
},
{
color = 6;
export = 0;
glyphname = crossbar;
layers = (
{
layerId = "63C36BCE-C2CB-4BF3-9C7E-344D74934179";
paths = (
{
closed = 1;
nodes = (
"429 271 LINE",
"436 305 LINE",
"162 305 LINE",
"155 271 LINE"
);
}
);
width = 600;
}
);
},
{
color = 6;
export = 0;
glyphname = "stem-upper-2";
layers = (
{
layerId = "63C36BCE-C2CB-4BF3-9C7E-344D74934179";
paths = (
{
closed = 1;
nodes = (
"145 0 LINE",
"145 740 LINE",
"-9 740 LINE",
"-9 712 LINE",
"75 703 LINE",
"75 37 LINE",
"-9 28 LINE",
"-9 0 LINE"
);
}
);
width = 600;
}
);
},
{
color = 6;
export = 0;
glyphname = "serif-top-4";
layers = (
{
layerId = "63C36BCE-C2CB-4BF3-9C7E-344D74934179";
paths = (
{
closed = 1;
nodes = (
"402 544 LINE",
"402 700 LINE",
"383 700 LINE",
"280 658 LINE",
"280 636 LINE",
"334 636 LINE",
"334 544 LINE"
);
}
);
width = 600;
}
);
},
{
color = 3;
export = 0;
glyphname = ncurve.001;
layers = (
{
components = (
{
alignment = -1;
name = "serif-lower2";
transform = "{-1, 0, 0, 1, 726, 0}";
}
);
layerId = "63C36BCE-C2CB-4BF3-9C7E-344D74934179";
paths = (
{
closed = 1;
nodes = (
"155 0 LINE",
"155 391 LINE SMOOTH",
"164 440 OFFCURVE",
"197 504 OFFCURVE",
"255 504 CURVE SMOOTH",
"301 504 OFFCURVE",
"324 476 OFFCURVE",
"324 431 CURVE SMOOTH",
"324 145 LINE",
"392 145 LINE",
"392 421 LINE SMOOTH",
"392 510 OFFCURVE",
"345 550 OFFCURVE",
"281 550 CURVE SMOOTH",
"215 550 OFFCURVE",
"172 496 OFFCURVE",
"158 455 CURVE",
"155 455 LINE",
"155 506 LINE",
"87 506 LINE",
"87 0 LINE"
);
}
);
width = 580;
}
);
},
{
color = 6;
export = 0;
glyphname = "serif-top-5";
layers = (
{
layerId = "63C36BCE-C2CB-4BF3-9C7E-344D74934179";
paths = (
{
closed = 1;
nodes = (
"402 544 LINE",
"402 700 LINE",
"378 700 LINE",
"334 675 LINE",
"263 662 LINE",
"263 638 LINE",
"334 638 LINE",
"334 544 LINE"
);
}
);
width = 600;
}
);
},
{
color = 6;
export = 0;
glyphname = doubleo;
layers = (
{
layerId = "63C36BCE-C2CB-4BF3-9C7E-344D74934179";
paths = (
{
closed = 1;
nodes = (
"509 -10 OFFCURVE",
"565 250 OFFCURVE",
"417 250 CURVE SMOOTH",
"269 250 OFFCURVE",
"214 -10 OFFCURVE",
"361 -10 CURVE SMOOTH"
);
},
{
closed = 1;
nodes = (
"340 13 OFFCURVE",
"314 30 OFFCURVE",
"327 95 CURVE SMOOTH",
"337 145 LINE SMOOTH",
"349 205 OFFCURVE",
"381 227 OFFCURVE",
"412 227 CURVE SMOOTH",
"442 227 OFFCURVE",
"463 206 OFFCURVE",
"451 145 CURVE SMOOTH",
"441 95 LINE SMOOTH",
"429 34 OFFCURVE",
"396 13 OFFCURVE",
"366 13 CURVE SMOOTH"
);
},
{
closed = 1;
nodes = (
"397 490 OFFCURVE",
"453 750 OFFCURVE",
"305 750 CURVE SMOOTH",
"157 750 OFFCURVE",
"102 490 OFFCURVE",
"250 490 CURVE SMOOTH"
);
},
{
closed = 1;
nodes = (
"227 513 OFFCURVE",
"201 533 OFFCURVE",
"215 595 CURVE SMOOTH",
"226 645 LINE SMOOTH",
"240 707 OFFCURVE",
"270 727 OFFCURVE",
"299 727 CURVE SMOOTH",
"328 727 OFFCURVE",
"354 707 OFFCURVE",
"340 645 CURVE SMOOTH",
"329 595 LINE SMOOTH",
"315 533 OFFCURVE",
"285 513 OFFCURVE",
"256 513 CURVE SMOOTH"
);
}
);
width = 600;
}
);
},
{
color = 6;
export = 0;
glyphname = doubleslash;
layers = (
{
layerId = "63C36BCE-C2CB-4BF3-9C7E-344D74934179";
paths = (
{
closed = 1;
nodes = (
"586 425 LINE",
"593 455 LINE",
"169 455 LINE",
"162 425 LINE"
);
},
{
closed = 1;
nodes = (
"529 250 LINE",
"535 280 LINE",
"111 280 LINE",
"105 250 LINE"
);
}
);
width = 600;
}
);
},
{
color = 6;
export = 0;
glyphname = doublestem;
layers = (
{
layerId = "63C36BCE-C2CB-4BF3-9C7E-344D74934179";
paths = (
{
closed = 1;
nodes = (
"307 0 LINE",
"637 740 LINE",
"601 740 LINE",
"271 0 LINE"
);
},
{
closed = 1;
nodes = (
"148 0 LINE",
"478 740 LINE",
"442 740 LINE",
"112 0 LINE"
);
}
);
width = 600;
}
);
},
{
color = 6;
export = 0;
glyphname = smallc;
layers = (
{
layerId = "63C36BCE-C2CB-4BF3-9C7E-344D74934179";
paths = (
{
closed = 1;
nodes = (
"309 70 OFFCURVE",
"349 116 OFFCURVE",
"363 151 CURVE",
"371 151 LINE",
"356 80 LINE",
"379 80 LINE",
"418 262 LINE",
"380 262 LINE",
"375 239 LINE SMOOTH",
"356 153 OFFCURVE",
"320 102 OFFCURVE",
"266 102 CURVE SMOOTH",
"193 102 OFFCURVE",
"212 198 OFFCURVE",
"218 225 CURVE SMOOTH",
"244 345 LINE SMOOTH",
"250 372 OFFCURVE",
"270 468 OFFCURVE",
"343 468 CURVE SMOOTH",
"395 468 OFFCURVE",
"414 417 OFFCURVE",
"395 331 CURVE SMOOTH",
"390 308 LINE",
"428 308 LINE",
"466 490 LINE",
"443 490 LINE",
"428 419 LINE",
"420 419 LINE",
"420 454 OFFCURVE",
"400 500 OFFCURVE",
"344 500 CURVE SMOOTH",
"168 500 OFFCURVE",
"75 70 OFFCURVE",
"253 70 CURVE SMOOTH"
);
}
);
width = 600;
}
);
},
{
color = 6;
export = 0;
glyphname = smallr;
layers = (
{
layerId = "63C36BCE-C2CB-4BF3-9C7E-344D74934179";
paths = (
{
closed = 1;
nodes = (
"417 465 OFFCURVE",
"430 488 OFFCURVE",
"433 505 CURVE SMOOTH",
"443 555 LINE",
"425 555 LINE",
"415 509 LINE SMOOTH",
"413 501 OFFCURVE",
"411 491 OFFCURVE",
"400 491 CURVE SMOOTH",
"389 491 OFFCURVE",
"390 504 OFFCURVE",
"392 512 CURVE SMOOTH",
"402 558 LINE SMOOTH",
"407 579 OFFCURVE",
"398 600 OFFCURVE",
"373 600 CURVE SMOOTH",
"371 600 LINE",
"371 603 LINE",
"374 603 LINE SMOOTH",
"415 603 OFFCURVE",
"450 643 OFFCURVE",
"450 683 CURVE SMOOTH",
"450 712 OFFCURVE",
"432 740 OFFCURVE",
"384 740 CURVE SMOOTH",
"286 740 LINE",
"282 725 LINE",
"315 721 LINE",
"265 488 LINE",
"231 484 LINE",
"228 469 LINE",
"328 469 LINE",
"331 484 LINE",
"298 488 LINE",
"320 592 LINE",
"337 592 LINE SMOOTH",
"369 592 OFFCURVE",
"375 581 OFFCURVE",
"369 554 CURVE SMOOTH",
"359 505 LINE SMOOTH",
"354 482 OFFCURVE",
"363 465 OFFCURVE",
"387 465 CURVE SMOOTH"
);
},
{
closed = 1;
nodes = (
"348 723 LINE",
"371 723 LINE SMOOTH",
"406 723 OFFCURVE",
"423 708 OFFCURVE",
"415 673 CURVE SMOOTH",
"412 660 LINE SMOOTH",
"404 624 OFFCURVE",
"381 613 OFFCURVE",
"348 613 CURVE SMOOTH",
"325 613 LINE"
);
}
);
width = 600;
}
);
},
